ISO-10303-21;
HEADER;
FILE_DESCRIPTION(('STEP AP214'),'1');
FILE_NAME('SON4_PTS526 SM15 SMTR2 LFS_CNK','2026-09-04T09:49:39',(''),(''),'','','');
FILE_SCHEMA(('AUTOMOTIVE_DESIGN'));
ENDSEC;
DATA;
#1=SHAPE_DEFINITION_REPRESENTATION(#2,#3);
#2=PRODUCT_DEFINITION_SHAPE('',$,#4);
#3=SHAPE_REPRESENTATION('',(#164,#210,#480,#802,#1092,#1402,#19),#11);
#4=PRODUCT_DEFINITION('design','example product_definition',#6,#5);
#5=PRODUCT_DEFINITION_CONTEXT('3D Mechanical Parts',#10,'design');
#6=PRODUCT_DEFINITION_FORMATION('1.0','first version',#8);
#7=APPLICATION_PROTOCOL_DEFINITION('international standard','automotive_design',2003,#10);
#8=PRODUCT('product','part','',(#9));
#9=PRODUCT_CONTEXT('3D Mechanical Parts',#10,'mechanical');
#10=APPLICATION_CONTEXT('Core Data for Automotive Mechanical Design Process');
#11=(GEOMETRIC_REPRESENTATION_CONTEXT(3) GLOBAL_UNCERTAINTY_ASSIGNED_CONTEXT((#12)) GLOBAL_UNIT_ASSIGNED_CONTEXT((#13,#14,#18)) REPRESENTATION_CONTEXT('ID1','3D'));
#12=UNCERTAINTY_MEASURE_WITH_UNIT(LENGTH_MEASURE(1.E-005),#13,'DISTANCE_ACCURACY_VALUE','Maximum model space distance between geometric entities at asserted connectivities');
#13=(LENGTH_UNIT() NAMED_UNIT(*) SI_UNIT(.MILLI.,.METRE.));
#14=(CONVERSION_BASED_UNIT('degree',#16) NAMED_UNIT(#15) PLANE_ANGLE_UNIT());
#15=DIMENSIONAL_EXPONENTS(0.,0.,0.,0.,0.,0.,0.);
#16=MEASURE_WITH_UNIT(PLANE_ANGLE_MEASURE(0.01745329252),#17);
#17=(NAMED_UNIT(*) PLANE_ANGLE_UNIT() SI_UNIT($,.RADIAN.));
#18=(NAMED_UNIT(*) SI_UNIT($,.STERADIAN.) SOLID_ANGLE_UNIT());
#19=AXIS2_PLACEMENT_3D('',#20,#21,#22);
#20=CARTESIAN_POINT('',(0.0,0.0,0.0));
#21=DIRECTION('',(0.0,0.0,1.0));
#22=DIRECTION('',(1.0,0.0,0.0));
#23=MECHANICAL_DESIGN_GEOMETRIC_PRESENTATION_REPRESENTATION($,(#207,#208,#209,#212,#245,#271,#291,#311,#325,#348,#364,#380,#392,#418,#437,#457,#470,#482,#512,#535,#558,#591,#622,#652,#682,#696,#716,#732,#750,#766,#784,#804,#830,#850,#870,#896,#922,#948,#974,#988,#1006,#1022,#1040,#1056,#1074,#1094,#1122,#1144,#1164,#1197,#1228,#1256,#1282,#1296,#1316,#1332,#1350,#1366,#1384,#1404,#1430,#1450,#1470,#1496,#1522,#1548,#1574,#1588,#1606,#1622,#1640,#1656,#1674),#11);
#24=PRODUCT_CATEGORY_RELATIONSHIP('','',#25,#26);
#25=PRODUCT_CATEGORY('part','');
#26=PRODUCT_RELATED_PRODUCT_CATEGORY('','',(#8));
#27=PRESENTATION_STYLE_ASSIGNMENT((#28,#33));
#28=SURFACE_STYLE_USAGE(.BOTH.,#29);
#29=SURFACE_SIDE_STYLE('',(#30));
#30=SURFACE_STYLE_FILL_AREA(#31);
#31=FILL_AREA_STYLE('',(#32));
#32=FILL_AREA_STYLE_COLOUR('',#34);
#33=CURVE_STYLE('',#35,POSITIVE_LENGTH_MEASURE(0.1),#34);
#34=COLOUR_RGB('Aluminum',0.725,0.725,0.725);
#35=DRAUGHTING_PRE_DEFINED_CURVE_FONT('continuous');
#36=PRESENTATION_STYLE_ASSIGNMENT((#37,#42));
#37=SURFACE_STYLE_USAGE(.BOTH.,#38);
#38=SURFACE_SIDE_STYLE('',(#39));
#39=SURFACE_STYLE_FILL_AREA(#40);
#40=FILL_AREA_STYLE('',(#41));
#41=FILL_AREA_STYLE_COLOUR('',#43);
#42=CURVE_STYLE('',#35,POSITIVE_LENGTH_MEASURE(0.1),#43);
#43=COLOUR_RGB('Gray',0.431,0.431,0.431);
#44=PRESENTATION_STYLE_ASSIGNMENT((#45,#50));
#45=SURFACE_STYLE_USAGE(.BOTH.,#46);
#46=SURFACE_SIDE_STYLE('',(#47));
#47=SURFACE_STYLE_FILL_AREA(#48);
#48=FILL_AREA_STYLE('',(#49));
#49=FILL_AREA_STYLE_COLOUR('',#51);
#50=CURVE_STYLE('',#35,POSITIVE_LENGTH_MEASURE(0.1),#51);
#51=COLOUR_RGB('Pin1',0.588,0.588,0.588);
#52=PRESENTATION_STYLE_ASSIGNMENT((#53,#58));
#53=SURFACE_STYLE_USAGE(.BOTH.,#54);
#54=SURFACE_SIDE_STYLE('',(#55));
#55=SURFACE_STYLE_FILL_AREA(#56);
#56=FILL_AREA_STYLE('',(#57));
#57=FILL_AREA_STYLE_COLOUR('',#59);
#58=CURVE_STYLE('',#35,POSITIVE_LENGTH_MEASURE(0.1),#59);
#59=COLOUR_RGB('HeatTab',0.588,0.588,0.588);
#60=PRESENTATION_STYLE_ASSIGNMENT((#61,#66));
#61=SURFACE_STYLE_USAGE(.BOTH.,#62);
#62=SURFACE_SIDE_STYLE('',(#63));
#63=SURFACE_STYLE_FILL_AREA(#64);
#64=FILL_AREA_STYLE('',(#65));
#65=FILL_AREA_STYLE_COLOUR('',#67);
#66=CURVE_STYLE('',#35,POSITIVE_LENGTH_MEASURE(0.1),#67);
#67=COLOUR_RGB('Black',0.196,0.196,0.196);
#68=PRESENTATION_STYLE_ASSIGNMENT((#69,#74));
#69=SURFACE_STYLE_USAGE(.BOTH.,#70);
#70=SURFACE_SIDE_STYLE('',(#71));
#71=SURFACE_STYLE_FILL_AREA(#72);
#72=FILL_AREA_STYLE('',(#73));
#73=FILL_AREA_STYLE_COLOUR('',#75);
#74=CURVE_STYLE('',#35,POSITIVE_LENGTH_MEASURE(0.1),#75);
#75=COLOUR_RGB('Gold',0.843,0.686,0.0);
#76=PRESENTATION_STYLE_ASSIGNMENT((#77,#82));
#77=SURFACE_STYLE_USAGE(.BOTH.,#78);
#78=SURFACE_SIDE_STYLE('',(#79));
#79=SURFACE_STYLE_FILL_AREA(#80);
#80=FILL_AREA_STYLE('',(#81));
#81=FILL_AREA_STYLE_COLOUR('',#83);
#82=CURVE_STYLE('',#35,POSITIVE_LENGTH_MEASURE(0.1),#83);
#83=COLOUR_RGB('Brown',0.459,0.345,0.176);
#84=PRESENTATION_STYLE_ASSIGNMENT((#85,#90));
#85=SURFACE_STYLE_USAGE(.BOTH.,#86);
#86=SURFACE_SIDE_STYLE('',(#87));
#87=SURFACE_STYLE_FILL_AREA(#88);
#88=FILL_AREA_STYLE('',(#89));
#89=FILL_AREA_STYLE_COLOUR('',#91);
#90=CURVE_STYLE('',#35,POSITIVE_LENGTH_MEASURE(0.1),#91);
#91=COLOUR_RGB('Tan',0.784,0.686,0.51);
#92=PRESENTATION_STYLE_ASSIGNMENT((#93,#98));
#93=SURFACE_STYLE_USAGE(.BOTH.,#94);
#94=SURFACE_SIDE_STYLE('',(#95));
#95=SURFACE_STYLE_FILL_AREA(#96);
#96=FILL_AREA_STYLE('',(#97));
#97=FILL_AREA_STYLE_COLOUR('',#99);
#98=CURVE_STYLE('',#35,POSITIVE_LENGTH_MEASURE(0.1),#99);
#99=COLOUR_RGB('Red',0.6,0.0,0.0);
#100=PRESENTATION_STYLE_ASSIGNMENT((#101,#106));
#101=SURFACE_STYLE_USAGE(.BOTH.,#102);
#102=SURFACE_SIDE_STYLE('',(#103));
#103=SURFACE_STYLE_FILL_AREA(#104);
#104=FILL_AREA_STYLE('',(#105));
#105=FILL_AREA_STYLE_COLOUR('',#107);
#106=CURVE_STYLE('',#35,POSITIVE_LENGTH_MEASURE(0.1),#107);
#107=COLOUR_RGB('Blue',0.157,0.157,0.588);
#108=PRESENTATION_STYLE_ASSIGNMENT((#109,#114));
#109=SURFACE_STYLE_USAGE(.BOTH.,#110);
#110=SURFACE_SIDE_STYLE('',(#111));
#111=SURFACE_STYLE_FILL_AREA(#112);
#112=FILL_AREA_STYLE('',(#113));
#113=FILL_AREA_STYLE_COLOUR('',#115);
#114=CURVE_STYLE('',#35,POSITIVE_LENGTH_MEASURE(0.1),#115);
#115=COLOUR_RGB('Maroon',0.294,0.0,0.0);
#116=PRESENTATION_STYLE_ASSIGNMENT((#117,#122));
#117=SURFACE_STYLE_USAGE(.BOTH.,#118);
#118=SURFACE_SIDE_STYLE('',(#119));
#119=SURFACE_STYLE_FILL_AREA(#120);
#120=FILL_AREA_STYLE('',(#121));
#121=FILL_AREA_STYLE_COLOUR('',#123);
#122=CURVE_STYLE('',#35,POSITIVE_LENGTH_MEASURE(0.1),#123);
#123=COLOUR_RGB('Green',0.0,0.294,0.0);
#124=PRESENTATION_STYLE_ASSIGNMENT((#125,#130));
#125=SURFACE_STYLE_USAGE(.BOTH.,#126);
#126=SURFACE_SIDE_STYLE('',(#127));
#127=SURFACE_STYLE_FILL_AREA(#128);
#128=FILL_AREA_STYLE('',(#129));
#129=FILL_AREA_STYLE_COLOUR('',#131);
#130=CURVE_STYLE('',#35,POSITIVE_LENGTH_MEASURE(0.1),#131);
#131=COLOUR_RGB('Pin1Wrap',0.98,0.706,0.176);
#132=PRESENTATION_STYLE_ASSIGNMENT((#133,#138));
#133=SURFACE_STYLE_USAGE(.BOTH.,#134);
#134=SURFACE_SIDE_STYLE('',(#135));
#135=SURFACE_STYLE_FILL_AREA(#136);
#136=FILL_AREA_STYLE('',(#137));
#137=FILL_AREA_STYLE_COLOUR('',#139);
#138=CURVE_STYLE('',#35,POSITIVE_LENGTH_MEASURE(0.1),#139);
#139=COLOUR_RGB('Pin1Rad',0.588,0.588,0.588);
#140=PRESENTATION_STYLE_ASSIGNMENT((#141,#146));
#141=SURFACE_STYLE_USAGE(.BOTH.,#142);
#142=SURFACE_SIDE_STYLE('',(#143));
#143=SURFACE_STYLE_FILL_AREA(#144);
#144=FILL_AREA_STYLE('',(#145));
#145=FILL_AREA_STYLE_COLOUR('',#147);
#146=CURVE_STYLE('',#35,POSITIVE_LENGTH_MEASURE(0.1),#147);
#147=COLOUR_RGB('Pin1Axial',0.98,0.706,0.176);
#148=PRESENTATION_STYLE_ASSIGNMENT((#149,#154));
#149=SURFACE_STYLE_USAGE(.BOTH.,#150);
#150=SURFACE_SIDE_STYLE('',(#151));
#151=SURFACE_STYLE_FILL_AREA(#152);
#152=FILL_AREA_STYLE('',(#153));
#153=FILL_AREA_STYLE_COLOUR('',#155);
#154=CURVE_STYLE('',#35,POSITIVE_LENGTH_MEASURE(0.1),#155);
#155=COLOUR_RGB('Pin1Tant',0.459,0.345,0.176);
#156=PRESENTATION_STYLE_ASSIGNMENT((#157,#162));
#157=SURFACE_STYLE_USAGE(.BOTH.,#158);
#158=SURFACE_SIDE_STYLE('',(#159));
#159=SURFACE_STYLE_FILL_AREA(#160);
#160=FILL_AREA_STYLE('',(#161));
#161=FILL_AREA_STYLE_COLOUR('',#163);
#162=CURVE_STYLE('',#35,POSITIVE_LENGTH_MEASURE(0.1),#163);
#163=COLOUR_RGB('Shroud',0.235,0.235,0.235);
#164=MANIFOLD_SOLID_BREP($,#165);
#165=CLOSED_SHELL('',(#166,#167,#168));
#166=ADVANCED_FACE($,(#172,#171),#189,.T.);
#167=ADVANCED_FACE($,(#173),#169,.F.);
#168=ADVANCED_FACE($,(#174),#170,.T.);
#169=PLANE($,#194);
#170=PLANE($,#195);
#171=FACE_BOUND($,#176,.T.);
#172=FACE_OUTER_BOUND($,#175,.T.);
#173=FACE_OUTER_BOUND($,#177,.T.);
#174=FACE_OUTER_BOUND($,#178,.T.);
#175=EDGE_LOOP($,(#185));
#176=EDGE_LOOP($,(#186));
#177=EDGE_LOOP($,(#187));
#178=EDGE_LOOP($,(#188));
#179=CIRCLE($,#192,0.135255);
#180=CIRCLE($,#193,0.135255);
#181=VERTEX_POINT('',#204);
#182=VERTEX_POINT('',#206);
#183=EDGE_CURVE($,#181,#181,#179,.T.);
#184=EDGE_CURVE($,#182,#182,#180,.T.);
#185=ORIENTED_EDGE($,*,*,#183,.F.);
#186=ORIENTED_EDGE($,*,*,#184,.F.);
#187=ORIENTED_EDGE($,*,*,#184,.T.);
#188=ORIENTED_EDGE($,*,*,#183,.T.);
#189=CYLINDRICAL_SURFACE($,#191,0.135255);
#190=AXIS2_PLACEMENT_3D('placement',#202,#196,#197);
#191=AXIS2_PLACEMENT_3D($,#203,#198,#199);
#192=AXIS2_PLACEMENT_3D($,#205,#198,#199);
#193=AXIS2_PLACEMENT_3D($,#203,#200,#199);
#194=AXIS2_PLACEMENT_3D($,#203,#198,#201);
#195=AXIS2_PLACEMENT_3D($,#205,#198,#201);
#196=DIRECTION('axis',(0.,1.,0.));
#197=DIRECTION('refdir',(1.,0.,0.));
#198=DIRECTION('',(0.,0.,1.));
#199=DIRECTION('',(1.,0.,0.));
#200=DIRECTION('',(0.,0.,-1.));
#201=DIRECTION('',(0.,1.,0.));
#202=CARTESIAN_POINT('',(0.,0.,0.));
#203=CARTESIAN_POINT('',(-1.88,1.85,1.6));
#204=CARTESIAN_POINT('',(-2.015,1.85,1.603));
#205=CARTESIAN_POINT('',(-1.88,1.85,1.603));
#206=CARTESIAN_POINT('',(-2.015,1.85,1.6));
#207=STYLED_ITEM('color',(#44),#166);
#208=STYLED_ITEM('color',(#44),#167);
#209=STYLED_ITEM('color',(#44),#168);
#210=MANIFOLD_SOLID_BREP($,#211);
#211=CLOSED_SHELL('',(#213,#246,#272,#292,#312,#326,#349,#365,#381,#393,#419,#438,#458,#471));
#212=STYLED_ITEM('',(#36),#213);
#213=ADVANCED_FACE('',(#217),#214,.T.);
#214=PLANE('',#215);
#215=AXIS2_PLACEMENT_3D('',#216,#21,#201);
#216=CARTESIAN_POINT('',(-2.476,-2.654,1.6));
#217=FACE_OUTER_BOUND('',#218,.T.);
#218=EDGE_LOOP('',(#219,#227,#234,#240));
#219=ORIENTED_EDGE('',*,*,#220,.F.);
#220=EDGE_CURVE('',#221,#223,#224,.T.);
#221=VERTEX_POINT('',#222);
#222=CARTESIAN_POINT('',(2.476,-2.654,1.6));
#223=VERTEX_POINT('',#216);
#224=LINE('',#222,#225);
#225=VECTOR('',#226,4.953);
#226=DIRECTION('',(-1.0,0.0,0.0));
#227=ORIENTED_EDGE('',*,*,#228,.F.);
#228=EDGE_CURVE('',#229,#221,#231,.T.);
#229=VERTEX_POINT('',#230);
#230=CARTESIAN_POINT('',(2.476,2.654,1.6));
#231=LINE('',#230,#232);
#232=VECTOR('',#233,5.3086);
#233=DIRECTION('',(0.0,-1.0,0.0));
#234=ORIENTED_EDGE('',*,*,#235,.F.);
#235=EDGE_CURVE('',#236,#229,#238,.T.);
#236=VERTEX_POINT('',#237);
#237=CARTESIAN_POINT('',(-2.476,2.654,1.6));
#238=LINE('',#237,#239);
#239=VECTOR('',#22,4.953);
#240=ORIENTED_EDGE('',*,*,#241,.F.);
#241=EDGE_CURVE('',#223,#236,#242,.T.);
#242=LINE('',#216,#243);
#243=VECTOR('',#244,5.3086);
#244=DIRECTION('',(0.0,1.0,0.0));
#245=STYLED_ITEM('',(#36),#246);
#246=ADVANCED_FACE('',(#251),#247,.T.);
#247=PLANE('',#248);
#248=AXIS2_PLACEMENT_3D('',#249,#250,#198);
#249=CARTESIAN_POINT('',(-2.705,-2.705,0.942));
#250=DIRECTION('',(0.0,-0.997,0.077));
#251=FACE_OUTER_BOUND('',#252,.T.);
#252=EDGE_LOOP('',(#253,#260,#265,#266));
#253=ORIENTED_EDGE('',*,*,#254,.F.);
#254=EDGE_CURVE('',#255,#257,#258,.T.);
#255=VERTEX_POINT('',#256);
#256=CARTESIAN_POINT('',(2.705,-2.705,0.942));
#257=VERTEX_POINT('',#249);
#258=LINE('',#256,#259);
#259=VECTOR('',#226,5.4102);
#260=ORIENTED_EDGE('',*,*,#261,.F.);
#261=EDGE_CURVE('',#221,#255,#262,.T.);
#262=LINE('',#222,#263);
#263=VECTOR('',#264,0.698296770435035);
#264=DIRECTION('',(0.327,-0.073,-0.942));
#265=ORIENTED_EDGE('',*,*,#220,.T.);
#266=ORIENTED_EDGE('',*,*,#267,.F.);
#267=EDGE_CURVE('',#257,#223,#268,.T.);
#268=LINE('',#249,#269);
#269=VECTOR('',#270,0.698296770435035);
#270=DIRECTION('',(0.327,0.073,0.942));
#271=STYLED_ITEM('',(#36),#272);
#272=ADVANCED_FACE('',(#276),#273,.T.);
#273=PLANE('',#274);
#274=AXIS2_PLACEMENT_3D('',#256,#275,#198);
#275=DIRECTION('',(0.945,0.0,0.328));
#276=FACE_OUTER_BOUND('',#277,.T.);
#277=EDGE_LOOP('',(#278,#284,#289,#290));
#278=ORIENTED_EDGE('',*,*,#279,.F.);
#279=EDGE_CURVE('',#280,#255,#282,.T.);
#280=VERTEX_POINT('',#281);
#281=CARTESIAN_POINT('',(2.705,2.705,0.942));
#282=LINE('',#281,#283);
#283=VECTOR('',#233,5.4102);
#284=ORIENTED_EDGE('',*,*,#285,.F.);
#285=EDGE_CURVE('',#229,#280,#286,.T.);
#286=LINE('',#230,#287);
#287=VECTOR('',#288,0.698296770435035);
#288=DIRECTION('',(0.327,0.073,-0.942));
#289=ORIENTED_EDGE('',*,*,#228,.T.);
#290=ORIENTED_EDGE('',*,*,#261,.T.);
#291=STYLED_ITEM('',(#36),#292);
#292=ADVANCED_FACE('',(#296),#293,.T.);
#293=PLANE('',#294);
#294=AXIS2_PLACEMENT_3D('',#281,#295,#198);
#295=DIRECTION('',(0.0,0.997,0.077));
#296=FACE_OUTER_BOUND('',#297,.T.);
#297=EDGE_LOOP('',(#298,#304,#309,#310));
#298=ORIENTED_EDGE('',*,*,#299,.F.);
#299=EDGE_CURVE('',#300,#280,#302,.T.);
#300=VERTEX_POINT('',#301);
#301=CARTESIAN_POINT('',(-2.705,2.705,0.942));
#302=LINE('',#301,#303);
#303=VECTOR('',#22,5.4102);
#304=ORIENTED_EDGE('',*,*,#305,.F.);
#305=EDGE_CURVE('',#236,#300,#306,.T.);
#306=LINE('',#237,#307);
#307=VECTOR('',#308,0.698296770435035);
#308=DIRECTION('',(-0.327,0.073,-0.942));
#309=ORIENTED_EDGE('',*,*,#235,.T.);
#310=ORIENTED_EDGE('',*,*,#285,.T.);
#311=STYLED_ITEM('',(#36),#312);
#312=ADVANCED_FACE('',(#316),#313,.T.);
#313=PLANE('',#314);
#314=AXIS2_PLACEMENT_3D('',#301,#315,#198);
#315=DIRECTION('',(-0.945,0.0,0.328));
#316=FACE_OUTER_BOUND('',#317,.T.);
#317=EDGE_LOOP('',(#318,#322,#323,#324));
#318=ORIENTED_EDGE('',*,*,#319,.F.);
#319=EDGE_CURVE('',#257,#300,#320,.T.);
#320=LINE('',#249,#321);
#321=VECTOR('',#244,5.4102);
#322=ORIENTED_EDGE('',*,*,#267,.T.);
#323=ORIENTED_EDGE('',*,*,#241,.T.);
#324=ORIENTED_EDGE('',*,*,#305,.T.);
#325=STYLED_ITEM('',(#36),#326);
#326=ADVANCED_FACE('',(#330),#327,.T.);
#327=PLANE('',#328);
#328=AXIS2_PLACEMENT_3D('',#329,#233,#198);
#329=CARTESIAN_POINT('',(-2.705,-2.705,0.658));
#330=FACE_OUTER_BOUND('',#331,.T.);
#331=EDGE_LOOP('',(#332,#338,#343,#344));
#332=ORIENTED_EDGE('',*,*,#333,.F.);
#333=EDGE_CURVE('',#334,#336,#337,.T.);
#334=VERTEX_POINT('',#335);
#335=CARTESIAN_POINT('',(2.705,-2.705,0.658));
#336=VERTEX_POINT('',#329);
#337=LINE('',#335,#259);
#338=ORIENTED_EDGE('',*,*,#339,.F.);
#339=EDGE_CURVE('',#255,#334,#340,.T.);
#340=LINE('',#256,#341);
#341=VECTOR('',#342,0.28448);
#342=DIRECTION('',(0.0,0.0,-1.0));
#343=ORIENTED_EDGE('',*,*,#254,.T.);
#344=ORIENTED_EDGE('',*,*,#345,.F.);
#345=EDGE_CURVE('',#336,#257,#346,.T.);
#346=LINE('',#329,#347);
#347=VECTOR('',#21,0.28448);
#348=STYLED_ITEM('',(#36),#349);
#349=ADVANCED_FACE('',(#352),#350,.T.);
#350=PLANE('',#351);
#351=AXIS2_PLACEMENT_3D('',#335,#22,#198);
#352=FACE_OUTER_BOUND('',#353,.T.);
#353=EDGE_LOOP('',(#354,#359,#362,#363));
#354=ORIENTED_EDGE('',*,*,#355,.F.);
#355=EDGE_CURVE('',#356,#334,#358,.T.);
#356=VERTEX_POINT('',#357);
#357=CARTESIAN_POINT('',(2.705,2.705,0.658));
#358=LINE('',#357,#283);
#359=ORIENTED_EDGE('',*,*,#360,.F.);
#360=EDGE_CURVE('',#280,#356,#361,.T.);
#361=LINE('',#281,#341);
#362=ORIENTED_EDGE('',*,*,#279,.T.);
#363=ORIENTED_EDGE('',*,*,#339,.T.);
#364=STYLED_ITEM('',(#36),#365);
#365=ADVANCED_FACE('',(#368),#366,.T.);
#366=PLANE('',#367);
#367=AXIS2_PLACEMENT_3D('',#357,#244,#198);
#368=FACE_OUTER_BOUND('',#369,.T.);
#369=EDGE_LOOP('',(#370,#375,#378,#379));
#370=ORIENTED_EDGE('',*,*,#371,.F.);
#371=EDGE_CURVE('',#372,#356,#374,.T.);
#372=VERTEX_POINT('',#373);
#373=CARTESIAN_POINT('',(-2.705,2.705,0.658));
#374=LINE('',#373,#303);
#375=ORIENTED_EDGE('',*,*,#376,.F.);
#376=EDGE_CURVE('',#300,#372,#377,.T.);
#377=LINE('',#301,#341);
#378=ORIENTED_EDGE('',*,*,#299,.T.);
#379=ORIENTED_EDGE('',*,*,#360,.T.);
#380=STYLED_ITEM('',(#36),#381);
#381=ADVANCED_FACE('',(#384),#382,.T.);
#382=PLANE('',#383);
#383=AXIS2_PLACEMENT_3D('',#373,#226,#198);
#384=FACE_OUTER_BOUND('',#385,.T.);
#385=EDGE_LOOP('',(#386,#389,#390,#391));
#386=ORIENTED_EDGE('',*,*,#387,.F.);
#387=EDGE_CURVE('',#336,#372,#388,.T.);
#388=LINE('',#329,#321);
#389=ORIENTED_EDGE('',*,*,#345,.T.);
#390=ORIENTED_EDGE('',*,*,#319,.T.);
#391=ORIENTED_EDGE('',*,*,#376,.T.);
#392=STYLED_ITEM('',(#36),#393);
#393=ADVANCED_FACE('',(#398),#394,.T.);
#394=PLANE('',#395);
#395=AXIS2_PLACEMENT_3D('',#396,#397,#198);
#396=CARTESIAN_POINT('',(-2.578,-2.654,0.0));
#397=DIRECTION('',(0.0,-0.997,-0.077));
#398=FACE_OUTER_BOUND('',#399,.T.);
#399=EDGE_LOOP('',(#400,#407,#412,#413));
#400=ORIENTED_EDGE('',*,*,#401,.F.);
#401=EDGE_CURVE('',#402,#404,#405,.T.);
#402=VERTEX_POINT('',#403);
#403=CARTESIAN_POINT('',(2.578,-2.654,0.0));
#404=VERTEX_POINT('',#396);
#405=LINE('',#403,#406);
#406=VECTOR('',#226,5.1562);
#407=ORIENTED_EDGE('',*,*,#408,.F.);
#408=EDGE_CURVE('',#334,#402,#409,.T.);
#409=LINE('',#335,#410);
#410=VECTOR('',#411,0.671929623993466);
#411=DIRECTION('',(-0.189,0.076,-0.979));
#412=ORIENTED_EDGE('',*,*,#333,.T.);
#413=ORIENTED_EDGE('',*,*,#414,.F.);
#414=EDGE_CURVE('',#404,#336,#415,.T.);
#415=LINE('',#396,#416);
#416=VECTOR('',#417,0.671929623993466);
#417=DIRECTION('',(-0.189,-0.076,0.979));
#418=STYLED_ITEM('',(#36),#419);
#419=ADVANCED_FACE('',(#423),#420,.T.);
#420=PLANE('',#421);
#421=AXIS2_PLACEMENT_3D('',#403,#422,#198);
#422=DIRECTION('',(0.982,0.0,-0.19));
#423=FACE_OUTER_BOUND('',#424,.T.);
#424=EDGE_LOOP('',(#425,#430,#435,#436));
#425=ORIENTED_EDGE('',*,*,#426,.F.);
#426=EDGE_CURVE('',#427,#402,#429,.T.);
#427=VERTEX_POINT('',#428);
#428=CARTESIAN_POINT('',(2.578,2.654,0.0));
#429=LINE('',#428,#232);
#430=ORIENTED_EDGE('',*,*,#431,.F.);
#431=EDGE_CURVE('',#356,#427,#432,.T.);
#432=LINE('',#357,#433);
#433=VECTOR('',#434,0.671929623993466);
#434=DIRECTION('',(-0.189,-0.076,-0.979));
#435=ORIENTED_EDGE('',*,*,#355,.T.);
#436=ORIENTED_EDGE('',*,*,#408,.T.);
#437=STYLED_ITEM('',(#36),#438);
#438=ADVANCED_FACE('',(#442),#439,.T.);
#439=PLANE('',#440);
#440=AXIS2_PLACEMENT_3D('',#428,#441,#198);
#441=DIRECTION('',(0.0,0.997,-0.077));
#442=FACE_OUTER_BOUND('',#443,.T.);
#443=EDGE_LOOP('',(#444,#450,#455,#456));
#444=ORIENTED_EDGE('',*,*,#445,.F.);
#445=EDGE_CURVE('',#446,#427,#448,.T.);
#446=VERTEX_POINT('',#447);
#447=CARTESIAN_POINT('',(-2.578,2.654,0.0));
#448=LINE('',#447,#449);
#449=VECTOR('',#22,5.1562);
#450=ORIENTED_EDGE('',*,*,#451,.F.);
#451=EDGE_CURVE('',#372,#446,#452,.T.);
#452=LINE('',#373,#453);
#453=VECTOR('',#454,0.671929623993466);
#454=DIRECTION('',(0.189,-0.076,-0.979));
#455=ORIENTED_EDGE('',*,*,#371,.T.);
#456=ORIENTED_EDGE('',*,*,#431,.T.);
#457=STYLED_ITEM('',(#36),#458);
#458=ADVANCED_FACE('',(#462),#459,.T.);
#459=PLANE('',#460);
#460=AXIS2_PLACEMENT_3D('',#447,#461,#198);
#461=DIRECTION('',(-0.982,0.0,-0.19));
#462=FACE_OUTER_BOUND('',#463,.T.);
#463=EDGE_LOOP('',(#464,#467,#468,#469));
#464=ORIENTED_EDGE('',*,*,#465,.F.);
#465=EDGE_CURVE('',#404,#446,#466,.T.);
#466=LINE('',#396,#243);
#467=ORIENTED_EDGE('',*,*,#414,.T.);
#468=ORIENTED_EDGE('',*,*,#387,.T.);
#469=ORIENTED_EDGE('',*,*,#451,.T.);
#470=STYLED_ITEM('',(#36),#471);
#471=ADVANCED_FACE('',(#474),#472,.T.);
#472=PLANE('',#473);
#473=AXIS2_PLACEMENT_3D('',#447,#342,#201);
#474=FACE_OUTER_BOUND('',#475,.T.);
#475=EDGE_LOOP('',(#476,#477,#478,#479));
#476=ORIENTED_EDGE('',*,*,#445,.T.);
#477=ORIENTED_EDGE('',*,*,#426,.T.);
#478=ORIENTED_EDGE('',*,*,#401,.T.);
#479=ORIENTED_EDGE('',*,*,#465,.T.);
#480=MANIFOLD_SOLID_BREP($,#481);
#481=CLOSED_SHELL('',(#483,#513,#536,#559,#592,#623,#653,#683,#697,#717,#733,#751,#767,#785));
#482=STYLED_ITEM('',(#27),#483);
#483=ADVANCED_FACE('',(#487),#484,.T.);
#484=PLANE('',#485);
#485=AXIS2_PLACEMENT_3D('',#486,#22,#198);
#486=CARTESIAN_POINT('',(-2.705,1.596,0.778));
#487=FACE_OUTER_BOUND('',#488,.T.);
#488=EDGE_LOOP('',(#489,#496,#502,#508));
#489=ORIENTED_EDGE('',*,*,#490,.F.);
#490=EDGE_CURVE('',#491,#493,#494,.T.);
#491=VERTEX_POINT('',#492);
#492=CARTESIAN_POINT('',(-2.705,2.104,0.778));
#493=VERTEX_POINT('',#486);
#494=LINE('',#492,#495);
#495=VECTOR('',#233,0.507999991817611);
#496=ORIENTED_EDGE('',*,*,#497,.F.);
#497=EDGE_CURVE('',#498,#491,#500,.T.);
#498=VERTEX_POINT('',#499);
#499=CARTESIAN_POINT('',(-2.705,2.104,0.927));
#500=LINE('',#499,#501);
#501=VECTOR('',#342,0.1487249375);
#502=ORIENTED_EDGE('',*,*,#503,.F.);
#503=EDGE_CURVE('',#504,#498,#506,.T.);
#504=VERTEX_POINT('',#505);
#505=CARTESIAN_POINT('',(-2.705,1.596,0.927));
#506=LINE('',#505,#507);
#507=VECTOR('',#244,0.507999991817611);
#508=ORIENTED_EDGE('',*,*,#509,.F.);
#509=EDGE_CURVE('',#493,#504,#510,.T.);
#510=LINE('',#486,#511);
#511=VECTOR('',#21,0.1487249375);
#512=STYLED_ITEM('',(#27),#513);
#513=ADVANCED_FACE('',(#516),#514,.T.);
#514=PLANE('',#515);
#515=AXIS2_PLACEMENT_3D('',#505,#21,#201);
#516=FACE_OUTER_BOUND('',#517,.T.);
#517=EDGE_LOOP('',(#518,#519,#525,#531));
#518=ORIENTED_EDGE('',*,*,#503,.T.);
#519=ORIENTED_EDGE('',*,*,#520,.F.);
#520=EDGE_CURVE('',#521,#498,#523,.T.);
#521=VERTEX_POINT('',#522);
#522=CARTESIAN_POINT('',(-2.727,2.104,0.927));
#523=LINE('',#522,#524);
#524=VECTOR('',#22,0.0219871371086986);
#525=ORIENTED_EDGE('',*,*,#526,.F.);
#526=EDGE_CURVE('',#527,#521,#529,.T.);
#527=VERTEX_POINT('',#528);
#528=CARTESIAN_POINT('',(-2.727,1.596,0.927));
#529=LINE('',#528,#530);
#530=VECTOR('',#244,0.507999991850997);
#531=ORIENTED_EDGE('',*,*,#532,.F.);
#532=EDGE_CURVE('',#504,#527,#533,.T.);
#533=LINE('',#505,#534);
#534=VECTOR('',#226,0.0219871371086983);
#535=STYLED_ITEM('',(#27),#536);
#536=ADVANCED_FACE('',(#539),#537,.T.);
#537=PLANE('',#538);
#538=AXIS2_PLACEMENT_3D('',#492,#342,#201);
#539=FACE_OUTER_BOUND('',#540,.T.);
#540=EDGE_LOOP('',(#541,#542,#548,#554));
#541=ORIENTED_EDGE('',*,*,#490,.T.);
#542=ORIENTED_EDGE('',*,*,#543,.F.);
#543=EDGE_CURVE('',#544,#493,#546,.T.);
#544=VERTEX_POINT('',#545);
#545=CARTESIAN_POINT('',(-2.727,1.596,0.778));
#546=LINE('',#545,#547);
#547=VECTOR('',#22,0.0219871371086983);
#548=ORIENTED_EDGE('',*,*,#549,.F.);
#549=EDGE_CURVE('',#550,#544,#552,.T.);
#550=VERTEX_POINT('',#551);
#551=CARTESIAN_POINT('',(-2.727,2.104,0.778));
#552=LINE('',#551,#553);
#553=VECTOR('',#233,0.507999991850997);
#554=ORIENTED_EDGE('',*,*,#555,.F.);
#555=EDGE_CURVE('',#491,#550,#556,.T.);
#556=LINE('',#492,#557);
#557=VECTOR('',#226,0.0219871371086986);
#558=STYLED_ITEM('',(#27),#559);
#559=ADVANCED_FACE('',(#564),#560,.T.);
#560=PLANE('',#561);
#561=AXIS2_PLACEMENT_3D('',#562,#563,#198);
#562=CARTESIAN_POINT('',(-3.134,2.104,0.259));
#563=DIRECTION('',(-0.966,0.0,0.259));
#564=FACE_OUTER_BOUND('',#565,.T.);
#565=EDGE_LOOP('',(#566,#573,#580,#586));
#566=ORIENTED_EDGE('',*,*,#567,.F.);
#567=EDGE_CURVE('',#568,#570,#571,.T.);
#568=VERTEX_POINT('',#569);
#569=CARTESIAN_POINT('',(-3.134,1.596,0.259));
#570=VERTEX_POINT('',#562);
#571=LINE('',#569,#572);
#572=VECTOR('',#244,0.507999994394068);
#573=ORIENTED_EDGE('',*,*,#574,.F.);
#574=EDGE_CURVE('',#575,#568,#577,.T.);
#575=VERTEX_POINT('',#576);
#576=CARTESIAN_POINT('',(-3.014,1.596,0.707));
#577=LINE('',#576,#578);
#578=VECTOR('',#579,0.46346944046967);
#579=DIRECTION('',(-0.259,0.0,-0.966));
#580=ORIENTED_EDGE('',*,*,#581,.F.);
#581=EDGE_CURVE('',#582,#575,#584,.T.);
#582=VERTEX_POINT('',#583);
#583=CARTESIAN_POINT('',(-3.014,2.104,0.707));
#584=LINE('',#583,#585);
#585=VECTOR('',#233,0.507999992923929);
#586=ORIENTED_EDGE('',*,*,#587,.F.);
#587=EDGE_CURVE('',#570,#582,#588,.T.);
#588=LINE('',#562,#589);
#589=VECTOR('',#590,0.46346944046967);
#590=DIRECTION('',(0.259,0.0,0.966));
#591=STYLED_ITEM('',(#27),#592);
#592=ADVANCED_FACE('',(#597),#593,.T.);
#593=PLANE('',#594);
#594=AXIS2_PLACEMENT_3D('',#595,#596,#198);
#595=CARTESIAN_POINT('',(-2.991,1.596,0.22));
#596=DIRECTION('',(0.966,0.0,-0.259));
#597=FACE_OUTER_BOUND('',#598,.T.);
#598=EDGE_LOOP('',(#599,#606,#612,#618));
#599=ORIENTED_EDGE('',*,*,#600,.F.);
#600=EDGE_CURVE('',#601,#603,#604,.T.);
#601=VERTEX_POINT('',#602);
#602=CARTESIAN_POINT('',(-2.991,2.104,0.22));
#603=VERTEX_POINT('',#595);
#604=LINE('',#602,#605);
#605=VECTOR('',#233,0.507999992751681);
#606=ORIENTED_EDGE('',*,*,#607,.F.);
#607=EDGE_CURVE('',#608,#601,#610,.T.);
#608=VERTEX_POINT('',#609);
#609=CARTESIAN_POINT('',(-2.871,2.104,0.668));
#610=LINE('',#609,#611);
#611=VECTOR('',#579,0.463469440596026);
#612=ORIENTED_EDGE('',*,*,#613,.F.);
#613=EDGE_CURVE('',#614,#608,#616,.T.);
#614=VERTEX_POINT('',#615);
#615=CARTESIAN_POINT('',(-2.871,1.596,0.668));
#616=LINE('',#615,#617);
#617=VECTOR('',#244,0.507999992182495);
#618=ORIENTED_EDGE('',*,*,#619,.F.);
#619=EDGE_CURVE('',#603,#614,#620,.T.);
#620=LINE('',#595,#621);
#621=VECTOR('',#590,0.463469440596026);
#622=STYLED_ITEM('',(#27),#623);
#623=ADVANCED_FACE('',(#627),#624,.T.);
#624=PLANE('',#625);
#625=AXIS2_PLACEMENT_3D('',#626,#21,#201);
#626=CARTESIAN_POINT('',(-3.3,2.104,0.149));
#627=FACE_OUTER_BOUND('',#628,.T.);
#628=EDGE_LOOP('',(#629,#636,#642,#648));
#629=ORIENTED_EDGE('',*,*,#630,.F.);
#630=EDGE_CURVE('',#631,#633,#634,.T.);
#631=VERTEX_POINT('',#632);
#632=CARTESIAN_POINT('',(-3.3,1.596,0.149));
#633=VERTEX_POINT('',#626);
#634=LINE('',#632,#635);
#635=VECTOR('',#244,0.508);
#636=ORIENTED_EDGE('',*,*,#637,.F.);
#637=EDGE_CURVE('',#638,#631,#640,.T.);
#638=VERTEX_POINT('',#639);
#639=CARTESIAN_POINT('',(-3.278,1.596,0.149));
#640=LINE('',#639,#641);
#641=VECTOR('',#226,0.0219871367882323);
#642=ORIENTED_EDGE('',*,*,#643,.F.);
#643=EDGE_CURVE('',#644,#638,#646,.T.);
#644=VERTEX_POINT('',#645);
#645=CARTESIAN_POINT('',(-3.278,2.104,0.149));
#646=LINE('',#645,#647);
#647=VECTOR('',#233,0.50799999888752);
#648=ORIENTED_EDGE('',*,*,#649,.F.);
#649=EDGE_CURVE('',#633,#644,#650,.T.);
#650=LINE('',#626,#651);
#651=VECTOR('',#22,0.0219871367882317);
#652=STYLED_ITEM('',(#27),#653);
#653=ADVANCED_FACE('',(#657),#654,.T.);
#654=PLANE('',#655);
#655=AXIS2_PLACEMENT_3D('',#656,#342,#201);
#656=CARTESIAN_POINT('',(-3.278,2.104,0.0));
#657=FACE_OUTER_BOUND('',#658,.T.);
#658=EDGE_LOOP('',(#659,#666,#672,#678));
#659=ORIENTED_EDGE('',*,*,#660,.F.);
#660=EDGE_CURVE('',#661,#663,#664,.T.);
#661=VERTEX_POINT('',#662);
#662=CARTESIAN_POINT('',(-3.278,1.596,0.0));
#663=VERTEX_POINT('',#656);
#664=LINE('',#662,#665);
#665=VECTOR('',#244,0.50799999888752);
#666=ORIENTED_EDGE('',*,*,#667,.F.);
#667=EDGE_CURVE('',#668,#661,#670,.T.);
#668=VERTEX_POINT('',#669);
#669=CARTESIAN_POINT('',(-3.3,1.596,0.0));
#670=LINE('',#669,#671);
#671=VECTOR('',#22,0.0219871367882323);
#672=ORIENTED_EDGE('',*,*,#673,.F.);
#673=EDGE_CURVE('',#674,#668,#676,.T.);
#674=VERTEX_POINT('',#675);
#675=CARTESIAN_POINT('',(-3.3,2.104,0.0));
#676=LINE('',#675,#677);
#677=VECTOR('',#233,0.508);
#678=ORIENTED_EDGE('',*,*,#679,.F.);
#679=EDGE_CURVE('',#663,#674,#680,.T.);
#680=LINE('',#656,#681);
#681=VECTOR('',#226,0.0219871367882317);
#682=STYLED_ITEM('',(#27),#683);
#683=ADVANCED_FACE('',(#686),#684,.T.);
#684=PLANE('',#685);
#685=AXIS2_PLACEMENT_3D('',#675,#226,#198);
#686=FACE_OUTER_BOUND('',#687,.T.);
#687=EDGE_LOOP('',(#688,#689,#692,#693));
#688=ORIENTED_EDGE('',*,*,#673,.T.);
#689=ORIENTED_EDGE('',*,*,#690,.F.);
#690=EDGE_CURVE('',#631,#668,#691,.T.);
#691=LINE('',#632,#501);
#692=ORIENTED_EDGE('',*,*,#630,.T.);
#693=ORIENTED_EDGE('',*,*,#694,.F.);
#694=EDGE_CURVE('',#674,#633,#695,.T.);
#695=LINE('',#675,#511);
#696=STYLED_ITEM($,(#27),#697);
#697=ADVANCED_FACE($,(#701),#698,.T.);
#698=CYLINDRICAL_SURFACE($,#699,0.297449875);
#699=AXIS2_PLACEMENT_3D($,#700,#233,#198);
#700=CARTESIAN_POINT('',(-2.727,1.596,0.63));
#701=FACE_OUTER_BOUND($,#702,.T.);
#702=EDGE_LOOP($,(#708,#709,#715,#703));
#703=ORIENTED_EDGE('',*,*,#704,.F.);
#704=EDGE_CURVE($,#527,#575,#705,.T.);
#705=CIRCLE($,#706,0.297449875);
#706=AXIS2_PLACEMENT_3D($,#700,#233,#707);
#707=DIRECTION('',(-0.793,0.0,-0.609));
#708=ORIENTED_EDGE('',*,*,#526,.T.);
#709=ORIENTED_EDGE('',*,*,#710,.F.);
#710=EDGE_CURVE($,#582,#521,#711,.T.);
#711=CIRCLE($,#712,0.297449875);
#712=AXIS2_PLACEMENT_3D($,#713,#244,#714);
#713=CARTESIAN_POINT('',(-2.727,2.104,0.63));
#714=DIRECTION('',(0.793,0.0,0.609));
#715=ORIENTED_EDGE('',*,*,#581,.T.);
#716=STYLED_ITEM($,(#27),#717);
#717=ADVANCED_FACE($,(#720),#718,.F.);
#718=CYLINDRICAL_SURFACE($,#719,0.1487249375);
#719=AXIS2_PLACEMENT_3D($,#713,#233,#200);
#720=FACE_OUTER_BOUND($,#721,.T.);
#721=EDGE_LOOP($,(#726,#727,#731,#722));
#722=ORIENTED_EDGE('',*,*,#723,.F.);
#723=EDGE_CURVE($,#550,#608,#724,.T.);
#724=CIRCLE($,#725,0.1487249375);
#725=AXIS2_PLACEMENT_3D($,#713,#233,#707);
#726=ORIENTED_EDGE('',*,*,#549,.T.);
#727=ORIENTED_EDGE('',*,*,#728,.F.);
#728=EDGE_CURVE($,#614,#544,#729,.T.);
#729=CIRCLE($,#730,0.1487249375);
#730=AXIS2_PLACEMENT_3D($,#700,#244,#714);
#731=ORIENTED_EDGE('',*,*,#613,.T.);
#732=STYLED_ITEM($,(#27),#733);
#733=ADVANCED_FACE($,(#737),#734,.F.);
#734=CYLINDRICAL_SURFACE($,#735,0.1487249375);
#735=AXIS2_PLACEMENT_3D($,#736,#233,#198);
#736=CARTESIAN_POINT('',(-3.278,2.104,0.297));
#737=FACE_OUTER_BOUND($,#738,.T.);
#738=EDGE_LOOP($,(#743,#744,#749,#739));
#739=ORIENTED_EDGE('',*,*,#740,.F.);
#740=EDGE_CURVE($,#644,#570,#741,.T.);
#741=CIRCLE($,#742,0.1487249375);
#742=AXIS2_PLACEMENT_3D($,#736,#233,#714);
#743=ORIENTED_EDGE('',*,*,#643,.T.);
#744=ORIENTED_EDGE('',*,*,#745,.F.);
#745=EDGE_CURVE($,#568,#638,#746,.T.);
#746=CIRCLE($,#747,0.1487249375);
#747=AXIS2_PLACEMENT_3D($,#748,#244,#707);
#748=CARTESIAN_POINT('',(-3.278,1.596,0.297));
#749=ORIENTED_EDGE('',*,*,#567,.T.);
#750=STYLED_ITEM($,(#27),#751);
#751=ADVANCED_FACE($,(#754),#752,.T.);
#752=CYLINDRICAL_SURFACE($,#753,0.297449875);
#753=AXIS2_PLACEMENT_3D($,#736,#233,#200);
#754=FACE_OUTER_BOUND($,#755,.T.);
#755=EDGE_LOOP($,(#760,#761,#765,#756));
#756=ORIENTED_EDGE('',*,*,#757,.F.);
#757=EDGE_CURVE($,#661,#603,#758,.T.);
#758=CIRCLE($,#759,0.297449875);
#759=AXIS2_PLACEMENT_3D($,#748,#233,#714);
#760=ORIENTED_EDGE('',*,*,#660,.T.);
#761=ORIENTED_EDGE('',*,*,#762,.F.);
#762=EDGE_CURVE($,#601,#663,#763,.T.);
#763=CIRCLE($,#764,0.297449875);
#764=AXIS2_PLACEMENT_3D($,#736,#244,#707);
#765=ORIENTED_EDGE('',*,*,#600,.T.);
#766=STYLED_ITEM('color',(#27),#767);
#767=ADVANCED_FACE($,(#770),#768,.T.);
#768=PLANE($,#769);
#769=AXIS2_PLACEMENT_3D($,#492,#244,#199);
#770=FACE_OUTER_BOUND($,#771,.T.);
#771=EDGE_LOOP($,(#772, #773, #774, #780, #781, #775, #776, #777, #778, #779, #782, #783));
#772=ORIENTED_EDGE('',*,*,#520,.T.);
#773=ORIENTED_EDGE('',*,*,#497,.T.);
#774=ORIENTED_EDGE('',*,*,#555,.T.);
#775=ORIENTED_EDGE('',*,*,#762,.T.);
#776=ORIENTED_EDGE('',*,*,#679,.T.);
#777=ORIENTED_EDGE('',*,*,#694,.T.);
#778=ORIENTED_EDGE('',*,*,#649,.T.);
#779=ORIENTED_EDGE('',*,*,#740,.T.);
#780=ORIENTED_EDGE('',*,*,#723,.T.);
#781=ORIENTED_EDGE('',*,*,#607,.T.);
#782=ORIENTED_EDGE('',*,*,#587,.T.);
#783=ORIENTED_EDGE('',*,*,#710,.T.);
#784=STYLED_ITEM('color',(#27),#785);
#785=ADVANCED_FACE($,(#788),#786,.T.);
#786=PLANE($,#787);
#787=AXIS2_PLACEMENT_3D($,#639,#233,#199);
#788=FACE_OUTER_BOUND($,#789,.T.);
#789=EDGE_LOOP($,(#790, #791, #792, #798, #799, #793, #794, #795, #796, #797, #800, #801));
#790=ORIENTED_EDGE('',*,*,#543,.T.);
#791=ORIENTED_EDGE('',*,*,#509,.T.);
#792=ORIENTED_EDGE('',*,*,#532,.T.);
#793=ORIENTED_EDGE('',*,*,#745,.T.);
#794=ORIENTED_EDGE('',*,*,#637,.T.);
#795=ORIENTED_EDGE('',*,*,#690,.T.);
#796=ORIENTED_EDGE('',*,*,#667,.T.);
#797=ORIENTED_EDGE('',*,*,#757,.T.);
#798=ORIENTED_EDGE('',*,*,#704,.T.);
#799=ORIENTED_EDGE('',*,*,#574,.T.);
#800=ORIENTED_EDGE('',*,*,#619,.T.);
#801=ORIENTED_EDGE('',*,*,#728,.T.);
#802=MANIFOLD_SOLID_BREP($,#803);
#803=CLOSED_SHELL('',(#805,#831,#851,#871,#897,#923,#949,#975,#989,#1007,#1023,#1041,#1057,#1075));
#804=STYLED_ITEM('',(#27),#805);
#805=ADVANCED_FACE('',(#809),#806,.T.);
#806=PLANE('',#807);
#807=AXIS2_PLACEMENT_3D('',#808,#22,#198);
#808=CARTESIAN_POINT('',(-2.705,-2.104,0.778));
#809=FACE_OUTER_BOUND('',#810,.T.);
#810=EDGE_LOOP('',(#811,#817,#822,#827));
#811=ORIENTED_EDGE('',*,*,#812,.F.);
#812=EDGE_CURVE('',#813,#815,#816,.T.);
#813=VERTEX_POINT('',#814);
#814=CARTESIAN_POINT('',(-2.705,-1.596,0.778));
#815=VERTEX_POINT('',#808);
#816=LINE('',#814,#495);
#817=ORIENTED_EDGE('',*,*,#818,.F.);
#818=EDGE_CURVE('',#819,#813,#821,.T.);
#819=VERTEX_POINT('',#820);
#820=CARTESIAN_POINT('',(-2.705,-1.596,0.927));
#821=LINE('',#820,#501);
#822=ORIENTED_EDGE('',*,*,#823,.F.);
#823=EDGE_CURVE('',#824,#819,#826,.T.);
#824=VERTEX_POINT('',#825);
#825=CARTESIAN_POINT('',(-2.705,-2.104,0.927));
#826=LINE('',#825,#507);
#827=ORIENTED_EDGE('',*,*,#828,.F.);
#828=EDGE_CURVE('',#815,#824,#829,.T.);
#829=LINE('',#808,#511);
#830=STYLED_ITEM('',(#27),#831);
#831=ADVANCED_FACE('',(#834),#832,.T.);
#832=PLANE('',#833);
#833=AXIS2_PLACEMENT_3D('',#825,#21,#201);
#834=FACE_OUTER_BOUND('',#835,.T.);
#835=EDGE_LOOP('',(#836,#837,#842,#847));
#836=ORIENTED_EDGE('',*,*,#823,.T.);
#837=ORIENTED_EDGE('',*,*,#838,.F.);
#838=EDGE_CURVE('',#839,#819,#841,.T.);
#839=VERTEX_POINT('',#840);
#840=CARTESIAN_POINT('',(-2.727,-1.596,0.927));
#841=LINE('',#840,#524);
#842=ORIENTED_EDGE('',*,*,#843,.F.);
#843=EDGE_CURVE('',#844,#839,#846,.T.);
#844=VERTEX_POINT('',#845);
#845=CARTESIAN_POINT('',(-2.727,-2.104,0.927));
#846=LINE('',#845,#530);
#847=ORIENTED_EDGE('',*,*,#848,.F.);
#848=EDGE_CURVE('',#824,#844,#849,.T.);
#849=LINE('',#825,#534);
#850=STYLED_ITEM('',(#27),#851);
#851=ADVANCED_FACE('',(#854),#852,.T.);
#852=PLANE('',#853);
#853=AXIS2_PLACEMENT_3D('',#814,#342,#201);
#854=FACE_OUTER_BOUND('',#855,.T.);
#855=EDGE_LOOP('',(#856,#857,#862,#867));
#856=ORIENTED_EDGE('',*,*,#812,.T.);
#857=ORIENTED_EDGE('',*,*,#858,.F.);
#858=EDGE_CURVE('',#859,#815,#861,.T.);
#859=VERTEX_POINT('',#860);
#860=CARTESIAN_POINT('',(-2.727,-2.104,0.778));
#861=LINE('',#860,#547);
#862=ORIENTED_EDGE('',*,*,#863,.F.);
#863=EDGE_CURVE('',#864,#859,#866,.T.);
#864=VERTEX_POINT('',#865);
#865=CARTESIAN_POINT('',(-2.727,-1.596,0.778));
#866=LINE('',#865,#553);
#867=ORIENTED_EDGE('',*,*,#868,.F.);
#868=EDGE_CURVE('',#813,#864,#869,.T.);
#869=LINE('',#814,#557);
#870=STYLED_ITEM('',(#27),#871);
#871=ADVANCED_FACE('',(#875),#872,.T.);
#872=PLANE('',#873);
#873=AXIS2_PLACEMENT_3D('',#874,#563,#198);
#874=CARTESIAN_POINT('',(-3.134,-1.596,0.259));
#875=FACE_OUTER_BOUND('',#876,.T.);
#876=EDGE_LOOP('',(#877,#883,#888,#893));
#877=ORIENTED_EDGE('',*,*,#878,.F.);
#878=EDGE_CURVE('',#879,#881,#882,.T.);
#879=VERTEX_POINT('',#880);
#880=CARTESIAN_POINT('',(-3.134,-2.104,0.259));
#881=VERTEX_POINT('',#874);
#882=LINE('',#880,#572);
#883=ORIENTED_EDGE('',*,*,#884,.F.);
#884=EDGE_CURVE('',#885,#879,#887,.T.);
#885=VERTEX_POINT('',#886);
#886=CARTESIAN_POINT('',(-3.014,-2.104,0.707));
#887=LINE('',#886,#578);
#888=ORIENTED_EDGE('',*,*,#889,.F.);
#889=EDGE_CURVE('',#890,#885,#892,.T.);
#890=VERTEX_POINT('',#891);
#891=CARTESIAN_POINT('',(-3.014,-1.596,0.707));
#892=LINE('',#891,#585);
#893=ORIENTED_EDGE('',*,*,#894,.F.);
#894=EDGE_CURVE('',#881,#890,#895,.T.);
#895=LINE('',#874,#589);
#896=STYLED_ITEM('',(#27),#897);
#897=ADVANCED_FACE('',(#901),#898,.T.);
#898=PLANE('',#899);
#899=AXIS2_PLACEMENT_3D('',#900,#596,#198);
#900=CARTESIAN_POINT('',(-2.991,-2.104,0.22));
#901=FACE_OUTER_BOUND('',#902,.T.);
#902=EDGE_LOOP('',(#903,#909,#914,#919));
#903=ORIENTED_EDGE('',*,*,#904,.F.);
#904=EDGE_CURVE('',#905,#907,#908,.T.);
#905=VERTEX_POINT('',#906);
#906=CARTESIAN_POINT('',(-2.991,-1.596,0.22));
#907=VERTEX_POINT('',#900);
#908=LINE('',#906,#605);
#909=ORIENTED_EDGE('',*,*,#910,.F.);
#910=EDGE_CURVE('',#911,#905,#913,.T.);
#911=VERTEX_POINT('',#912);
#912=CARTESIAN_POINT('',(-2.871,-1.596,0.668));
#913=LINE('',#912,#611);
#914=ORIENTED_EDGE('',*,*,#915,.F.);
#915=EDGE_CURVE('',#916,#911,#918,.T.);
#916=VERTEX_POINT('',#917);
#917=CARTESIAN_POINT('',(-2.871,-2.104,0.668));
#918=LINE('',#917,#617);
#919=ORIENTED_EDGE('',*,*,#920,.F.);
#920=EDGE_CURVE('',#907,#916,#921,.T.);
#921=LINE('',#900,#621);
#922=STYLED_ITEM('',(#27),#923);
#923=ADVANCED_FACE('',(#927),#924,.T.);
#924=PLANE('',#925);
#925=AXIS2_PLACEMENT_3D('',#926,#21,#201);
#926=CARTESIAN_POINT('',(-3.3,-1.596,0.149));
#927=FACE_OUTER_BOUND('',#928,.T.);
#928=EDGE_LOOP('',(#929,#935,#940,#945));
#929=ORIENTED_EDGE('',*,*,#930,.F.);
#930=EDGE_CURVE('',#931,#933,#934,.T.);
#931=VERTEX_POINT('',#932);
#932=CARTESIAN_POINT('',(-3.3,-2.104,0.149));
#933=VERTEX_POINT('',#926);
#934=LINE('',#932,#635);
#935=ORIENTED_EDGE('',*,*,#936,.F.);
#936=EDGE_CURVE('',#937,#931,#939,.T.);
#937=VERTEX_POINT('',#938);
#938=CARTESIAN_POINT('',(-3.278,-2.104,0.149));
#939=LINE('',#938,#641);
#940=ORIENTED_EDGE('',*,*,#941,.F.);
#941=EDGE_CURVE('',#942,#937,#944,.T.);
#942=VERTEX_POINT('',#943);
#943=CARTESIAN_POINT('',(-3.278,-1.596,0.149));
#944=LINE('',#943,#647);
#945=ORIENTED_EDGE('',*,*,#946,.F.);
#946=EDGE_CURVE('',#933,#942,#947,.T.);
#947=LINE('',#926,#651);
#948=STYLED_ITEM('',(#27),#949);
#949=ADVANCED_FACE('',(#953),#950,.T.);
#950=PLANE('',#951);
#951=AXIS2_PLACEMENT_3D('',#952,#342,#201);
#952=CARTESIAN_POINT('',(-3.278,-1.596,0.0));
#953=FACE_OUTER_BOUND('',#954,.T.);
#954=EDGE_LOOP('',(#955,#961,#966,#971));
#955=ORIENTED_EDGE('',*,*,#956,.F.);
#956=EDGE_CURVE('',#957,#959,#960,.T.);
#957=VERTEX_POINT('',#958);
#958=CARTESIAN_POINT('',(-3.278,-2.104,0.0));
#959=VERTEX_POINT('',#952);
#960=LINE('',#958,#665);
#961=ORIENTED_EDGE('',*,*,#962,.F.);
#962=EDGE_CURVE('',#963,#957,#965,.T.);
#963=VERTEX_POINT('',#964);
#964=CARTESIAN_POINT('',(-3.3,-2.104,0.0));
#965=LINE('',#964,#671);
#966=ORIENTED_EDGE('',*,*,#967,.F.);
#967=EDGE_CURVE('',#968,#963,#970,.T.);
#968=VERTEX_POINT('',#969);
#969=CARTESIAN_POINT('',(-3.3,-1.596,0.0));
#970=LINE('',#969,#677);
#971=ORIENTED_EDGE('',*,*,#972,.F.);
#972=EDGE_CURVE('',#959,#968,#973,.T.);
#973=LINE('',#952,#681);
#974=STYLED_ITEM('',(#27),#975);
#975=ADVANCED_FACE('',(#978),#976,.T.);
#976=PLANE('',#977);
#977=AXIS2_PLACEMENT_3D('',#969,#226,#198);
#978=FACE_OUTER_BOUND('',#979,.T.);
#979=EDGE_LOOP('',(#980,#981,#984,#985));
#980=ORIENTED_EDGE('',*,*,#967,.T.);
#981=ORIENTED_EDGE('',*,*,#982,.F.);
#982=EDGE_CURVE('',#931,#963,#983,.T.);
#983=LINE('',#932,#501);
#984=ORIENTED_EDGE('',*,*,#930,.T.);
#985=ORIENTED_EDGE('',*,*,#986,.F.);
#986=EDGE_CURVE('',#968,#933,#987,.T.);
#987=LINE('',#969,#511);
#988=STYLED_ITEM($,(#27),#989);
#989=ADVANCED_FACE($,(#993),#990,.T.);
#990=CYLINDRICAL_SURFACE($,#991,0.297449875);
#991=AXIS2_PLACEMENT_3D($,#992,#233,#198);
#992=CARTESIAN_POINT('',(-2.727,-2.104,0.63));
#993=FACE_OUTER_BOUND($,#994,.T.);
#994=EDGE_LOOP($,(#999,#1000,#1005,#995));
#995=ORIENTED_EDGE('',*,*,#996,.F.);
#996=EDGE_CURVE($,#844,#885,#997,.T.);
#997=CIRCLE($,#998,0.297449875);
#998=AXIS2_PLACEMENT_3D($,#992,#233,#707);
#999=ORIENTED_EDGE('',*,*,#843,.T.);
#1000=ORIENTED_EDGE('',*,*,#1001,.F.);
#1001=EDGE_CURVE($,#890,#839,#1002,.T.);
#1002=CIRCLE($,#1003,0.297449875);
#1003=AXIS2_PLACEMENT_3D($,#1004,#244,#714);
#1004=CARTESIAN_POINT('',(-2.727,-1.596,0.63));
#1005=ORIENTED_EDGE('',*,*,#889,.T.);
#1006=STYLED_ITEM($,(#27),#1007);
#1007=ADVANCED_FACE($,(#1010),#1008,.F.);
#1008=CYLINDRICAL_SURFACE($,#1009,0.1487249375);
#1009=AXIS2_PLACEMENT_3D($,#1004,#233,#200);
#1010=FACE_OUTER_BOUND($,#1011,.T.);
#1011=EDGE_LOOP($,(#1016,#1017,#1021,#1012));
#1012=ORIENTED_EDGE('',*,*,#1013,.F.);
#1013=EDGE_CURVE($,#864,#911,#1014,.T.);
#1014=CIRCLE($,#1015,0.1487249375);
#1015=AXIS2_PLACEMENT_3D($,#1004,#233,#707);
#1016=ORIENTED_EDGE('',*,*,#863,.T.);
#1017=ORIENTED_EDGE('',*,*,#1018,.F.);
#1018=EDGE_CURVE($,#916,#859,#1019,.T.);
#1019=CIRCLE($,#1020,0.1487249375);
#1020=AXIS2_PLACEMENT_3D($,#992,#244,#714);
#1021=ORIENTED_EDGE('',*,*,#915,.T.);
#1022=STYLED_ITEM($,(#27),#1023);
#1023=ADVANCED_FACE($,(#1027),#1024,.F.);
#1024=CYLINDRICAL_SURFACE($,#1025,0.1487249375);
#1025=AXIS2_PLACEMENT_3D($,#1026,#233,#198);
#1026=CARTESIAN_POINT('',(-3.278,-1.596,0.297));
#1027=FACE_OUTER_BOUND($,#1028,.T.);
#1028=EDGE_LOOP($,(#1033,#1034,#1039,#1029));
#1029=ORIENTED_EDGE('',*,*,#1030,.F.);
#1030=EDGE_CURVE($,#942,#881,#1031,.T.);
#1031=CIRCLE($,#1032,0.1487249375);
#1032=AXIS2_PLACEMENT_3D($,#1026,#233,#714);
#1033=ORIENTED_EDGE('',*,*,#941,.T.);
#1034=ORIENTED_EDGE('',*,*,#1035,.F.);
#1035=EDGE_CURVE($,#879,#937,#1036,.T.);
#1036=CIRCLE($,#1037,0.1487249375);
#1037=AXIS2_PLACEMENT_3D($,#1038,#244,#707);
#1038=CARTESIAN_POINT('',(-3.278,-2.104,0.297));
#1039=ORIENTED_EDGE('',*,*,#878,.T.);
#1040=STYLED_ITEM($,(#27),#1041);
#1041=ADVANCED_FACE($,(#1044),#1042,.T.);
#1042=CYLINDRICAL_SURFACE($,#1043,0.297449875);
#1043=AXIS2_PLACEMENT_3D($,#1026,#233,#200);
#1044=FACE_OUTER_BOUND($,#1045,.T.);
#1045=EDGE_LOOP($,(#1050,#1051,#1055,#1046));
#1046=ORIENTED_EDGE('',*,*,#1047,.F.);
#1047=EDGE_CURVE($,#957,#907,#1048,.T.);
#1048=CIRCLE($,#1049,0.297449875);
#1049=AXIS2_PLACEMENT_3D($,#1038,#233,#714);
#1050=ORIENTED_EDGE('',*,*,#956,.T.);
#1051=ORIENTED_EDGE('',*,*,#1052,.F.);
#1052=EDGE_CURVE($,#905,#959,#1053,.T.);
#1053=CIRCLE($,#1054,0.297449875);
#1054=AXIS2_PLACEMENT_3D($,#1026,#244,#707);
#1055=ORIENTED_EDGE('',*,*,#904,.T.);
#1056=STYLED_ITEM('color',(#27),#1057);
#1057=ADVANCED_FACE($,(#1060),#1058,.T.);
#1058=PLANE($,#1059);
#1059=AXIS2_PLACEMENT_3D($,#814,#244,#199);
#1060=FACE_OUTER_BOUND($,#1061,.T.);
#1061=EDGE_LOOP($,(#1062, #1063, #1064, #1070, #1071, #1065, #1066, #1067, #1068, #1069, #1072, #1073));
#1062=ORIENTED_EDGE('',*,*,#838,.T.);
#1063=ORIENTED_EDGE('',*,*,#818,.T.);
#1064=ORIENTED_EDGE('',*,*,#868,.T.);
#1065=ORIENTED_EDGE('',*,*,#1052,.T.);
#1066=ORIENTED_EDGE('',*,*,#972,.T.);
#1067=ORIENTED_EDGE('',*,*,#986,.T.);
#1068=ORIENTED_EDGE('',*,*,#946,.T.);
#1069=ORIENTED_EDGE('',*,*,#1030,.T.);
#1070=ORIENTED_EDGE('',*,*,#1013,.T.);
#1071=ORIENTED_EDGE('',*,*,#910,.T.);
#1072=ORIENTED_EDGE('',*,*,#894,.T.);
#1073=ORIENTED_EDGE('',*,*,#1001,.T.);
#1074=STYLED_ITEM('color',(#27),#1075);
#1075=ADVANCED_FACE($,(#1078),#1076,.T.);
#1076=PLANE($,#1077);
#1077=AXIS2_PLACEMENT_3D($,#938,#233,#199);
#1078=FACE_OUTER_BOUND($,#1079,.T.);
#1079=EDGE_LOOP($,(#1080, #1081, #1082, #1088, #1089, #1083, #1084, #1085, #1086, #1087, #1090, #1091));
#1080=ORIENTED_EDGE('',*,*,#858,.T.);
#1081=ORIENTED_EDGE('',*,*,#828,.T.);
#1082=ORIENTED_EDGE('',*,*,#848,.T.);
#1083=ORIENTED_EDGE('',*,*,#1035,.T.);
#1084=ORIENTED_EDGE('',*,*,#936,.T.);
#1085=ORIENTED_EDGE('',*,*,#982,.T.);
#1086=ORIENTED_EDGE('',*,*,#962,.T.);
#1087=ORIENTED_EDGE('',*,*,#1047,.T.);
#1088=ORIENTED_EDGE('',*,*,#996,.T.);
#1089=ORIENTED_EDGE('',*,*,#884,.T.);
#1090=ORIENTED_EDGE('',*,*,#920,.T.);
#1091=ORIENTED_EDGE('',*,*,#1018,.T.);
#1092=MANIFOLD_SOLID_BREP($,#1093);
#1093=CLOSED_SHELL('',(#1095,#1123,#1145,#1165,#1198,#1229,#1257,#1283,#1297,#1317,#1333,#1351,#1367,#1385));
#1094=STYLED_ITEM('',(#27),#1095);
#1095=ADVANCED_FACE('',(#1099),#1096,.T.);
#1096=PLANE('',#1097);
#1097=AXIS2_PLACEMENT_3D('',#1098,#226,#198);
#1098=CARTESIAN_POINT('',(2.705,-1.596,0.778));
#1099=FACE_OUTER_BOUND('',#1100,.T.);
#1100=EDGE_LOOP('',(#1101,#1108,#1113,#1119));
#1101=ORIENTED_EDGE('',*,*,#1102,.F.);
#1102=EDGE_CURVE('',#1103,#1105,#1106,.T.);
#1103=VERTEX_POINT('',#1104);
#1104=CARTESIAN_POINT('',(2.705,-2.104,0.778));
#1105=VERTEX_POINT('',#1098);
#1106=LINE('',#1104,#1107);
#1107=VECTOR('',#244,0.50799999181761);
#1108=ORIENTED_EDGE('',*,*,#1109,.F.);
#1109=EDGE_CURVE('',#1110,#1103,#1112,.T.);
#1110=VERTEX_POINT('',#1111);
#1111=CARTESIAN_POINT('',(2.705,-2.104,0.927));
#1112=LINE('',#1111,#501);
#1113=ORIENTED_EDGE('',*,*,#1114,.F.);
#1114=EDGE_CURVE('',#1115,#1110,#1117,.T.);
#1115=VERTEX_POINT('',#1116);
#1116=CARTESIAN_POINT('',(2.705,-1.596,0.927));
#1117=LINE('',#1116,#1118);
#1118=VECTOR('',#233,0.50799999181761);
#1119=ORIENTED_EDGE('',*,*,#1120,.F.);
#1120=EDGE_CURVE('',#1105,#1115,#1121,.T.);
#1121=LINE('',#1098,#511);
#1122=STYLED_ITEM('',(#27),#1123);
#1123=ADVANCED_FACE('',(#1126),#1124,.T.);
#1124=PLANE('',#1125);
#1125=AXIS2_PLACEMENT_3D('',#1116,#21,#201);
#1126=FACE_OUTER_BOUND('',#1127,.T.);
#1127=EDGE_LOOP('',(#1128,#1129,#1135,#1140));
#1128=ORIENTED_EDGE('',*,*,#1114,.T.);
#1129=ORIENTED_EDGE('',*,*,#1130,.F.);
#1130=EDGE_CURVE('',#1131,#1110,#1133,.T.);
#1131=VERTEX_POINT('',#1132);
#1132=CARTESIAN_POINT('',(2.727,-2.104,0.927));
#1133=LINE('',#1132,#1134);
#1134=VECTOR('',#226,0.0219871371086985);
#1135=ORIENTED_EDGE('',*,*,#1136,.F.);
#1136=EDGE_CURVE('',#1137,#1131,#1139,.T.);
#1137=VERTEX_POINT('',#1138);
#1138=CARTESIAN_POINT('',(2.727,-1.596,0.927));
#1139=LINE('',#1138,#553);
#1140=ORIENTED_EDGE('',*,*,#1141,.F.);
#1141=EDGE_CURVE('',#1115,#1137,#1142,.T.);
#1142=LINE('',#1116,#1143);
#1143=VECTOR('',#22,0.0219871371086985);
#1144=STYLED_ITEM('',(#27),#1145);
#1145=ADVANCED_FACE('',(#1148),#1146,.T.);
#1146=PLANE('',#1147);
#1147=AXIS2_PLACEMENT_3D('',#1104,#342,#201);
#1148=FACE_OUTER_BOUND('',#1149,.T.);
#1149=EDGE_LOOP('',(#1150,#1151,#1156,#1161));
#1150=ORIENTED_EDGE('',*,*,#1102,.T.);
#1151=ORIENTED_EDGE('',*,*,#1152,.F.);
#1152=EDGE_CURVE('',#1153,#1105,#1155,.T.);
#1153=VERTEX_POINT('',#1154);
#1154=CARTESIAN_POINT('',(2.727,-1.596,0.778));
#1155=LINE('',#1154,#1134);
#1156=ORIENTED_EDGE('',*,*,#1157,.F.);
#1157=EDGE_CURVE('',#1158,#1153,#1160,.T.);
#1158=VERTEX_POINT('',#1159);
#1159=CARTESIAN_POINT('',(2.727,-2.104,0.778));
#1160=LINE('',#1159,#530);
#1161=ORIENTED_EDGE('',*,*,#1162,.F.);
#1162=EDGE_CURVE('',#1103,#1158,#1163,.T.);
#1163=LINE('',#1104,#1143);
#1164=STYLED_ITEM('',(#27),#1165);
#1165=ADVANCED_FACE('',(#1170),#1166,.T.);
#1166=PLANE('',#1167);
#1167=AXIS2_PLACEMENT_3D('',#1168,#1169,#198);
#1168=CARTESIAN_POINT('',(3.134,-2.104,0.259));
#1169=DIRECTION('',(0.966,0.0,0.259));
#1170=FACE_OUTER_BOUND('',#1171,.T.);
#1171=EDGE_LOOP('',(#1172,#1179,#1186,#1192));
#1172=ORIENTED_EDGE('',*,*,#1173,.F.);
#1173=EDGE_CURVE('',#1174,#1176,#1177,.T.);
#1174=VERTEX_POINT('',#1175);
#1175=CARTESIAN_POINT('',(3.134,-1.596,0.259));
#1176=VERTEX_POINT('',#1168);
#1177=LINE('',#1175,#1178);
#1178=VECTOR('',#233,0.507999994394067);
#1179=ORIENTED_EDGE('',*,*,#1180,.F.);
#1180=EDGE_CURVE('',#1181,#1174,#1183,.T.);
#1181=VERTEX_POINT('',#1182);
#1182=CARTESIAN_POINT('',(3.014,-1.596,0.707));
#1183=LINE('',#1182,#1184);
#1184=VECTOR('',#1185,0.46346944046967);
#1185=DIRECTION('',(0.259,0.0,-0.966));
#1186=ORIENTED_EDGE('',*,*,#1187,.F.);
#1187=EDGE_CURVE('',#1188,#1181,#1190,.T.);
#1188=VERTEX_POINT('',#1189);
#1189=CARTESIAN_POINT('',(3.014,-2.104,0.707));
#1190=LINE('',#1189,#1191);
#1191=VECTOR('',#244,0.507999992923929);
#1192=ORIENTED_EDGE('',*,*,#1193,.F.);
#1193=EDGE_CURVE('',#1176,#1188,#1194,.T.);
#1194=LINE('',#1168,#1195);
#1195=VECTOR('',#1196,0.46346944046967);
#1196=DIRECTION('',(-0.259,0.0,0.966));
#1197=STYLED_ITEM('',(#27),#1198);
#1198=ADVANCED_FACE('',(#1203),#1199,.T.);
#1199=PLANE('',#1200);
#1200=AXIS2_PLACEMENT_3D('',#1201,#1202,#198);
#1201=CARTESIAN_POINT('',(2.991,-1.596,0.22));
#1202=DIRECTION('',(-0.966,0.0,-0.259));
#1203=FACE_OUTER_BOUND('',#1204,.T.);
#1204=EDGE_LOOP('',(#1205,#1212,#1218,#1224));
#1205=ORIENTED_EDGE('',*,*,#1206,.F.);
#1206=EDGE_CURVE('',#1207,#1209,#1210,.T.);
#1207=VERTEX_POINT('',#1208);
#1208=CARTESIAN_POINT('',(2.991,-2.104,0.22));
#1209=VERTEX_POINT('',#1201);
#1210=LINE('',#1208,#1211);
#1211=VECTOR('',#244,0.507999992751681);
#1212=ORIENTED_EDGE('',*,*,#1213,.F.);
#1213=EDGE_CURVE('',#1214,#1207,#1216,.T.);
#1214=VERTEX_POINT('',#1215);
#1215=CARTESIAN_POINT('',(2.871,-2.104,0.668));
#1216=LINE('',#1215,#1217);
#1217=VECTOR('',#1185,0.463469440596026);
#1218=ORIENTED_EDGE('',*,*,#1219,.F.);
#1219=EDGE_CURVE('',#1220,#1214,#1222,.T.);
#1220=VERTEX_POINT('',#1221);
#1221=CARTESIAN_POINT('',(2.871,-1.596,0.668));
#1222=LINE('',#1221,#1223);
#1223=VECTOR('',#233,0.507999992182496);
#1224=ORIENTED_EDGE('',*,*,#1225,.F.);
#1225=EDGE_CURVE('',#1209,#1220,#1226,.T.);
#1226=LINE('',#1201,#1227);
#1227=VECTOR('',#1196,0.463469440596026);
#1228=STYLED_ITEM('',(#27),#1229);
#1229=ADVANCED_FACE('',(#1233),#1230,.T.);
#1230=PLANE('',#1231);
#1231=AXIS2_PLACEMENT_3D('',#1232,#21,#201);
#1232=CARTESIAN_POINT('',(3.3,-2.104,0.149));
#1233=FACE_OUTER_BOUND('',#1234,.T.);
#1234=EDGE_LOOP('',(#1235,#1241,#1247,#1252));
#1235=ORIENTED_EDGE('',*,*,#1236,.F.);
#1236=EDGE_CURVE('',#1237,#1239,#1240,.T.);
#1237=VERTEX_POINT('',#1238);
#1238=CARTESIAN_POINT('',(3.3,-1.596,0.149));
#1239=VERTEX_POINT('',#1232);
#1240=LINE('',#1238,#677);
#1241=ORIENTED_EDGE('',*,*,#1242,.F.);
#1242=EDGE_CURVE('',#1243,#1237,#1245,.T.);
#1243=VERTEX_POINT('',#1244);
#1244=CARTESIAN_POINT('',(3.278,-1.596,0.149));
#1245=LINE('',#1244,#1246);
#1246=VECTOR('',#22,0.0219871367882316);
#1247=ORIENTED_EDGE('',*,*,#1248,.F.);
#1248=EDGE_CURVE('',#1249,#1243,#1251,.T.);
#1249=VERTEX_POINT('',#1250);
#1250=CARTESIAN_POINT('',(3.278,-2.104,0.149));
#1251=LINE('',#1250,#665);
#1252=ORIENTED_EDGE('',*,*,#1253,.F.);
#1253=EDGE_CURVE('',#1239,#1249,#1254,.T.);
#1254=LINE('',#1232,#1255);
#1255=VECTOR('',#226,0.0219871367882316);
#1256=STYLED_ITEM('',(#27),#1257);
#1257=ADVANCED_FACE('',(#1261),#1258,.T.);
#1258=PLANE('',#1259);
#1259=AXIS2_PLACEMENT_3D('',#1260,#342,#201);
#1260=CARTESIAN_POINT('',(3.278,-2.104,0.0));
#1261=FACE_OUTER_BOUND('',#1262,.T.);
#1262=EDGE_LOOP('',(#1263,#1269,#1274,#1279));
#1263=ORIENTED_EDGE('',*,*,#1264,.F.);
#1264=EDGE_CURVE('',#1265,#1267,#1268,.T.);
#1265=VERTEX_POINT('',#1266);
#1266=CARTESIAN_POINT('',(3.278,-1.596,0.0));
#1267=VERTEX_POINT('',#1260);
#1268=LINE('',#1266,#647);
#1269=ORIENTED_EDGE('',*,*,#1270,.F.);
#1270=EDGE_CURVE('',#1271,#1265,#1273,.T.);
#1271=VERTEX_POINT('',#1272);
#1272=CARTESIAN_POINT('',(3.3,-1.596,0.0));
#1273=LINE('',#1272,#1255);
#1274=ORIENTED_EDGE('',*,*,#1275,.F.);
#1275=EDGE_CURVE('',#1276,#1271,#1278,.T.);
#1276=VERTEX_POINT('',#1277);
#1277=CARTESIAN_POINT('',(3.3,-2.104,0.0));
#1278=LINE('',#1277,#635);
#1279=ORIENTED_EDGE('',*,*,#1280,.F.);
#1280=EDGE_CURVE('',#1267,#1276,#1281,.T.);
#1281=LINE('',#1260,#1246);
#1282=STYLED_ITEM('',(#27),#1283);
#1283=ADVANCED_FACE('',(#1286),#1284,.T.);
#1284=PLANE('',#1285);
#1285=AXIS2_PLACEMENT_3D('',#1277,#22,#198);
#1286=FACE_OUTER_BOUND('',#1287,.T.);
#1287=EDGE_LOOP('',(#1288,#1289,#1292,#1293));
#1288=ORIENTED_EDGE('',*,*,#1275,.T.);
#1289=ORIENTED_EDGE('',*,*,#1290,.F.);
#1290=EDGE_CURVE('',#1237,#1271,#1291,.T.);
#1291=LINE('',#1238,#501);
#1292=ORIENTED_EDGE('',*,*,#1236,.T.);
#1293=ORIENTED_EDGE('',*,*,#1294,.F.);
#1294=EDGE_CURVE('',#1276,#1239,#1295,.T.);
#1295=LINE('',#1277,#511);
#1296=STYLED_ITEM($,(#27),#1297);
#1297=ADVANCED_FACE($,(#1301),#1298,.T.);
#1298=CYLINDRICAL_SURFACE($,#1299,0.297449875);
#1299=AXIS2_PLACEMENT_3D($,#1300,#244,#198);
#1300=CARTESIAN_POINT('',(2.727,-1.596,0.63));
#1301=FACE_OUTER_BOUND($,#1302,.T.);
#1302=EDGE_LOOP($,(#1308,#1309,#1315,#1303));
#1303=ORIENTED_EDGE('',*,*,#1304,.F.);
#1304=EDGE_CURVE($,#1137,#1181,#1305,.T.);
#1305=CIRCLE($,#1306,0.297449875);
#1306=AXIS2_PLACEMENT_3D($,#1300,#244,#1307);
#1307=DIRECTION('',(0.793,0.0,-0.609));
#1308=ORIENTED_EDGE('',*,*,#1136,.T.);
#1309=ORIENTED_EDGE('',*,*,#1310,.F.);
#1310=EDGE_CURVE($,#1188,#1131,#1311,.T.);
#1311=CIRCLE($,#1312,0.297449875);
#1312=AXIS2_PLACEMENT_3D($,#1313,#233,#1314);
#1313=CARTESIAN_POINT('',(2.727,-2.104,0.63));
#1314=DIRECTION('',(-0.793,0.0,0.609));
#1315=ORIENTED_EDGE('',*,*,#1187,.T.);
#1316=STYLED_ITEM($,(#27),#1317);
#1317=ADVANCED_FACE($,(#1320),#1318,.F.);
#1318=CYLINDRICAL_SURFACE($,#1319,0.1487249375);
#1319=AXIS2_PLACEMENT_3D($,#1313,#244,#200);
#1320=FACE_OUTER_BOUND($,#1321,.T.);
#1321=EDGE_LOOP($,(#1326,#1327,#1331,#1322));
#1322=ORIENTED_EDGE('',*,*,#1323,.F.);
#1323=EDGE_CURVE($,#1158,#1214,#1324,.T.);
#1324=CIRCLE($,#1325,0.1487249375);
#1325=AXIS2_PLACEMENT_3D($,#1313,#244,#1307);
#1326=ORIENTED_EDGE('',*,*,#1157,.T.);
#1327=ORIENTED_EDGE('',*,*,#1328,.F.);
#1328=EDGE_CURVE($,#1220,#1153,#1329,.T.);
#1329=CIRCLE($,#1330,0.1487249375);
#1330=AXIS2_PLACEMENT_3D($,#1300,#233,#1314);
#1331=ORIENTED_EDGE('',*,*,#1219,.T.);
#1332=STYLED_ITEM($,(#27),#1333);
#1333=ADVANCED_FACE($,(#1337),#1334,.F.);
#1334=CYLINDRICAL_SURFACE($,#1335,0.1487249375);
#1335=AXIS2_PLACEMENT_3D($,#1336,#244,#198);
#1336=CARTESIAN_POINT('',(3.278,-2.104,0.297));
#1337=FACE_OUTER_BOUND($,#1338,.T.);
#1338=EDGE_LOOP($,(#1343,#1344,#1349,#1339));
#1339=ORIENTED_EDGE('',*,*,#1340,.F.);
#1340=EDGE_CURVE($,#1249,#1176,#1341,.T.);
#1341=CIRCLE($,#1342,0.1487249375);
#1342=AXIS2_PLACEMENT_3D($,#1336,#244,#1314);
#1343=ORIENTED_EDGE('',*,*,#1248,.T.);
#1344=ORIENTED_EDGE('',*,*,#1345,.F.);
#1345=EDGE_CURVE($,#1174,#1243,#1346,.T.);
#1346=CIRCLE($,#1347,0.1487249375);
#1347=AXIS2_PLACEMENT_3D($,#1348,#233,#1307);
#1348=CARTESIAN_POINT('',(3.278,-1.596,0.297));
#1349=ORIENTED_EDGE('',*,*,#1173,.T.);
#1350=STYLED_ITEM($,(#27),#1351);
#1351=ADVANCED_FACE($,(#1354),#1352,.T.);
#1352=CYLINDRICAL_SURFACE($,#1353,0.297449875);
#1353=AXIS2_PLACEMENT_3D($,#1336,#244,#200);
#1354=FACE_OUTER_BOUND($,#1355,.T.);
#1355=EDGE_LOOP($,(#1360,#1361,#1365,#1356));
#1356=ORIENTED_EDGE('',*,*,#1357,.F.);
#1357=EDGE_CURVE($,#1265,#1209,#1358,.T.);
#1358=CIRCLE($,#1359,0.297449875);
#1359=AXIS2_PLACEMENT_3D($,#1348,#244,#1314);
#1360=ORIENTED_EDGE('',*,*,#1264,.T.);
#1361=ORIENTED_EDGE('',*,*,#1362,.F.);
#1362=EDGE_CURVE($,#1207,#1267,#1363,.T.);
#1363=CIRCLE($,#1364,0.297449875);
#1364=AXIS2_PLACEMENT_3D($,#1336,#233,#1307);
#1365=ORIENTED_EDGE('',*,*,#1206,.T.);
#1366=STYLED_ITEM('color',(#27),#1367);
#1367=ADVANCED_FACE($,(#1370),#1368,.T.);
#1368=PLANE($,#1369);
#1369=AXIS2_PLACEMENT_3D($,#1104,#233,#199);
#1370=FACE_OUTER_BOUND($,#1371,.T.);
#1371=EDGE_LOOP($,(#1372, #1373, #1374, #1380, #1381, #1375, #1376, #1377, #1378, #1379, #1382, #1383));
#1372=ORIENTED_EDGE('',*,*,#1130,.T.);
#1373=ORIENTED_EDGE('',*,*,#1109,.T.);
#1374=ORIENTED_EDGE('',*,*,#1162,.T.);
#1375=ORIENTED_EDGE('',*,*,#1362,.T.);
#1376=ORIENTED_EDGE('',*,*,#1280,.T.);
#1377=ORIENTED_EDGE('',*,*,#1294,.T.);
#1378=ORIENTED_EDGE('',*,*,#1253,.T.);
#1379=ORIENTED_EDGE('',*,*,#1340,.T.);
#1380=ORIENTED_EDGE('',*,*,#1323,.T.);
#1381=ORIENTED_EDGE('',*,*,#1213,.T.);
#1382=ORIENTED_EDGE('',*,*,#1193,.T.);
#1383=ORIENTED_EDGE('',*,*,#1310,.T.);
#1384=STYLED_ITEM('color',(#27),#1385);
#1385=ADVANCED_FACE($,(#1388),#1386,.T.);
#1386=PLANE($,#1387);
#1387=AXIS2_PLACEMENT_3D($,#1244,#244,#199);
#1388=FACE_OUTER_BOUND($,#1389,.T.);
#1389=EDGE_LOOP($,(#1390, #1391, #1392, #1398, #1399, #1393, #1394, #1395, #1396, #1397, #1400, #1401));
#1390=ORIENTED_EDGE('',*,*,#1152,.T.);
#1391=ORIENTED_EDGE('',*,*,#1120,.T.);
#1392=ORIENTED_EDGE('',*,*,#1141,.T.);
#1393=ORIENTED_EDGE('',*,*,#1345,.T.);
#1394=ORIENTED_EDGE('',*,*,#1242,.T.);
#1395=ORIENTED_EDGE('',*,*,#1290,.T.);
#1396=ORIENTED_EDGE('',*,*,#1270,.T.);
#1397=ORIENTED_EDGE('',*,*,#1357,.T.);
#1398=ORIENTED_EDGE('',*,*,#1304,.T.);
#1399=ORIENTED_EDGE('',*,*,#1180,.T.);
#1400=ORIENTED_EDGE('',*,*,#1225,.T.);
#1401=ORIENTED_EDGE('',*,*,#1328,.T.);
#1402=MANIFOLD_SOLID_BREP($,#1403);
#1403=CLOSED_SHELL('',(#1405,#1431,#1451,#1471,#1497,#1523,#1549,#1575,#1589,#1607,#1623,#1641,#1657,#1675));
#1404=STYLED_ITEM('',(#27),#1405);
#1405=ADVANCED_FACE('',(#1409),#1406,.T.);
#1406=PLANE('',#1407);
#1407=AXIS2_PLACEMENT_3D('',#1408,#226,#198);
#1408=CARTESIAN_POINT('',(2.705,2.104,0.778));
#1409=FACE_OUTER_BOUND('',#1410,.T.);
#1410=EDGE_LOOP('',(#1411,#1417,#1422,#1427));
#1411=ORIENTED_EDGE('',*,*,#1412,.F.);
#1412=EDGE_CURVE('',#1413,#1415,#1416,.T.);
#1413=VERTEX_POINT('',#1414);
#1414=CARTESIAN_POINT('',(2.705,1.596,0.778));
#1415=VERTEX_POINT('',#1408);
#1416=LINE('',#1414,#507);
#1417=ORIENTED_EDGE('',*,*,#1418,.F.);
#1418=EDGE_CURVE('',#1419,#1413,#1421,.T.);
#1419=VERTEX_POINT('',#1420);
#1420=CARTESIAN_POINT('',(2.705,1.596,0.927));
#1421=LINE('',#1420,#501);
#1422=ORIENTED_EDGE('',*,*,#1423,.F.);
#1423=EDGE_CURVE('',#1424,#1419,#1426,.T.);
#1424=VERTEX_POINT('',#1425);
#1425=CARTESIAN_POINT('',(2.705,2.104,0.927));
#1426=LINE('',#1425,#495);
#1427=ORIENTED_EDGE('',*,*,#1428,.F.);
#1428=EDGE_CURVE('',#1415,#1424,#1429,.T.);
#1429=LINE('',#1408,#511);
#1430=STYLED_ITEM('',(#27),#1431);
#1431=ADVANCED_FACE('',(#1434),#1432,.T.);
#1432=PLANE('',#1433);
#1433=AXIS2_PLACEMENT_3D('',#1425,#21,#201);
#1434=FACE_OUTER_BOUND('',#1435,.T.);
#1435=EDGE_LOOP('',(#1436,#1437,#1442,#1447));
#1436=ORIENTED_EDGE('',*,*,#1423,.T.);
#1437=ORIENTED_EDGE('',*,*,#1438,.F.);
#1438=EDGE_CURVE('',#1439,#1419,#1441,.T.);
#1439=VERTEX_POINT('',#1440);
#1440=CARTESIAN_POINT('',(2.727,1.596,0.927));
#1441=LINE('',#1440,#1134);
#1442=ORIENTED_EDGE('',*,*,#1443,.F.);
#1443=EDGE_CURVE('',#1444,#1439,#1446,.T.);
#1444=VERTEX_POINT('',#1445);
#1445=CARTESIAN_POINT('',(2.727,2.104,0.927));
#1446=LINE('',#1445,#553);
#1447=ORIENTED_EDGE('',*,*,#1448,.F.);
#1448=EDGE_CURVE('',#1424,#1444,#1449,.T.);
#1449=LINE('',#1425,#1143);
#1450=STYLED_ITEM('',(#27),#1451);
#1451=ADVANCED_FACE('',(#1454),#1452,.T.);
#1452=PLANE('',#1453);
#1453=AXIS2_PLACEMENT_3D('',#1414,#342,#201);
#1454=FACE_OUTER_BOUND('',#1455,.T.);
#1455=EDGE_LOOP('',(#1456,#1457,#1462,#1467));
#1456=ORIENTED_EDGE('',*,*,#1412,.T.);
#1457=ORIENTED_EDGE('',*,*,#1458,.F.);
#1458=EDGE_CURVE('',#1459,#1415,#1461,.T.);
#1459=VERTEX_POINT('',#1460);
#1460=CARTESIAN_POINT('',(2.727,2.104,0.778));
#1461=LINE('',#1460,#1134);
#1462=ORIENTED_EDGE('',*,*,#1463,.F.);
#1463=EDGE_CURVE('',#1464,#1459,#1466,.T.);
#1464=VERTEX_POINT('',#1465);
#1465=CARTESIAN_POINT('',(2.727,1.596,0.778));
#1466=LINE('',#1465,#530);
#1467=ORIENTED_EDGE('',*,*,#1468,.F.);
#1468=EDGE_CURVE('',#1413,#1464,#1469,.T.);
#1469=LINE('',#1414,#1143);
#1470=STYLED_ITEM('',(#27),#1471);
#1471=ADVANCED_FACE('',(#1475),#1472,.T.);
#1472=PLANE('',#1473);
#1473=AXIS2_PLACEMENT_3D('',#1474,#1169,#198);
#1474=CARTESIAN_POINT('',(3.134,1.596,0.259));
#1475=FACE_OUTER_BOUND('',#1476,.T.);
#1476=EDGE_LOOP('',(#1477,#1483,#1488,#1493));
#1477=ORIENTED_EDGE('',*,*,#1478,.F.);
#1478=EDGE_CURVE('',#1479,#1481,#1482,.T.);
#1479=VERTEX_POINT('',#1480);
#1480=CARTESIAN_POINT('',(3.134,2.104,0.259));
#1481=VERTEX_POINT('',#1474);
#1482=LINE('',#1480,#1178);
#1483=ORIENTED_EDGE('',*,*,#1484,.F.);
#1484=EDGE_CURVE('',#1485,#1479,#1487,.T.);
#1485=VERTEX_POINT('',#1486);
#1486=CARTESIAN_POINT('',(3.014,2.104,0.707));
#1487=LINE('',#1486,#1184);
#1488=ORIENTED_EDGE('',*,*,#1489,.F.);
#1489=EDGE_CURVE('',#1490,#1485,#1492,.T.);
#1490=VERTEX_POINT('',#1491);
#1491=CARTESIAN_POINT('',(3.014,1.596,0.707));
#1492=LINE('',#1491,#1191);
#1493=ORIENTED_EDGE('',*,*,#1494,.F.);
#1494=EDGE_CURVE('',#1481,#1490,#1495,.T.);
#1495=LINE('',#1474,#1195);
#1496=STYLED_ITEM('',(#27),#1497);
#1497=ADVANCED_FACE('',(#1501),#1498,.T.);
#1498=PLANE('',#1499);
#1499=AXIS2_PLACEMENT_3D('',#1500,#1202,#198);
#1500=CARTESIAN_POINT('',(2.991,2.104,0.22));
#1501=FACE_OUTER_BOUND('',#1502,.T.);
#1502=EDGE_LOOP('',(#1503,#1509,#1514,#1519));
#1503=ORIENTED_EDGE('',*,*,#1504,.F.);
#1504=EDGE_CURVE('',#1505,#1507,#1508,.T.);
#1505=VERTEX_POINT('',#1506);
#1506=CARTESIAN_POINT('',(2.991,1.596,0.22));
#1507=VERTEX_POINT('',#1500);
#1508=LINE('',#1506,#1211);
#1509=ORIENTED_EDGE('',*,*,#1510,.F.);
#1510=EDGE_CURVE('',#1511,#1505,#1513,.T.);
#1511=VERTEX_POINT('',#1512);
#1512=CARTESIAN_POINT('',(2.871,1.596,0.668));
#1513=LINE('',#1512,#1217);
#1514=ORIENTED_EDGE('',*,*,#1515,.F.);
#1515=EDGE_CURVE('',#1516,#1511,#1518,.T.);
#1516=VERTEX_POINT('',#1517);
#1517=CARTESIAN_POINT('',(2.871,2.104,0.668));
#1518=LINE('',#1517,#1223);
#1519=ORIENTED_EDGE('',*,*,#1520,.F.);
#1520=EDGE_CURVE('',#1507,#1516,#1521,.T.);
#1521=LINE('',#1500,#1227);
#1522=STYLED_ITEM('',(#27),#1523);
#1523=ADVANCED_FACE('',(#1527),#1524,.T.);
#1524=PLANE('',#1525);
#1525=AXIS2_PLACEMENT_3D('',#1526,#21,#201);
#1526=CARTESIAN_POINT('',(3.3,1.596,0.149));
#1527=FACE_OUTER_BOUND('',#1528,.T.);
#1528=EDGE_LOOP('',(#1529,#1535,#1540,#1545));
#1529=ORIENTED_EDGE('',*,*,#1530,.F.);
#1530=EDGE_CURVE('',#1531,#1533,#1534,.T.);
#1531=VERTEX_POINT('',#1532);
#1532=CARTESIAN_POINT('',(3.3,2.104,0.149));
#1533=VERTEX_POINT('',#1526);
#1534=LINE('',#1532,#677);
#1535=ORIENTED_EDGE('',*,*,#1536,.F.);
#1536=EDGE_CURVE('',#1537,#1531,#1539,.T.);
#1537=VERTEX_POINT('',#1538);
#1538=CARTESIAN_POINT('',(3.278,2.104,0.149));
#1539=LINE('',#1538,#1246);
#1540=ORIENTED_EDGE('',*,*,#1541,.F.);
#1541=EDGE_CURVE('',#1542,#1537,#1544,.T.);
#1542=VERTEX_POINT('',#1543);
#1543=CARTESIAN_POINT('',(3.278,1.596,0.149));
#1544=LINE('',#1543,#665);
#1545=ORIENTED_EDGE('',*,*,#1546,.F.);
#1546=EDGE_CURVE('',#1533,#1542,#1547,.T.);
#1547=LINE('',#1526,#1255);
#1548=STYLED_ITEM('',(#27),#1549);
#1549=ADVANCED_FACE('',(#1553),#1550,.T.);
#1550=PLANE('',#1551);
#1551=AXIS2_PLACEMENT_3D('',#1552,#342,#201);
#1552=CARTESIAN_POINT('',(3.278,1.596,0.0));
#1553=FACE_OUTER_BOUND('',#1554,.T.);
#1554=EDGE_LOOP('',(#1555,#1561,#1566,#1571));
#1555=ORIENTED_EDGE('',*,*,#1556,.F.);
#1556=EDGE_CURVE('',#1557,#1559,#1560,.T.);
#1557=VERTEX_POINT('',#1558);
#1558=CARTESIAN_POINT('',(3.278,2.104,0.0));
#1559=VERTEX_POINT('',#1552);
#1560=LINE('',#1558,#647);
#1561=ORIENTED_EDGE('',*,*,#1562,.F.);
#1562=EDGE_CURVE('',#1563,#1557,#1565,.T.);
#1563=VERTEX_POINT('',#1564);
#1564=CARTESIAN_POINT('',(3.3,2.104,0.0));
#1565=LINE('',#1564,#1255);
#1566=ORIENTED_EDGE('',*,*,#1567,.F.);
#1567=EDGE_CURVE('',#1568,#1563,#1570,.T.);
#1568=VERTEX_POINT('',#1569);
#1569=CARTESIAN_POINT('',(3.3,1.596,0.0));
#1570=LINE('',#1569,#635);
#1571=ORIENTED_EDGE('',*,*,#1572,.F.);
#1572=EDGE_CURVE('',#1559,#1568,#1573,.T.);
#1573=LINE('',#1552,#1246);
#1574=STYLED_ITEM('',(#27),#1575);
#1575=ADVANCED_FACE('',(#1578),#1576,.T.);
#1576=PLANE('',#1577);
#1577=AXIS2_PLACEMENT_3D('',#1569,#22,#198);
#1578=FACE_OUTER_BOUND('',#1579,.T.);
#1579=EDGE_LOOP('',(#1580,#1581,#1584,#1585));
#1580=ORIENTED_EDGE('',*,*,#1567,.T.);
#1581=ORIENTED_EDGE('',*,*,#1582,.F.);
#1582=EDGE_CURVE('',#1531,#1563,#1583,.T.);
#1583=LINE('',#1532,#501);
#1584=ORIENTED_EDGE('',*,*,#1530,.T.);
#1585=ORIENTED_EDGE('',*,*,#1586,.F.);
#1586=EDGE_CURVE('',#1568,#1533,#1587,.T.);
#1587=LINE('',#1569,#511);
#1588=STYLED_ITEM($,(#27),#1589);
#1589=ADVANCED_FACE($,(#1593),#1590,.T.);
#1590=CYLINDRICAL_SURFACE($,#1591,0.297449875);
#1591=AXIS2_PLACEMENT_3D($,#1592,#244,#198);
#1592=CARTESIAN_POINT('',(2.727,2.104,0.63));
#1593=FACE_OUTER_BOUND($,#1594,.T.);
#1594=EDGE_LOOP($,(#1599,#1600,#1605,#1595));
#1595=ORIENTED_EDGE('',*,*,#1596,.F.);
#1596=EDGE_CURVE($,#1444,#1485,#1597,.T.);
#1597=CIRCLE($,#1598,0.297449875);
#1598=AXIS2_PLACEMENT_3D($,#1592,#244,#1307);
#1599=ORIENTED_EDGE('',*,*,#1443,.T.);
#1600=ORIENTED_EDGE('',*,*,#1601,.F.);
#1601=EDGE_CURVE($,#1490,#1439,#1602,.T.);
#1602=CIRCLE($,#1603,0.297449875);
#1603=AXIS2_PLACEMENT_3D($,#1604,#233,#1314);
#1604=CARTESIAN_POINT('',(2.727,1.596,0.63));
#1605=ORIENTED_EDGE('',*,*,#1489,.T.);
#1606=STYLED_ITEM($,(#27),#1607);
#1607=ADVANCED_FACE($,(#1610),#1608,.F.);
#1608=CYLINDRICAL_SURFACE($,#1609,0.1487249375);
#1609=AXIS2_PLACEMENT_3D($,#1604,#244,#200);
#1610=FACE_OUTER_BOUND($,#1611,.T.);
#1611=EDGE_LOOP($,(#1616,#1617,#1621,#1612));
#1612=ORIENTED_EDGE('',*,*,#1613,.F.);
#1613=EDGE_CURVE($,#1464,#1511,#1614,.T.);
#1614=CIRCLE($,#1615,0.1487249375);
#1615=AXIS2_PLACEMENT_3D($,#1604,#244,#1307);
#1616=ORIENTED_EDGE('',*,*,#1463,.T.);
#1617=ORIENTED_EDGE('',*,*,#1618,.F.);
#1618=EDGE_CURVE($,#1516,#1459,#1619,.T.);
#1619=CIRCLE($,#1620,0.1487249375);
#1620=AXIS2_PLACEMENT_3D($,#1592,#233,#1314);
#1621=ORIENTED_EDGE('',*,*,#1515,.T.);
#1622=STYLED_ITEM($,(#27),#1623);
#1623=ADVANCED_FACE($,(#1627),#1624,.F.);
#1624=CYLINDRICAL_SURFACE($,#1625,0.1487249375);
#1625=AXIS2_PLACEMENT_3D($,#1626,#244,#198);
#1626=CARTESIAN_POINT('',(3.278,1.596,0.297));
#1627=FACE_OUTER_BOUND($,#1628,.T.);
#1628=EDGE_LOOP($,(#1633,#1634,#1639,#1629));
#1629=ORIENTED_EDGE('',*,*,#1630,.F.);
#1630=EDGE_CURVE($,#1542,#1481,#1631,.T.);
#1631=CIRCLE($,#1632,0.1487249375);
#1632=AXIS2_PLACEMENT_3D($,#1626,#244,#1314);
#1633=ORIENTED_EDGE('',*,*,#1541,.T.);
#1634=ORIENTED_EDGE('',*,*,#1635,.F.);
#1635=EDGE_CURVE($,#1479,#1537,#1636,.T.);
#1636=CIRCLE($,#1637,0.1487249375);
#1637=AXIS2_PLACEMENT_3D($,#1638,#233,#1307);
#1638=CARTESIAN_POINT('',(3.278,2.104,0.297));
#1639=ORIENTED_EDGE('',*,*,#1478,.T.);
#1640=STYLED_ITEM($,(#27),#1641);
#1641=ADVANCED_FACE($,(#1644),#1642,.T.);
#1642=CYLINDRICAL_SURFACE($,#1643,0.297449875);
#1643=AXIS2_PLACEMENT_3D($,#1626,#244,#200);
#1644=FACE_OUTER_BOUND($,#1645,.T.);
#1645=EDGE_LOOP($,(#1650,#1651,#1655,#1646));
#1646=ORIENTED_EDGE('',*,*,#1647,.F.);
#1647=EDGE_CURVE($,#1557,#1507,#1648,.T.);
#1648=CIRCLE($,#1649,0.297449875);
#1649=AXIS2_PLACEMENT_3D($,#1638,#244,#1314);
#1650=ORIENTED_EDGE('',*,*,#1556,.T.);
#1651=ORIENTED_EDGE('',*,*,#1652,.F.);
#1652=EDGE_CURVE($,#1505,#1559,#1653,.T.);
#1653=CIRCLE($,#1654,0.297449875);
#1654=AXIS2_PLACEMENT_3D($,#1626,#233,#1307);
#1655=ORIENTED_EDGE('',*,*,#1504,.T.);
#1656=STYLED_ITEM('color',(#27),#1657);
#1657=ADVANCED_FACE($,(#1660),#1658,.T.);
#1658=PLANE($,#1659);
#1659=AXIS2_PLACEMENT_3D($,#1414,#233,#199);
#1660=FACE_OUTER_BOUND($,#1661,.T.);
#1661=EDGE_LOOP($,(#1662, #1663, #1664, #1670, #1671, #1665, #1666, #1667, #1668, #1669, #1672, #1673));
#1662=ORIENTED_EDGE('',*,*,#1438,.T.);
#1663=ORIENTED_EDGE('',*,*,#1418,.T.);
#1664=ORIENTED_EDGE('',*,*,#1468,.T.);
#1665=ORIENTED_EDGE('',*,*,#1652,.T.);
#1666=ORIENTED_EDGE('',*,*,#1572,.T.);
#1667=ORIENTED_EDGE('',*,*,#1586,.T.);
#1668=ORIENTED_EDGE('',*,*,#1546,.T.);
#1669=ORIENTED_EDGE('',*,*,#1630,.T.);
#1670=ORIENTED_EDGE('',*,*,#1613,.T.);
#1671=ORIENTED_EDGE('',*,*,#1510,.T.);
#1672=ORIENTED_EDGE('',*,*,#1494,.T.);
#1673=ORIENTED_EDGE('',*,*,#1601,.T.);
#1674=STYLED_ITEM('color',(#27),#1675);
#1675=ADVANCED_FACE($,(#1678),#1676,.T.);
#1676=PLANE($,#1677);
#1677=AXIS2_PLACEMENT_3D($,#1538,#244,#199);
#1678=FACE_OUTER_BOUND($,#1679,.T.);
#1679=EDGE_LOOP($,(#1680, #1681, #1682, #1688, #1689, #1683, #1684, #1685, #1686, #1687, #1690, #1691));
#1680=ORIENTED_EDGE('',*,*,#1458,.T.);
#1681=ORIENTED_EDGE('',*,*,#1428,.T.);
#1682=ORIENTED_EDGE('',*,*,#1448,.T.);
#1683=ORIENTED_EDGE('',*,*,#1635,.T.);
#1684=ORIENTED_EDGE('',*,*,#1536,.T.);
#1685=ORIENTED_EDGE('',*,*,#1582,.T.);
#1686=ORIENTED_EDGE('',*,*,#1562,.T.);
#1687=ORIENTED_EDGE('',*,*,#1647,.T.);
#1688=ORIENTED_EDGE('',*,*,#1596,.T.);
#1689=ORIENTED_EDGE('',*,*,#1484,.T.);
#1690=ORIENTED_EDGE('',*,*,#1520,.T.);
#1691=ORIENTED_EDGE('',*,*,#1618,.T.);
ENDSEC;
END-ISO-10303-21;
