ISO-10303-21;
HEADER;
FILE_DESCRIPTION((''),'2;1');
FILE_NAME('DDC0006A_ASM','2025-06-09T10:26:11',('a0412086'),(''),
'CREO PARAMETRIC BY PTC INC, 2018500','CREO PARAMETRIC BY PTC INC, 2018500','');
FILE_SCHEMA(('CONFIG_CONTROL_DESIGN','SHAPE_APPEARANCE_LAYERS_GROUPS'));
ENDSEC;
DATA;
#1=COLOUR_RGB('',0.E0,4.3E-1,1.E0);
#2=COLOUR_RGB('',0.E0,6.6E-1,0.E0);
#3=COLOUR_RGB('',9.8039E-2,9.8039E-2,9.8039E-2);
#4=COLOUR_RGB('',1.7E-1,2.2E-1,3.E-1);
#5=COLOUR_RGB('',1.80392E-1,2.7451E-1,9.8039E-2);
#6=COLOUR_RGB('',3.E-1,1.29412E-1,2.5098E-1);
#7=COLOUR_RGB('',3.13725E-1,3.13725E-1,3.13725E-1);
#8=COLOUR_RGB('',3.2E-1,4.9E-1,1.76471E-1);
#9=COLOUR_RGB('',3.33333E-1,2.15686E-1,3.33333E-1);
#10=COLOUR_RGB('',3.5E-1,3.5E-1,3.5E-1);
#11=COLOUR_RGB('',3.60784E-1,2.62745E-1,0.E0);
#12=COLOUR_RGB('',3.92157E-1,3.92157E-1,3.92157E-1);
#13=COLOUR_RGB('',4.4E-1,2.6E-1,0.E0);
#14=COLOUR_RGB('',5.2549E-1,5.60784E-1,9.21569E-1);
#15=COLOUR_RGB('',5.60784E-1,6.86275E-1,6.23529E-1);
#16=COLOUR_RGB('',5.7E-1,0.E0,1.E0);
#17=COLOUR_RGB('',5.9E-1,3.E-1,0.E0);
#18=COLOUR_RGB('',6.E-1,6.E-1,6.E-1);
#19=COLOUR_RGB('',6.2E-1,3.3E-1,2.3E-1);
#20=COLOUR_RGB('',6.23529E-1,5.60784E-1,6.86275E-1);
#21=COLOUR_RGB('',6.35294E-1,6.86275E-1,7.4902E-1);
#22=COLOUR_RGB('',6.66667E-1,6.66667E-1,6.66667E-1);
#23=COLOUR_RGB('',6.86275E-1,5.60784E-1,5.60784E-1);
#24=COLOUR_RGB('',6.86275E-1,6.86275E-1,5.60784E-1);
#25=COLOUR_RGB('',6.9E-1,0.E0,0.E0);
#26=COLOUR_RGB('',7.E-1,7.E-1,7.E-1);
#27=COLOUR_RGB('',8.23529E-1,7.05882E-1,4.31373E-1);
#28=COLOUR_RGB('',8.39216E-1,8.90196E-1,7.68627E-1);
#29=COLOUR_RGB('',8.62745E-1,4.98039E-1,3.92157E-1);
#30=COLOUR_RGB('',8.7E-1,7.5E-1,4.9E-1);
#31=COLOUR_RGB('',8.82353E-1,8.82353E-1,8.82353E-1);
#32=COLOUR_RGB('',9.80392E-1,9.80392E-1,9.80392E-1);
#33=COLOUR_RGB('',9.9E-1,1.E0,0.E0);
#34=COLOUR_RGB('',1.E0,5.E-1,0.E0);
#35=COLOUR_RGB('',1.E0,6.19608E-1,5.17647E-1);
#36=DRAUGHTING_PRE_DEFINED_COLOUR('white');
#37=STYLED_ITEM('',(#1099),#1093);
#38=DIRECTION('',(0.E0,0.E0,1.E0));
#39=VECTOR('',#38,1.354596202253E0);
#40=CARTESIAN_POINT('',(-1.334514870146E0,2.2E-1,-6.772981011264E-1));
#41=LINE('',#40,#39);
#42=DRAUGHTING_PRE_DEFINED_CURVE_FONT('continuous');
#43=CURVE_STYLE('',#42,POSITIVE_LENGTH_MEASURE(2.E-2),#3);
#44=PRESENTATION_STYLE_ASSIGNMENT((#43));
#45=STYLED_ITEM('',(#44),#41);
#46=DIRECTION('',(-1.E0,0.E0,0.E0));
#47=VECTOR('',#46,2.669029740292E0);
#48=CARTESIAN_POINT('',(1.334514870146E0,2.2E-1,-6.772981011264E-1));
#49=LINE('',#48,#47);
#50=STYLED_ITEM('',(#44),#49);
#51=DIRECTION('',(0.E0,0.E0,-1.E0));
#52=VECTOR('',#51,1.354596202253E0);
#53=CARTESIAN_POINT('',(1.334514870146E0,2.2E-1,6.772981011264E-1));
#54=LINE('',#53,#52);
#55=STYLED_ITEM('',(#44),#54);
#56=DIRECTION('',(1.E0,0.E0,0.E0));
#57=VECTOR('',#56,2.669029740292E0);
#58=CARTESIAN_POINT('',(-1.334514870146E0,2.2E-1,6.772981011264E-1));
#59=LINE('',#58,#57);
#60=STYLED_ITEM('',(#44),#59);
#61=CARTESIAN_POINT('',(-1.433769485310E0,1.321869343405E-1,-6.772981011264E-1));
#62=LINE('',#61,#39);
#63=STYLED_ITEM('',(#44),#62);
#64=DIRECTION('',(-1.200447580761E-1,-9.776860966339E-1,1.723924375001E-1));
#65=VECTOR('',#64,1.351886847905E-1);
#66=CARTESIAN_POINT('',(-1.433769485310E0,1.321869343405E-1,6.772981011264E-1));
#67=LINE('',#66,#65);
#68=STYLED_ITEM('',(#44),#67);
#69=CARTESIAN_POINT('',(-1.45E0,0.E0,7.E-1));
#70=CARTESIAN_POINT('',(-1.45E0,0.E0,7.002013259953E-1));
#71=CARTESIAN_POINT('',(-1.449999392024E0,4.951564737073E-6,7.004025285198E-1));
#72=CARTESIAN_POINT('',(-1.449998178270E0,1.483679860481E-5,7.006036080199E-1));
#73=B_SPLINE_CURVE_WITH_KNOTS('',3,(#69,#70,#71,#72),.UNSPECIFIED.,.F.,.F.,(4,4),(0.E0,1.E0),.UNSPECIFIED.);
#74=STYLED_ITEM('',(#44),#73);
#75=VECTOR('',#51,1.4E0);
#76=LINE('',#69,#75);
#77=STYLED_ITEM('',(#44),#76);
#78=CARTESIAN_POINT('',(-1.449998178270E0,1.483679860481E-5,-7.006036080199E-1));
#79=CARTESIAN_POINT('',(-1.449999392024E0,4.951564737100E-6,-7.004025285198E-1));
#80=CARTESIAN_POINT('',(-1.45E0,0.E0,-7.002013259953E-1));
#81=CARTESIAN_POINT('',(-1.45E0,0.E0,-7.E-1));
#82=B_SPLINE_CURVE_WITH_KNOTS('',3,(#78,#79,#80,#81),.UNSPECIFIED.,.F.,.F.,(4,4),(0.E0,1.E0),.UNSPECIFIED.);
#83=STYLED_ITEM('',(#44),#82);
#84=DIRECTION('',(-1.200447580761E-1,-9.776860966339E-1,-1.723924375001E-1));
#85=VECTOR('',#84,1.351886847905E-1);
#86=LINE('',#61,#85);
#87=STYLED_ITEM('',(#44),#86);
#88=CARTESIAN_POINT('',(-1.351374570139E0,5.358035160637E-5,7.999905523384E-1));
#89=CARTESIAN_POINT('',(-1.356593741758E0,4.604832134665E-4,7.999188043853E-1));
#90=CARTESIAN_POINT('',(-1.367822177221E0,1.244296438115E-3,7.989500505031E-1));
#91=CARTESIAN_POINT('',(-1.386570937036E0,2.209040047596E-3,7.938424073293E-1));
#92=CARTESIAN_POINT('',(-1.405804395846E0,2.785661336614E-3,7.839270851730E-1));
#93=CARTESIAN_POINT('',(-1.422152805307E0,2.853212307215E-3,7.702641739983E-1));
#94=CARTESIAN_POINT('',(-1.434384934163E0,2.507133470660E-3,7.546947711290E-1));
#95=CARTESIAN_POINT('',(-1.442213580428E0,1.943752792882E-3,7.397275496635E-1));
#96=CARTESIAN_POINT('',(-1.446989811343E0,1.291315330175E-3,7.256605178873E-1));
#97=CARTESIAN_POINT('',(-1.449478783341E0,6.223273242156E-4,7.125626608354E-1));
#98=CARTESIAN_POINT('',(-1.449974953981E0,2.039834549046E-4,7.044511158878E-1));
#99=CARTESIAN_POINT('',(-1.449998178270E0,1.483679860579E-5,7.006036080199E-1));
#100=B_SPLINE_CURVE_WITH_KNOTS('',3,(#88,#89,#90,#91,#92,#93,#94,#95,#96,#97,#98,#99),.UNSPECIFIED.,.F.,.F.,(4,1,1,1,1,1,1,1,1,4),(0.E0,1.111111111111E-1,2.222222222222E-1,3.333333333333E-1,4.444444444444E-1,5.555555555556E-1,6.666666666667E-1,7.777777777778E-1,8.888888888889E-1,1.E0),.UNSPECIFIED.);
#101=STYLED_ITEM('',(#44),#100);
#102=CARTESIAN_POINT('',(-1.334514870146E0,1.2E-1,6.772981011264E-1));
#103=DIRECTION('',(0.E0,1.736481776669E-1,9.848077530122E-1));
#104=AXIS2_PLACEMENT_3D('',#102,#46,#103);
#105=CIRCLE('',#104,1.E-1);
#106=STYLED_ITEM('',(#44),#105);
#107=DIRECTION('',(1.200447580761E-1,9.776860966339E-1,-1.723924375001E-1));
#108=DIRECTION('',(-9.925461516413E-1,1.218693434051E-1,0.E0));
#109=AXIS2_PLACEMENT_3D('',#102,#107,#108);
#110=CIRCLE('',#109,1.E-1);
#111=STYLED_ITEM('',(#44),#110);
#112=DIRECTION('',(0.E0,1.E0,0.E0));
#113=AXIS2_PLACEMENT_3D('',#102,#38,#112);
#114=CIRCLE('',#113,1.E-1);
#115=STYLED_ITEM('',(#44),#114);
#116=DIRECTION('',(1.200447580761E-1,-9.776860966339E-1,1.723924375001E-1));
#117=VECTOR('',#116,1.404451161654E-1);
#118=CARTESIAN_POINT('',(1.334514870146E0,1.373648177667E-1,7.757788764276E-1));
#119=LINE('',#118,#117);
#120=STYLED_ITEM('',(#44),#119);
#121=CARTESIAN_POINT('',(1.35E0,0.E0,8.E-1));
#122=CARTESIAN_POINT('',(1.350458906786E0,0.E0,8.E-1));
#123=CARTESIAN_POINT('',(1.350917094665E0,1.791413994513E-5,7.999968412538E-1));
#124=CARTESIAN_POINT('',(1.351374570139E0,5.358035160674E-5,7.999905523384E-1));
#125=B_SPLINE_CURVE_WITH_KNOTS('',3,(#121,#122,#123,#124),.UNSPECIFIED.,.F.,.F.,(4,4),(0.E0,1.E0),.UNSPECIFIED.);
#126=STYLED_ITEM('',(#44),#125);
#127=VECTOR('',#56,2.7E0);
#128=CARTESIAN_POINT('',(-1.35E0,0.E0,8.E-1));
#129=LINE('',#128,#127);
#130=STYLED_ITEM('',(#44),#129);
#131=CARTESIAN_POINT('',(-1.351374570139E0,5.358035160674E-5,7.999905523384E-1));
#132=CARTESIAN_POINT('',(-1.350917094665E0,1.791413994515E-5,7.999968412538E-1));
#133=CARTESIAN_POINT('',(-1.350458906786E0,0.E0,8.E-1));
#134=B_SPLINE_CURVE_WITH_KNOTS('',3,(#131,#132,#133,#128),.UNSPECIFIED.,.F.,.F.,(4,4),(0.E0,1.E0),.UNSPECIFIED.);
#135=STYLED_ITEM('',(#44),#134);
#136=VECTOR('',#64,1.404451161654E-1);
#137=CARTESIAN_POINT('',(-1.334514870146E0,1.373648177667E-1,7.757788764276E-1));
#138=LINE('',#137,#136);
#139=STYLED_ITEM('',(#44),#138);
#140=LINE('',#137,#57);
#141=STYLED_ITEM('',(#44),#140);
#142=CARTESIAN_POINT('',(1.449998178270E0,1.483679860539E-5,7.006036080199E-1));
#143=CARTESIAN_POINT('',(1.449974996049E0,2.036408417179E-4,7.044441466558E-1));
#144=CARTESIAN_POINT('',(1.449481181886E0,6.210993619798E-4,7.125388260574E-1));
#145=CARTESIAN_POINT('',(1.446999093942E0,1.289021330448E-3,7.256159035670E-1));
#146=CARTESIAN_POINT('',(1.442253445431E0,1.939688999312E-3,7.396324977120E-1));
#147=CARTESIAN_POINT('',(1.434440823764E0,2.504033618516E-3,7.546023511942E-1));
#148=CARTESIAN_POINT('',(1.422269120356E0,2.852293270343E-3,7.701484599476E-1));
#149=CARTESIAN_POINT('',(1.405851915049E0,2.786878171330E-3,7.839005433312E-1));
#150=CARTESIAN_POINT('',(1.386631402060E0,2.211670559192E-3,7.938204545316E-1));
#151=CARTESIAN_POINT('',(1.367805469301E0,1.243651601569E-3,7.989569130743E-1));
#152=CARTESIAN_POINT('',(1.356584240724E0,4.597424833306E-4,7.999189349960E-1));
#153=CARTESIAN_POINT('',(1.351374570139E0,5.358035160644E-5,7.999905523384E-1));
#154=B_SPLINE_CURVE_WITH_KNOTS('',3,(#142,#143,#144,#145,#146,#147,#148,#149,#150,#151,#152,#153),.UNSPECIFIED.,.F.,.F.,(4,1,1,1,1,1,1,1,1,4),(0.E0,1.111111111111E-1,2.222222222222E-1,3.333333333333E-1,4.444444444444E-1,5.555555555556E-1,6.666666666667E-1,7.777777777778E-1,8.888888888889E-1,1.E0),.UNSPECIFIED.);
#155=STYLED_ITEM('',(#44),#154);
#156=CARTESIAN_POINT('',(1.334514870146E0,1.2E-1,6.772981011264E-1));
#157=AXIS2_PLACEMENT_3D('',#156,#56,#112);
#158=CIRCLE('',#157,1.E-1);
#159=STYLED_ITEM('',(#44),#158);
#160=DIRECTION('',(9.925461516413E-1,1.218693434051E-1,0.E0));
#161=AXIS2_PLACEMENT_3D('',#156,#38,#160);
#162=CIRCLE('',#161,1.E-1);
#163=STYLED_ITEM('',(#44),#162);
#164=DIRECTION('',(-1.200447580761E-1,9.776860966339E-1,-1.723924375001E-1));
#165=AXIS2_PLACEMENT_3D('',#156,#164,#103);
#166=CIRCLE('',#165,1.E-1);
#167=STYLED_ITEM('',(#44),#166);
#168=CARTESIAN_POINT('',(1.45E0,0.E0,-7.E-1));
#169=CARTESIAN_POINT('',(1.45E0,0.E0,-7.002013259953E-1));
#170=CARTESIAN_POINT('',(1.449999392024E0,4.951564737073E-6,-7.004025285198E-1));
#171=CARTESIAN_POINT('',(1.449998178270E0,1.483679860481E-5,-7.006036080199E-1));
#172=B_SPLINE_CURVE_WITH_KNOTS('',3,(#168,#169,#170,#171),.UNSPECIFIED.,.F.,.F.,(4,4),(0.E0,1.E0),.UNSPECIFIED.);
#173=STYLED_ITEM('',(#44),#172);
#174=CARTESIAN_POINT('',(1.45E0,0.E0,7.E-1));
#175=LINE('',#174,#75);
#176=STYLED_ITEM('',(#44),#175);
#177=CARTESIAN_POINT('',(1.449998178270E0,1.483679860481E-5,7.006036080199E-1));
#178=CARTESIAN_POINT('',(1.449999392024E0,4.951564737100E-6,7.004025285198E-1));
#179=CARTESIAN_POINT('',(1.45E0,0.E0,7.002013259953E-1));
#180=B_SPLINE_CURVE_WITH_KNOTS('',3,(#177,#178,#179,#174),.UNSPECIFIED.,.F.,.F.,(4,4),(0.E0,1.E0),.UNSPECIFIED.);
#181=STYLED_ITEM('',(#44),#180);
#182=VECTOR('',#116,1.351886847905E-1);
#183=CARTESIAN_POINT('',(1.433769485310E0,1.321869343405E-1,6.772981011264E-1));
#184=LINE('',#183,#182);
#185=STYLED_ITEM('',(#44),#184);
#186=LINE('',#183,#52);
#187=STYLED_ITEM('',(#44),#186);
#188=DIRECTION('',(1.200447580761E-1,-9.776860966339E-1,-1.723924375001E-1));
#189=VECTOR('',#188,1.351886847905E-1);
#190=CARTESIAN_POINT('',(1.433769485310E0,1.321869343405E-1,-6.772981011264E-1));
#191=LINE('',#190,#189);
#192=STYLED_ITEM('',(#44),#191);
#193=DIRECTION('',(0.E0,-1.E0,0.E0));
#194=VECTOR('',#193,1.27E-1);
#195=CARTESIAN_POINT('',(-1.35E0,0.E0,-8.E-1));
#196=LINE('',#195,#194);
#197=STYLED_ITEM('',(#44),#196);
#198=CARTESIAN_POINT('',(1.35E0,0.E0,-8.E-1));
#199=LINE('',#198,#194);
#200=STYLED_ITEM('',(#44),#199);
#201=LINE('',#81,#194);
#202=STYLED_ITEM('',(#44),#201);
#203=LINE('',#69,#194);
#204=STYLED_ITEM('',(#44),#203);
#205=LINE('',#121,#194);
#206=STYLED_ITEM('',(#44),#205);
#207=LINE('',#128,#194);
#208=STYLED_ITEM('',(#44),#207);
#209=LINE('',#168,#194);
#210=STYLED_ITEM('',(#44),#209);
#211=LINE('',#174,#194);
#212=STYLED_ITEM('',(#44),#211);
#213=VECTOR('',#38,1.255853093056E0);
#214=CARTESIAN_POINT('',(1.399389808257E0,-5.391869343405E-1,-6.279265465280E-1));
#215=LINE('',#214,#213);
#216=STYLED_ITEM('',(#44),#215);
#217=DIRECTION('',(1.200447580761E-1,9.776860966339E-1,1.723924375001E-1));
#218=VECTOR('',#217,4.215791745029E-1);
#219=CARTESIAN_POINT('',(1.399389808257E0,-5.391869343405E-1,6.279265465280E-1));
#220=LINE('',#219,#218);
#221=STYLED_ITEM('',(#44),#220);
#222=CARTESIAN_POINT('',(1.45E0,-1.27E-1,7.E-1));
#223=CARTESIAN_POINT('',(1.45E0,-1.27E-1,7.002013259953E-1));
#224=CARTESIAN_POINT('',(1.449999392024E0,-1.270049515647E-1,7.004025285198E-1));
#225=CARTESIAN_POINT('',(1.449998178270E0,-1.270148367986E-1,7.006036080199E-1));
#226=B_SPLINE_CURVE_WITH_KNOTS('',3,(#222,#223,#224,#225),.UNSPECIFIED.,.F.,.F.,(4,4),(0.E0,1.E0),.UNSPECIFIED.);
#227=STYLED_ITEM('',(#44),#226);
#228=LINE('',#222,#75);
#229=STYLED_ITEM('',(#44),#228);
#230=CARTESIAN_POINT('',(1.449998178270E0,-1.270148367986E-1,-7.006036080199E-1));
#231=CARTESIAN_POINT('',(1.449999392024E0,-1.270049515647E-1,-7.004025285198E-1));
#232=CARTESIAN_POINT('',(1.45E0,-1.27E-1,-7.002013259953E-1));
#233=CARTESIAN_POINT('',(1.45E0,-1.27E-1,-7.E-1));
#234=B_SPLINE_CURVE_WITH_KNOTS('',3,(#230,#231,#232,#233),.UNSPECIFIED.,.F.,.F.,(4,4),(0.E0,1.E0),.UNSPECIFIED.);
#235=STYLED_ITEM('',(#44),#234);
#236=VECTOR('',#107,4.215791745029E-1);
#237=LINE('',#214,#236);
#238=STYLED_ITEM('',(#44),#237);
#239=CARTESIAN_POINT('',(1.300135193093E0,-5.27E-1,-6.279265465280E-1));
#240=DIRECTION('',(0.E0,-1.736481776669E-1,-9.848077530122E-1));
#241=AXIS2_PLACEMENT_3D('',#239,#64,#240);
#242=CIRCLE('',#241,1.E-1);
#243=STYLED_ITEM('',(#44),#242);
#244=AXIS2_PLACEMENT_3D('',#239,#56,#193);
#245=CIRCLE('',#244,1.E-1);
#246=STYLED_ITEM('',(#44),#245);
#247=DIRECTION('',(9.925461516413E-1,-1.218693434051E-1,0.E0));
#248=AXIS2_PLACEMENT_3D('',#239,#51,#247);
#249=CIRCLE('',#248,1.E-1);
#250=STYLED_ITEM('',(#44),#249);
#251=CARTESIAN_POINT('',(1.449974996049E0,-1.272036408417E-1,-7.044441466558E-1));
#252=CARTESIAN_POINT('',(1.449481181886E0,-1.276210993620E-1,-7.125388260574E-1));
#253=CARTESIAN_POINT('',(1.446999093942E0,-1.282890213304E-1,-7.256159035670E-1));
#254=CARTESIAN_POINT('',(1.442253445431E0,-1.289396889993E-1,-7.396324977120E-1));
#255=CARTESIAN_POINT('',(1.434440823764E0,-1.295040336185E-1,-7.546023511942E-1));
#256=CARTESIAN_POINT('',(1.422269120356E0,-1.298522932703E-1,-7.701484599476E-1));
#257=CARTESIAN_POINT('',(1.405851915049E0,-1.297868781713E-1,-7.839005433312E-1));
#258=CARTESIAN_POINT('',(1.386631402060E0,-1.292116705592E-1,-7.938204545316E-1));
#259=CARTESIAN_POINT('',(1.367805469301E0,-1.282436516016E-1,-7.989569130743E-1));
#260=CARTESIAN_POINT('',(1.356584240724E0,-1.274597424833E-1,-7.999189349960E-1));
#261=CARTESIAN_POINT('',(1.351374570139E0,-1.270535803516E-1,-7.999905523384E-1));
#262=B_SPLINE_CURVE_WITH_KNOTS('',3,(#230,#251,#252,#253,#254,#255,#256,#257,#258,#259,#260,#261),.UNSPECIFIED.,.F.,.F.,(4,1,1,1,1,1,1,1,1,4),(0.E0,1.111111111111E-1,2.222222222222E-1,3.333333333333E-1,4.444444444444E-1,5.555555555556E-1,6.666666666667E-1,7.777777777778E-1,8.888888888889E-1,1.E0),.UNSPECIFIED.);
#263=STYLED_ITEM('',(#44),#262);
#264=CARTESIAN_POINT('',(-1.351374570139E0,-1.270535803516E-1,-7.999905523384E-1));
#265=CARTESIAN_POINT('',(-1.350917094665E0,-1.270179141399E-1,-7.999968412538E-1));
#266=CARTESIAN_POINT('',(-1.350458906786E0,-1.27E-1,-8.E-1));
#267=CARTESIAN_POINT('',(-1.35E0,-1.27E-1,-8.E-1));
#268=B_SPLINE_CURVE_WITH_KNOTS('',3,(#264,#265,#266,#267),.UNSPECIFIED.,.F.,.F.,(4,4),(0.E0,1.E0),.UNSPECIFIED.);
#269=STYLED_ITEM('',(#44),#268);
#270=VECTOR('',#164,4.268356058779E-1);
#271=CARTESIAN_POINT('',(-1.300135193093E0,-5.443648177667E-1,-7.264073218293E-1));
#272=LINE('',#271,#270);
#273=STYLED_ITEM('',(#44),#272);
#274=VECTOR('',#56,2.600270386186E0);
#275=LINE('',#271,#274);
#276=STYLED_ITEM('',(#44),#275);
#277=VECTOR('',#107,4.268356058779E-1);
#278=CARTESIAN_POINT('',(1.300135193093E0,-5.443648177667E-1,-7.264073218293E-1));
#279=LINE('',#278,#277);
#280=STYLED_ITEM('',(#44),#279);
#281=CARTESIAN_POINT('',(1.35E0,-1.27E-1,-8.E-1));
#282=CARTESIAN_POINT('',(1.350458906786E0,-1.27E-1,-8.E-1));
#283=CARTESIAN_POINT('',(1.350917094665E0,-1.270179141399E-1,-7.999968412538E-1));
#284=B_SPLINE_CURVE_WITH_KNOTS('',3,(#281,#282,#283,#261),.UNSPECIFIED.,.F.,.F.,(4,4),(0.E0,1.E0),.UNSPECIFIED.);
#285=STYLED_ITEM('',(#44),#284);
#286=VECTOR('',#46,2.7E0);
#287=LINE('',#281,#286);
#288=STYLED_ITEM('',(#44),#287);
#289=CARTESIAN_POINT('',(-1.356593741758E0,-1.274604832135E-1,-7.999188043853E-1));
#290=CARTESIAN_POINT('',(-1.367822177221E0,-1.282442964381E-1,-7.989500505031E-1));
#291=CARTESIAN_POINT('',(-1.386570937036E0,-1.292090400476E-1,-7.938424073293E-1));
#292=CARTESIAN_POINT('',(-1.405804395846E0,-1.297856613366E-1,-7.839270851730E-1));
#293=CARTESIAN_POINT('',(-1.422152805307E0,-1.298532123072E-1,-7.702641739983E-1));
#294=CARTESIAN_POINT('',(-1.434384934163E0,-1.295071334707E-1,-7.546947711290E-1));
#295=CARTESIAN_POINT('',(-1.442213580428E0,-1.289437527929E-1,-7.397275496635E-1));
#296=CARTESIAN_POINT('',(-1.446989811343E0,-1.282913153302E-1,-7.256605178873E-1));
#297=CARTESIAN_POINT('',(-1.449478783341E0,-1.276223273242E-1,-7.125626608354E-1));
#298=CARTESIAN_POINT('',(-1.449974953981E0,-1.272039834549E-1,-7.044511158878E-1));
#299=CARTESIAN_POINT('',(-1.449998178270E0,-1.270148367986E-1,-7.006036080199E-1));
#300=B_SPLINE_CURVE_WITH_KNOTS('',3,(#264,#289,#290,#291,#292,#293,#294,#295,#296,#297,#298,#299),.UNSPECIFIED.,.F.,.F.,(4,1,1,1,1,1,1,1,1,4),(0.E0,1.111111111111E-1,2.222222222222E-1,3.333333333333E-1,4.444444444444E-1,5.555555555556E-1,6.666666666667E-1,7.777777777778E-1,8.888888888889E-1,1.E0),.UNSPECIFIED.);
#301=STYLED_ITEM('',(#44),#300);
#302=VECTOR('',#51,1.255853093056E0);
#303=CARTESIAN_POINT('',(-1.399389808257E0,-5.391869343405E-1,6.279265465280E-1));
#304=LINE('',#303,#302);
#305=STYLED_ITEM('',(#44),#304);
#306=VECTOR('',#164,4.215791745029E-1);
#307=CARTESIAN_POINT('',(-1.399389808257E0,-5.391869343405E-1,-6.279265465280E-1));
#308=LINE('',#307,#306);
#309=STYLED_ITEM('',(#44),#308);
#310=CARTESIAN_POINT('',(-1.45E0,-1.27E-1,-7.E-1));
#311=CARTESIAN_POINT('',(-1.45E0,-1.27E-1,-7.002013259953E-1));
#312=CARTESIAN_POINT('',(-1.449999392024E0,-1.270049515647E-1,-7.004025285198E-1));
#313=B_SPLINE_CURVE_WITH_KNOTS('',3,(#310,#311,#312,#299),.UNSPECIFIED.,.F.,.F.,(4,4),(0.E0,1.E0),.UNSPECIFIED.);
#314=STYLED_ITEM('',(#44),#313);
#315=CARTESIAN_POINT('',(-1.45E0,-1.27E-1,7.E-1));
#316=LINE('',#315,#75);
#317=STYLED_ITEM('',(#44),#316);
#318=CARTESIAN_POINT('',(-1.449998178270E0,-1.270148367986E-1,7.006036080199E-1));
#319=CARTESIAN_POINT('',(-1.449999392024E0,-1.270049515647E-1,7.004025285198E-1));
#320=CARTESIAN_POINT('',(-1.45E0,-1.27E-1,7.002013259953E-1));
#321=B_SPLINE_CURVE_WITH_KNOTS('',3,(#318,#319,#320,#315),.UNSPECIFIED.,.F.,.F.,(4,4),(0.E0,1.E0),.UNSPECIFIED.);
#322=STYLED_ITEM('',(#44),#321);
#323=DIRECTION('',(-1.200447580761E-1,9.776860966339E-1,1.723924375001E-1));
#324=VECTOR('',#323,4.215791745029E-1);
#325=LINE('',#303,#324);
#326=STYLED_ITEM('',(#44),#325);
#327=CARTESIAN_POINT('',(-1.300135193093E0,-5.27E-1,6.279265465280E-1));
#328=DIRECTION('',(0.E0,-1.736481776669E-1,9.848077530122E-1));
#329=AXIS2_PLACEMENT_3D('',#327,#188,#328);
#330=CIRCLE('',#329,1.E-1);
#331=STYLED_ITEM('',(#44),#330);
#332=AXIS2_PLACEMENT_3D('',#327,#46,#193);
#333=CIRCLE('',#332,1.E-1);
#334=STYLED_ITEM('',(#44),#333);
#335=DIRECTION('',(-9.925461516413E-1,-1.218693434051E-1,0.E0));
#336=AXIS2_PLACEMENT_3D('',#327,#38,#335);
#337=CIRCLE('',#336,1.E-1);
#338=STYLED_ITEM('',(#44),#337);
#339=CARTESIAN_POINT('',(-1.449974996049E0,-1.272036408417E-1,7.044441466558E-1));
#340=CARTESIAN_POINT('',(-1.449481181886E0,-1.276210993620E-1,7.125388260574E-1));
#341=CARTESIAN_POINT('',(-1.446999093942E0,-1.282890213304E-1,7.256159035670E-1));
#342=CARTESIAN_POINT('',(-1.442253445431E0,-1.289396889993E-1,7.396324977120E-1));
#343=CARTESIAN_POINT('',(-1.434440823764E0,-1.295040336185E-1,7.546023511942E-1));
#344=CARTESIAN_POINT('',(-1.422269120356E0,-1.298522932703E-1,7.701484599476E-1));
#345=CARTESIAN_POINT('',(-1.405851915049E0,-1.297868781713E-1,7.839005433312E-1));
#346=CARTESIAN_POINT('',(-1.386631402060E0,-1.292116705592E-1,7.938204545316E-1));
#347=CARTESIAN_POINT('',(-1.367805469301E0,-1.282436516016E-1,7.989569130743E-1));
#348=CARTESIAN_POINT('',(-1.356584240724E0,-1.274597424833E-1,7.999189349960E-1));
#349=CARTESIAN_POINT('',(-1.351374570139E0,-1.270535803516E-1,7.999905523384E-1));
#350=B_SPLINE_CURVE_WITH_KNOTS('',3,(#318,#339,#340,#341,#342,#343,#344,#345,#346,#347,#348,#349),.UNSPECIFIED.,.F.,.F.,(4,1,1,1,1,1,1,1,1,4),(0.E0,1.111111111111E-1,2.222222222222E-1,3.333333333333E-1,4.444444444444E-1,5.555555555556E-1,6.666666666667E-1,7.777777777778E-1,8.888888888889E-1,1.E0),.UNSPECIFIED.);
#351=STYLED_ITEM('',(#44),#350);
#352=CARTESIAN_POINT('',(1.351374570139E0,-1.270535803516E-1,7.999905523384E-1));
#353=CARTESIAN_POINT('',(1.350917094665E0,-1.270179141399E-1,7.999968412538E-1));
#354=CARTESIAN_POINT('',(1.350458906786E0,-1.27E-1,8.E-1));
#355=CARTESIAN_POINT('',(1.35E0,-1.27E-1,8.E-1));
#356=B_SPLINE_CURVE_WITH_KNOTS('',3,(#352,#353,#354,#355),.UNSPECIFIED.,.F.,.F.,(4,4),(0.E0,1.E0),.UNSPECIFIED.);
#357=STYLED_ITEM('',(#44),#356);
#358=VECTOR('',#217,4.268356058779E-1);
#359=CARTESIAN_POINT('',(1.300135193093E0,-5.443648177667E-1,7.264073218293E-1));
#360=LINE('',#359,#358);
#361=STYLED_ITEM('',(#44),#360);
#362=VECTOR('',#46,2.600270386186E0);
#363=LINE('',#359,#362);
#364=STYLED_ITEM('',(#44),#363);
#365=VECTOR('',#323,4.268356058779E-1);
#366=CARTESIAN_POINT('',(-1.300135193093E0,-5.443648177667E-1,7.264073218293E-1));
#367=LINE('',#366,#365);
#368=STYLED_ITEM('',(#44),#367);
#369=CARTESIAN_POINT('',(-1.35E0,-1.27E-1,8.E-1));
#370=CARTESIAN_POINT('',(-1.350458906786E0,-1.27E-1,8.E-1));
#371=CARTESIAN_POINT('',(-1.350917094665E0,-1.270179141399E-1,7.999968412538E-1));
#372=B_SPLINE_CURVE_WITH_KNOTS('',3,(#369,#370,#371,#349),.UNSPECIFIED.,.F.,.F.,(4,4),(0.E0,1.E0),.UNSPECIFIED.);
#373=STYLED_ITEM('',(#44),#372);
#374=LINE('',#355,#286);
#375=STYLED_ITEM('',(#44),#374);
#376=CARTESIAN_POINT('',(1.356593741758E0,-1.274604832135E-1,7.999188043853E-1));
#377=CARTESIAN_POINT('',(1.367822177221E0,-1.282442964381E-1,7.989500505031E-1));
#378=CARTESIAN_POINT('',(1.386570937036E0,-1.292090400476E-1,7.938424073293E-1));
#379=CARTESIAN_POINT('',(1.405804395846E0,-1.297856613366E-1,7.839270851730E-1));
#380=CARTESIAN_POINT('',(1.422152805307E0,-1.298532123072E-1,7.702641739983E-1));
#381=CARTESIAN_POINT('',(1.434384934163E0,-1.295071334707E-1,7.546947711290E-1));
#382=CARTESIAN_POINT('',(1.442213580428E0,-1.289437527929E-1,7.397275496635E-1));
#383=CARTESIAN_POINT('',(1.446989811343E0,-1.282913153302E-1,7.256605178873E-1));
#384=CARTESIAN_POINT('',(1.449478783341E0,-1.276223273242E-1,7.125626608354E-1));
#385=CARTESIAN_POINT('',(1.449974953981E0,-1.272039834549E-1,7.044511158878E-1));
#386=B_SPLINE_CURVE_WITH_KNOTS('',3,(#352,#376,#377,#378,#379,#380,#381,#382,#383,#384,#385,#225),.UNSPECIFIED.,.F.,.F.,(4,1,1,1,1,1,1,1,1,4),(0.E0,1.111111111111E-1,2.222222222222E-1,3.333333333333E-1,4.444444444444E-1,5.555555555556E-1,6.666666666667E-1,7.777777777778E-1,8.888888888889E-1,1.E0),.UNSPECIFIED.);
#387=STYLED_ITEM('',(#44),#386);
#388=CARTESIAN_POINT('',(1.300135193093E0,-5.27E-1,6.279265465280E-1));
#389=AXIS2_PLACEMENT_3D('',#388,#56,#328);
#390=CIRCLE('',#389,1.E-1);
#391=STYLED_ITEM('',(#44),#390);
#392=AXIS2_PLACEMENT_3D('',#388,#84,#247);
#393=CIRCLE('',#392,1.E-1);
#394=STYLED_ITEM('',(#44),#393);
#395=AXIS2_PLACEMENT_3D('',#388,#38,#193);
#396=CIRCLE('',#395,1.E-1);
#397=STYLED_ITEM('',(#44),#396);
#398=CARTESIAN_POINT('',(1.300135193093E0,-6.27E-1,-6.279265465280E-1));
#399=LINE('',#398,#213);
#400=STYLED_ITEM('',(#44),#399);
#401=CARTESIAN_POINT('',(-1.300135193093E0,-6.27E-1,-6.279265465280E-1));
#402=LINE('',#401,#274);
#403=STYLED_ITEM('',(#44),#402);
#404=CARTESIAN_POINT('',(-1.300135193093E0,-6.27E-1,6.279265465280E-1));
#405=LINE('',#404,#302);
#406=STYLED_ITEM('',(#44),#405);
#407=CARTESIAN_POINT('',(1.300135193093E0,-6.27E-1,6.279265465280E-1));
#408=LINE('',#407,#362);
#409=STYLED_ITEM('',(#44),#408);
#410=CARTESIAN_POINT('',(-1.300135193093E0,-5.27E-1,-6.279265465280E-1));
#411=AXIS2_PLACEMENT_3D('',#410,#46,#240);
#412=CIRCLE('',#411,1.E-1);
#413=STYLED_ITEM('',(#44),#412);
#414=AXIS2_PLACEMENT_3D('',#410,#116,#335);
#415=CIRCLE('',#414,1.E-1);
#416=STYLED_ITEM('',(#44),#415);
#417=AXIS2_PLACEMENT_3D('',#410,#51,#193);
#418=CIRCLE('',#417,1.E-1);
#419=STYLED_ITEM('',(#44),#418);
#420=CARTESIAN_POINT('',(1.334514870146E0,1.373648177667E-1,-7.757788764276E-1));
#421=LINE('',#420,#47);
#422=STYLED_ITEM('',(#44),#421);
#423=VECTOR('',#84,1.404451161654E-1);
#424=CARTESIAN_POINT('',(-1.334514870146E0,1.373648177667E-1,-7.757788764276E-1));
#425=LINE('',#424,#423);
#426=STYLED_ITEM('',(#44),#425);
#427=CARTESIAN_POINT('',(-1.350458906786E0,0.E0,-8.E-1));
#428=CARTESIAN_POINT('',(-1.350917094665E0,1.791413994513E-5,-7.999968412538E-1));
#429=CARTESIAN_POINT('',(-1.351374570139E0,5.358035160674E-5,-7.999905523384E-1));
#430=B_SPLINE_CURVE_WITH_KNOTS('',3,(#195,#427,#428,#429),.UNSPECIFIED.,.F.,.F.,(4,4),(0.E0,1.E0),.UNSPECIFIED.);
#431=STYLED_ITEM('',(#44),#430);
#432=LINE('',#195,#127);
#433=STYLED_ITEM('',(#44),#432);
#434=CARTESIAN_POINT('',(1.351374570139E0,5.358035160674E-5,-7.999905523384E-1));
#435=CARTESIAN_POINT('',(1.350917094665E0,1.791413994515E-5,-7.999968412538E-1));
#436=CARTESIAN_POINT('',(1.350458906786E0,0.E0,-8.E-1));
#437=B_SPLINE_CURVE_WITH_KNOTS('',3,(#434,#435,#436,#198),.UNSPECIFIED.,.F.,.F.,(4,4),(0.E0,1.E0),.UNSPECIFIED.);
#438=STYLED_ITEM('',(#44),#437);
#439=VECTOR('',#188,1.404451161654E-1);
#440=LINE('',#420,#439);
#441=STYLED_ITEM('',(#44),#440);
#442=CARTESIAN_POINT('',(-1.334514870146E0,1.2E-1,-6.772981011264E-1));
#443=DIRECTION('',(0.E0,1.736481776669E-1,-9.848077530122E-1));
#444=AXIS2_PLACEMENT_3D('',#442,#217,#443);
#445=CIRCLE('',#444,1.E-1);
#446=STYLED_ITEM('',(#44),#445);
#447=AXIS2_PLACEMENT_3D('',#442,#46,#112);
#448=CIRCLE('',#447,1.E-1);
#449=STYLED_ITEM('',(#44),#448);
#450=AXIS2_PLACEMENT_3D('',#442,#51,#108);
#451=CIRCLE('',#450,1.E-1);
#452=STYLED_ITEM('',(#44),#451);
#453=CARTESIAN_POINT('',(-1.449998178270E0,1.483679860582E-5,-7.006036080199E-1));
#454=CARTESIAN_POINT('',(-1.449974996049E0,2.036408417183E-4,-7.044441466558E-1));
#455=CARTESIAN_POINT('',(-1.449481181886E0,6.210993619814E-4,-7.125388260574E-1));
#456=CARTESIAN_POINT('',(-1.446999093942E0,1.289021330448E-3,-7.256159035670E-1));
#457=CARTESIAN_POINT('',(-1.442253445431E0,1.939688999315E-3,-7.396324977120E-1));
#458=CARTESIAN_POINT('',(-1.434440823764E0,2.504033618514E-3,-7.546023511942E-1));
#459=CARTESIAN_POINT('',(-1.422269120356E0,2.852293270344E-3,-7.701484599476E-1));
#460=CARTESIAN_POINT('',(-1.405851915049E0,2.786878171331E-3,-7.839005433312E-1));
#461=CARTESIAN_POINT('',(-1.386631402060E0,2.211670559193E-3,-7.938204545316E-1));
#462=CARTESIAN_POINT('',(-1.367805469301E0,1.243651601570E-3,-7.989569130743E-1));
#463=CARTESIAN_POINT('',(-1.356584240724E0,4.597424833304E-4,-7.999189349960E-1));
#464=CARTESIAN_POINT('',(-1.351374570139E0,5.358035160641E-5,-7.999905523384E-1));
#465=B_SPLINE_CURVE_WITH_KNOTS('',3,(#453,#454,#455,#456,#457,#458,#459,#460,#461,#462,#463,#464),.UNSPECIFIED.,.F.,.F.,(4,1,1,1,1,1,1,1,1,4),(0.E0,1.111111111111E-1,2.222222222222E-1,3.333333333333E-1,4.444444444444E-1,5.555555555556E-1,6.666666666667E-1,7.777777777778E-1,8.888888888889E-1,1.E0),.UNSPECIFIED.);
#466=STYLED_ITEM('',(#44),#465);
#467=CARTESIAN_POINT('',(1.334514870146E0,1.2E-1,-6.772981011264E-1));
#468=AXIS2_PLACEMENT_3D('',#467,#51,#112);
#469=CIRCLE('',#468,1.E-1);
#470=STYLED_ITEM('',(#44),#469);
#471=AXIS2_PLACEMENT_3D('',#467,#56,#443);
#472=CIRCLE('',#471,1.E-1);
#473=STYLED_ITEM('',(#44),#472);
#474=AXIS2_PLACEMENT_3D('',#467,#323,#160);
#475=CIRCLE('',#474,1.E-1);
#476=STYLED_ITEM('',(#44),#475);
#477=CARTESIAN_POINT('',(1.351374570139E0,5.358035160637E-5,-7.999905523384E-1));
#478=CARTESIAN_POINT('',(1.356593741758E0,4.604832134665E-4,-7.999188043853E-1));
#479=CARTESIAN_POINT('',(1.367822177221E0,1.244296438115E-3,-7.989500505031E-1));
#480=CARTESIAN_POINT('',(1.386570937036E0,2.209040047596E-3,-7.938424073293E-1));
#481=CARTESIAN_POINT('',(1.405804395846E0,2.785661336614E-3,-7.839270851730E-1));
#482=CARTESIAN_POINT('',(1.422152805307E0,2.853212307215E-3,-7.702641739983E-1));
#483=CARTESIAN_POINT('',(1.434384934163E0,2.507133470660E-3,-7.546947711290E-1));
#484=CARTESIAN_POINT('',(1.442213580428E0,1.943752792882E-3,-7.397275496635E-1));
#485=CARTESIAN_POINT('',(1.446989811343E0,1.291315330175E-3,-7.256605178873E-1));
#486=CARTESIAN_POINT('',(1.449478783341E0,6.223273242156E-4,-7.125626608354E-1));
#487=CARTESIAN_POINT('',(1.449974953981E0,2.039834549046E-4,-7.044511158878E-1));
#488=CARTESIAN_POINT('',(1.449998178270E0,1.483679860579E-5,-7.006036080199E-1));
#489=B_SPLINE_CURVE_WITH_KNOTS('',3,(#477,#478,#479,#480,#481,#482,#483,#484,#485,#486,#487,#488),.UNSPECIFIED.,.F.,.F.,(4,1,1,1,1,1,1,1,1,4),(0.E0,1.111111111111E-1,2.222222222222E-1,3.333333333333E-1,4.444444444444E-1,5.555555555556E-1,6.666666666667E-1,7.777777777778E-1,8.888888888889E-1,1.E0),.UNSPECIFIED.);
#490=STYLED_ITEM('',(#44),#489);
#491=VERTEX_POINT('',#214);
#492=VERTEX_POINT('',#219);
#493=VERTEX_POINT('',#398);
#494=VERTEX_POINT('',#407);
#495=VERTEX_POINT('',#303);
#496=VERTEX_POINT('',#307);
#497=VERTEX_POINT('',#404);
#498=VERTEX_POINT('',#401);
#499=VERTEX_POINT('',#61);
#500=VERTEX_POINT('',#66);
#501=VERTEX_POINT('',#40);
#502=VERTEX_POINT('',#58);
#503=VERTEX_POINT('',#48);
#504=VERTEX_POINT('',#420);
#505=VERTEX_POINT('',#424);
#506=VERTEX_POINT('',#464);
#507=CARTESIAN_POINT('',(-1.449998178270E0,1.483679860581E-5,-7.006036080199E-1));
#508=VERTEX_POINT('',#507);
#509=VERTEX_POINT('',#81);
#510=VERTEX_POINT('',#310);
#511=VERTEX_POINT('',#299);
#512=VERTEX_POINT('',#264);
#513=VERTEX_POINT('',#267);
#514=VERTEX_POINT('',#195);
#515=VERTEX_POINT('',#271);
#516=VERTEX_POINT('',#278);
#517=VERTEX_POINT('',#261);
#518=VERTEX_POINT('',#230);
#519=VERTEX_POINT('',#198);
#520=VERTEX_POINT('',#281);
#521=VERTEX_POINT('',#233);
#522=VERTEX_POINT('',#168);
#523=VERTEX_POINT('',#171);
#524=VERTEX_POINT('',#434);
#525=VERTEX_POINT('',#190);
#526=VERTEX_POINT('',#183);
#527=VERTEX_POINT('',#53);
#528=VERTEX_POINT('',#118);
#529=VERTEX_POINT('',#153);
#530=VERTEX_POINT('',#142);
#531=VERTEX_POINT('',#174);
#532=VERTEX_POINT('',#222);
#533=VERTEX_POINT('',#225);
#534=VERTEX_POINT('',#352);
#535=VERTEX_POINT('',#355);
#536=VERTEX_POINT('',#121);
#537=VERTEX_POINT('',#359);
#538=VERTEX_POINT('',#366);
#539=VERTEX_POINT('',#349);
#540=VERTEX_POINT('',#318);
#541=VERTEX_POINT('',#128);
#542=VERTEX_POINT('',#369);
#543=VERTEX_POINT('',#315);
#544=VERTEX_POINT('',#69);
#545=VERTEX_POINT('',#72);
#546=VERTEX_POINT('',#131);
#547=VERTEX_POINT('',#137);
#548=CARTESIAN_POINT('',(0.E0,2.2E-1,0.E0));
#549=AXIS2_PLACEMENT_3D('',#548,#112,#56);
#550=PLANE('',#549);
#551=EDGE_CURVE('',#501,#502,#41,.T.);
#552=ORIENTED_EDGE('',*,*,#551,.F.);
#553=EDGE_CURVE('',#503,#501,#49,.T.);
#554=ORIENTED_EDGE('',*,*,#553,.F.);
#555=EDGE_CURVE('',#527,#503,#54,.T.);
#556=ORIENTED_EDGE('',*,*,#555,.F.);
#557=EDGE_CURVE('',#502,#527,#59,.T.);
#558=ORIENTED_EDGE('',*,*,#557,.F.);
#559=EDGE_LOOP('',(#552,#554,#556,#558));
#560=FACE_OUTER_BOUND('',#559,.F.);
#561=ADVANCED_FACE('',(#560),#550,.T.);
#562=CARTESIAN_POINT('',(-1.334514870146E0,1.2E-1,-2.88576E0));
#563=AXIS2_PLACEMENT_3D('',#562,#38,#112);
#564=CYLINDRICAL_SURFACE('',#563,1.E-1);
#565=EDGE_CURVE('',#499,#500,#62,.T.);
#566=ORIENTED_EDGE('',*,*,#565,.F.);
#567=EDGE_CURVE('',#499,#501,#451,.T.);
#568=ORIENTED_EDGE('',*,*,#567,.T.);
#569=ORIENTED_EDGE('',*,*,#551,.T.);
#570=EDGE_CURVE('',#502,#500,#114,.T.);
#571=ORIENTED_EDGE('',*,*,#570,.T.);
#572=EDGE_LOOP('',(#566,#568,#569,#571));
#573=FACE_OUTER_BOUND('',#572,.F.);
#574=ADVANCED_FACE('',(#573),#564,.T.);
#575=CARTESIAN_POINT('',(-1.45E0,0.E0,-8.E-1));
#576=AXIS2_PLACEMENT_3D('',#575,#108,#38);
#577=PLANE('',#576);
#578=ORIENTED_EDGE('',*,*,#565,.T.);
#579=EDGE_CURVE('',#500,#545,#67,.T.);
#580=ORIENTED_EDGE('',*,*,#579,.T.);
#581=EDGE_CURVE('',#544,#545,#73,.T.);
#582=ORIENTED_EDGE('',*,*,#581,.F.);
#583=EDGE_CURVE('',#544,#509,#76,.T.);
#584=ORIENTED_EDGE('',*,*,#583,.T.);
#585=EDGE_CURVE('',#508,#509,#82,.T.);
#586=ORIENTED_EDGE('',*,*,#585,.F.);
#587=EDGE_CURVE('',#499,#508,#86,.T.);
#588=ORIENTED_EDGE('',*,*,#587,.F.);
#589=EDGE_LOOP('',(#578,#580,#582,#584,#586,#588));
#590=FACE_OUTER_BOUND('',#589,.F.);
#591=ADVANCED_FACE('',(#590),#577,.T.);
#592=CARTESIAN_POINT('',(-1.186663939362E0,1.3241492E0,4.649741083679E-1));
#593=AXIS2_PLACEMENT_3D('',#592,#64,#103);
#594=CYLINDRICAL_SURFACE('',#593,1.E-1);
#595=ORIENTED_EDGE('',*,*,#579,.F.);
#596=EDGE_CURVE('',#500,#547,#110,.T.);
#597=ORIENTED_EDGE('',*,*,#596,.T.);
#598=EDGE_CURVE('',#547,#546,#138,.T.);
#599=ORIENTED_EDGE('',*,*,#598,.T.);
#600=EDGE_CURVE('',#546,#545,#100,.T.);
#601=ORIENTED_EDGE('',*,*,#600,.T.);
#602=EDGE_LOOP('',(#595,#597,#599,#601));
#603=FACE_OUTER_BOUND('',#602,.F.);
#604=ADVANCED_FACE('',(#603),#594,.T.);
#605=DIRECTION('',(0.E0,-6.427876096865E-1,7.660444431190E-1));
#606=DIRECTION('',(0.E0,7.660444431190E-1,6.427876096865E-1));
#607=AXIS2_PLACEMENT_3D('',#102,#605,#606);
#608=SPHERICAL_SURFACE('',#607,1.E-1);
#609=EDGE_CURVE('',#547,#502,#105,.T.);
#610=ORIENTED_EDGE('',*,*,#609,.F.);
#611=ORIENTED_EDGE('',*,*,#596,.F.);
#612=ORIENTED_EDGE('',*,*,#570,.F.);
#613=EDGE_LOOP('',(#610,#611,#612));
#614=FACE_OUTER_BOUND('',#613,.F.);
#615=ADVANCED_FACE('',(#614),#608,.T.);
#616=CARTESIAN_POINT('',(-5.23044E0,1.2E-1,6.772981011264E-1));
#617=AXIS2_PLACEMENT_3D('',#616,#56,#112);
#618=CYLINDRICAL_SURFACE('',#617,1.E-1);
#619=EDGE_CURVE('',#547,#528,#140,.T.);
#620=ORIENTED_EDGE('',*,*,#619,.F.);
#621=ORIENTED_EDGE('',*,*,#609,.T.);
#622=ORIENTED_EDGE('',*,*,#557,.T.);
#623=EDGE_CURVE('',#527,#528,#158,.T.);
#624=ORIENTED_EDGE('',*,*,#623,.T.);
#625=EDGE_LOOP('',(#620,#621,#622,#624));
#626=FACE_OUTER_BOUND('',#625,.F.);
#627=ADVANCED_FACE('',(#626),#618,.T.);
#628=CARTESIAN_POINT('',(-1.45E0,0.E0,8.E-1));
#629=AXIS2_PLACEMENT_3D('',#628,#103,#56);
#630=PLANE('',#629);
#631=EDGE_CURVE('',#528,#529,#119,.T.);
#632=ORIENTED_EDGE('',*,*,#631,.T.);
#633=EDGE_CURVE('',#536,#529,#125,.T.);
#634=ORIENTED_EDGE('',*,*,#633,.F.);
#635=EDGE_CURVE('',#541,#536,#129,.T.);
#636=ORIENTED_EDGE('',*,*,#635,.F.);
#637=EDGE_CURVE('',#546,#541,#134,.T.);
#638=ORIENTED_EDGE('',*,*,#637,.F.);
#639=ORIENTED_EDGE('',*,*,#598,.F.);
#640=ORIENTED_EDGE('',*,*,#619,.T.);
#641=EDGE_LOOP('',(#632,#634,#636,#638,#639,#640));
#642=FACE_OUTER_BOUND('',#641,.F.);
#643=ADVANCED_FACE('',(#642),#630,.T.);
#644=CARTESIAN_POINT('',(1.186663939362E0,1.3241492E0,4.649741083679E-1));
#645=AXIS2_PLACEMENT_3D('',#644,#116,#160);
#646=CYLINDRICAL_SURFACE('',#645,1.E-1);
#647=ORIENTED_EDGE('',*,*,#631,.F.);
#648=EDGE_CURVE('',#528,#526,#166,.T.);
#649=ORIENTED_EDGE('',*,*,#648,.T.);
#650=EDGE_CURVE('',#526,#530,#184,.T.);
#651=ORIENTED_EDGE('',*,*,#650,.T.);
#652=EDGE_CURVE('',#530,#529,#154,.T.);
#653=ORIENTED_EDGE('',*,*,#652,.T.);
#654=EDGE_LOOP('',(#647,#649,#651,#653));
#655=FACE_OUTER_BOUND('',#654,.F.);
#656=ADVANCED_FACE('',(#655),#646,.T.);
#657=DIRECTION('',(-7.093823650470E-1,3.700683524616E-2,7.038516564627E-1));
#658=DIRECTION('',(6.945256771486E-1,2.067858568516E-1,6.891107989195E-1));
#659=AXIS2_PLACEMENT_3D('',#156,#657,#658);
#660=SPHERICAL_SURFACE('',#659,1.E-1);
#661=ORIENTED_EDGE('',*,*,#623,.F.);
#662=EDGE_CURVE('',#526,#527,#162,.T.);
#663=ORIENTED_EDGE('',*,*,#662,.F.);
#664=ORIENTED_EDGE('',*,*,#648,.F.);
#665=EDGE_LOOP('',(#661,#663,#664));
#666=FACE_OUTER_BOUND('',#665,.F.);
#667=ADVANCED_FACE('',(#666),#660,.T.);
#668=CARTESIAN_POINT('',(1.334514870146E0,1.2E-1,2.88576E0));
#669=AXIS2_PLACEMENT_3D('',#668,#51,#112);
#670=CYLINDRICAL_SURFACE('',#669,1.E-1);
#671=EDGE_CURVE('',#526,#525,#186,.T.);
#672=ORIENTED_EDGE('',*,*,#671,.F.);
#673=ORIENTED_EDGE('',*,*,#662,.T.);
#674=ORIENTED_EDGE('',*,*,#555,.T.);
#675=EDGE_CURVE('',#503,#525,#469,.T.);
#676=ORIENTED_EDGE('',*,*,#675,.T.);
#677=EDGE_LOOP('',(#672,#673,#674,#676));
#678=FACE_OUTER_BOUND('',#677,.F.);
#679=ADVANCED_FACE('',(#678),#670,.T.);
#680=CARTESIAN_POINT('',(1.45E0,0.E0,8.E-1));
#681=AXIS2_PLACEMENT_3D('',#680,#160,#51);
#682=PLANE('',#681);
#683=EDGE_CURVE('',#522,#523,#172,.T.);
#684=ORIENTED_EDGE('',*,*,#683,.F.);
#685=EDGE_CURVE('',#531,#522,#175,.T.);
#686=ORIENTED_EDGE('',*,*,#685,.F.);
#687=EDGE_CURVE('',#530,#531,#180,.T.);
#688=ORIENTED_EDGE('',*,*,#687,.F.);
#689=ORIENTED_EDGE('',*,*,#650,.F.);
#690=ORIENTED_EDGE('',*,*,#671,.T.);
#691=EDGE_CURVE('',#525,#523,#191,.T.);
#692=ORIENTED_EDGE('',*,*,#691,.T.);
#693=EDGE_LOOP('',(#684,#686,#688,#689,#690,#692));
#694=FACE_OUTER_BOUND('',#693,.F.);
#695=ADVANCED_FACE('',(#694),#682,.T.);
#696=CARTESIAN_POINT('',(1.35E0,1.3241492E0,-7.E-1));
#697=AXIS2_PLACEMENT_3D('',#696,#193,#51);
#698=CYLINDRICAL_SURFACE('',#697,1.E-1);
#699=EDGE_CURVE('',#519,#520,#199,.T.);
#700=ORIENTED_EDGE('',*,*,#699,.T.);
#701=EDGE_CURVE('',#520,#517,#284,.T.);
#702=ORIENTED_EDGE('',*,*,#701,.T.);
#703=EDGE_CURVE('',#518,#517,#262,.T.);
#704=ORIENTED_EDGE('',*,*,#703,.F.);
#705=EDGE_CURVE('',#518,#521,#234,.T.);
#706=ORIENTED_EDGE('',*,*,#705,.T.);
#707=EDGE_CURVE('',#522,#521,#209,.T.);
#708=ORIENTED_EDGE('',*,*,#707,.F.);
#709=ORIENTED_EDGE('',*,*,#683,.T.);
#710=EDGE_CURVE('',#524,#523,#489,.T.);
#711=ORIENTED_EDGE('',*,*,#710,.F.);
#712=EDGE_CURVE('',#524,#519,#437,.T.);
#713=ORIENTED_EDGE('',*,*,#712,.T.);
#714=EDGE_LOOP('',(#700,#702,#704,#706,#708,#709,#711,#713));
#715=FACE_OUTER_BOUND('',#714,.F.);
#716=ADVANCED_FACE('',(#715),#698,.T.);
#717=CARTESIAN_POINT('',(1.45E0,0.E0,-8.E-1));
#718=AXIS2_PLACEMENT_3D('',#717,#51,#46);
#719=PLANE('',#718);
#720=EDGE_CURVE('',#514,#513,#196,.T.);
#721=ORIENTED_EDGE('',*,*,#720,.T.);
#722=EDGE_CURVE('',#520,#513,#287,.T.);
#723=ORIENTED_EDGE('',*,*,#722,.F.);
#724=ORIENTED_EDGE('',*,*,#699,.F.);
#725=EDGE_CURVE('',#514,#519,#432,.T.);
#726=ORIENTED_EDGE('',*,*,#725,.F.);
#727=EDGE_LOOP('',(#721,#723,#724,#726));
#728=FACE_OUTER_BOUND('',#727,.F.);
#729=ADVANCED_FACE('',(#728),#719,.T.);
#730=CARTESIAN_POINT('',(-1.35E0,1.3241492E0,-7.E-1));
#731=AXIS2_PLACEMENT_3D('',#730,#193,#46);
#732=CYLINDRICAL_SURFACE('',#731,1.E-1);
#733=EDGE_CURVE('',#509,#510,#201,.T.);
#734=ORIENTED_EDGE('',*,*,#733,.T.);
#735=EDGE_CURVE('',#510,#511,#313,.T.);
#736=ORIENTED_EDGE('',*,*,#735,.T.);
#737=EDGE_CURVE('',#512,#511,#300,.T.);
#738=ORIENTED_EDGE('',*,*,#737,.F.);
#739=EDGE_CURVE('',#512,#513,#268,.T.);
#740=ORIENTED_EDGE('',*,*,#739,.T.);
#741=ORIENTED_EDGE('',*,*,#720,.F.);
#742=EDGE_CURVE('',#514,#506,#430,.T.);
#743=ORIENTED_EDGE('',*,*,#742,.T.);
#744=EDGE_CURVE('',#508,#506,#465,.T.);
#745=ORIENTED_EDGE('',*,*,#744,.F.);
#746=ORIENTED_EDGE('',*,*,#585,.T.);
#747=EDGE_LOOP('',(#734,#736,#738,#740,#741,#743,#745,#746));
#748=FACE_OUTER_BOUND('',#747,.F.);
#749=ADVANCED_FACE('',(#748),#732,.T.);
#750=AXIS2_PLACEMENT_3D('',#575,#46,#38);
#751=PLANE('',#750);
#752=ORIENTED_EDGE('',*,*,#733,.F.);
#753=ORIENTED_EDGE('',*,*,#583,.F.);
#754=EDGE_CURVE('',#544,#543,#203,.T.);
#755=ORIENTED_EDGE('',*,*,#754,.T.);
#756=EDGE_CURVE('',#543,#510,#316,.T.);
#757=ORIENTED_EDGE('',*,*,#756,.T.);
#758=EDGE_LOOP('',(#752,#753,#755,#757));
#759=FACE_OUTER_BOUND('',#758,.F.);
#760=ADVANCED_FACE('',(#759),#751,.T.);
#761=CARTESIAN_POINT('',(-1.35E0,1.3241492E0,7.E-1));
#762=AXIS2_PLACEMENT_3D('',#761,#193,#38);
#763=CYLINDRICAL_SURFACE('',#762,1.E-1);
#764=EDGE_CURVE('',#541,#542,#207,.T.);
#765=ORIENTED_EDGE('',*,*,#764,.T.);
#766=EDGE_CURVE('',#542,#539,#372,.T.);
#767=ORIENTED_EDGE('',*,*,#766,.T.);
#768=EDGE_CURVE('',#540,#539,#350,.T.);
#769=ORIENTED_EDGE('',*,*,#768,.F.);
#770=EDGE_CURVE('',#540,#543,#321,.T.);
#771=ORIENTED_EDGE('',*,*,#770,.T.);
#772=ORIENTED_EDGE('',*,*,#754,.F.);
#773=ORIENTED_EDGE('',*,*,#581,.T.);
#774=ORIENTED_EDGE('',*,*,#600,.F.);
#775=ORIENTED_EDGE('',*,*,#637,.T.);
#776=EDGE_LOOP('',(#765,#767,#769,#771,#772,#773,#774,#775));
#777=FACE_OUTER_BOUND('',#776,.F.);
#778=ADVANCED_FACE('',(#777),#763,.T.);
#779=AXIS2_PLACEMENT_3D('',#628,#38,#56);
#780=PLANE('',#779);
#781=EDGE_CURVE('',#536,#535,#205,.T.);
#782=ORIENTED_EDGE('',*,*,#781,.T.);
#783=EDGE_CURVE('',#535,#542,#374,.T.);
#784=ORIENTED_EDGE('',*,*,#783,.T.);
#785=ORIENTED_EDGE('',*,*,#764,.F.);
#786=ORIENTED_EDGE('',*,*,#635,.T.);
#787=EDGE_LOOP('',(#782,#784,#785,#786));
#788=FACE_OUTER_BOUND('',#787,.F.);
#789=ADVANCED_FACE('',(#788),#780,.T.);
#790=CARTESIAN_POINT('',(1.35E0,1.3241492E0,7.E-1));
#791=AXIS2_PLACEMENT_3D('',#790,#193,#56);
#792=CYLINDRICAL_SURFACE('',#791,1.E-1);
#793=EDGE_CURVE('',#531,#532,#211,.T.);
#794=ORIENTED_EDGE('',*,*,#793,.T.);
#795=EDGE_CURVE('',#532,#533,#226,.T.);
#796=ORIENTED_EDGE('',*,*,#795,.T.);
#797=EDGE_CURVE('',#534,#533,#386,.T.);
#798=ORIENTED_EDGE('',*,*,#797,.F.);
#799=EDGE_CURVE('',#534,#535,#356,.T.);
#800=ORIENTED_EDGE('',*,*,#799,.T.);
#801=ORIENTED_EDGE('',*,*,#781,.F.);
#802=ORIENTED_EDGE('',*,*,#633,.T.);
#803=ORIENTED_EDGE('',*,*,#652,.F.);
#804=ORIENTED_EDGE('',*,*,#687,.T.);
#805=EDGE_LOOP('',(#794,#796,#798,#800,#801,#802,#803,#804));
#806=FACE_OUTER_BOUND('',#805,.F.);
#807=ADVANCED_FACE('',(#806),#792,.T.);
#808=AXIS2_PLACEMENT_3D('',#680,#56,#51);
#809=PLANE('',#808);
#810=ORIENTED_EDGE('',*,*,#707,.T.);
#811=EDGE_CURVE('',#532,#521,#228,.T.);
#812=ORIENTED_EDGE('',*,*,#811,.F.);
#813=ORIENTED_EDGE('',*,*,#793,.F.);
#814=ORIENTED_EDGE('',*,*,#685,.T.);
#815=EDGE_LOOP('',(#810,#812,#813,#814));
#816=FACE_OUTER_BOUND('',#815,.F.);
#817=ADVANCED_FACE('',(#816),#809,.T.);
#818=CARTESIAN_POINT('',(1.45E0,-1.27E-1,-8.E-1));
#819=AXIS2_PLACEMENT_3D('',#818,#247,#38);
#820=PLANE('',#819);
#821=EDGE_CURVE('',#491,#492,#215,.T.);
#822=ORIENTED_EDGE('',*,*,#821,.T.);
#823=EDGE_CURVE('',#492,#533,#220,.T.);
#824=ORIENTED_EDGE('',*,*,#823,.T.);
#825=ORIENTED_EDGE('',*,*,#795,.F.);
#826=ORIENTED_EDGE('',*,*,#811,.T.);
#827=ORIENTED_EDGE('',*,*,#705,.F.);
#828=EDGE_CURVE('',#491,#518,#237,.T.);
#829=ORIENTED_EDGE('',*,*,#828,.F.);
#830=EDGE_LOOP('',(#822,#824,#825,#826,#827,#829));
#831=FACE_OUTER_BOUND('',#830,.F.);
#832=ADVANCED_FACE('',(#831),#820,.T.);
#833=CARTESIAN_POINT('',(1.300135193093E0,-5.27E-1,-2.88576E0));
#834=AXIS2_PLACEMENT_3D('',#833,#38,#193);
#835=CYLINDRICAL_SURFACE('',#834,1.E-1);
#836=ORIENTED_EDGE('',*,*,#821,.F.);
#837=EDGE_CURVE('',#491,#493,#249,.T.);
#838=ORIENTED_EDGE('',*,*,#837,.T.);
#839=EDGE_CURVE('',#493,#494,#399,.T.);
#840=ORIENTED_EDGE('',*,*,#839,.T.);
#841=EDGE_CURVE('',#494,#492,#396,.T.);
#842=ORIENTED_EDGE('',*,*,#841,.T.);
#843=EDGE_LOOP('',(#836,#838,#840,#842));
#844=FACE_OUTER_BOUND('',#843,.F.);
#845=ADVANCED_FACE('',(#844),#835,.T.);
#846=DIRECTION('',(-7.093823650470E-1,-3.700683524616E-2,-7.038516564627E-1));
#847=DIRECTION('',(6.945256771486E-1,-2.067858568516E-1,-6.891107989195E-1));
#848=AXIS2_PLACEMENT_3D('',#239,#846,#847);
#849=SPHERICAL_SURFACE('',#848,1.E-1);
#850=EDGE_CURVE('',#516,#491,#242,.T.);
#851=ORIENTED_EDGE('',*,*,#850,.F.);
#852=EDGE_CURVE('',#493,#516,#245,.T.);
#853=ORIENTED_EDGE('',*,*,#852,.F.);
#854=ORIENTED_EDGE('',*,*,#837,.F.);
#855=EDGE_LOOP('',(#851,#853,#854));
#856=FACE_OUTER_BOUND('',#855,.F.);
#857=ADVANCED_FACE('',(#856),#849,.T.);
#858=CARTESIAN_POINT('',(1.152284262309E0,-1.7311492E0,-4.156025537695E-1));
#859=AXIS2_PLACEMENT_3D('',#858,#107,#247);
#860=CYLINDRICAL_SURFACE('',#859,1.E-1);
#861=EDGE_CURVE('',#516,#517,#279,.T.);
#862=ORIENTED_EDGE('',*,*,#861,.F.);
#863=ORIENTED_EDGE('',*,*,#850,.T.);
#864=ORIENTED_EDGE('',*,*,#828,.T.);
#865=ORIENTED_EDGE('',*,*,#703,.T.);
#866=EDGE_LOOP('',(#862,#863,#864,#865));
#867=FACE_OUTER_BOUND('',#866,.F.);
#868=ADVANCED_FACE('',(#867),#860,.T.);
#869=CARTESIAN_POINT('',(-1.45E0,-1.27E-1,-8.E-1));
#870=AXIS2_PLACEMENT_3D('',#869,#240,#56);
#871=PLANE('',#870);
#872=ORIENTED_EDGE('',*,*,#739,.F.);
#873=EDGE_CURVE('',#515,#512,#272,.T.);
#874=ORIENTED_EDGE('',*,*,#873,.F.);
#875=EDGE_CURVE('',#515,#516,#275,.T.);
#876=ORIENTED_EDGE('',*,*,#875,.T.);
#877=ORIENTED_EDGE('',*,*,#861,.T.);
#878=ORIENTED_EDGE('',*,*,#701,.F.);
#879=ORIENTED_EDGE('',*,*,#722,.T.);
#880=EDGE_LOOP('',(#872,#874,#876,#877,#878,#879));
#881=FACE_OUTER_BOUND('',#880,.F.);
#882=ADVANCED_FACE('',(#881),#871,.T.);
#883=CARTESIAN_POINT('',(-1.152284262309E0,-1.7311492E0,-4.156025537695E-1));
#884=AXIS2_PLACEMENT_3D('',#883,#164,#240);
#885=CYLINDRICAL_SURFACE('',#884,1.E-1);
#886=EDGE_CURVE('',#496,#511,#308,.T.);
#887=ORIENTED_EDGE('',*,*,#886,.F.);
#888=EDGE_CURVE('',#496,#515,#415,.T.);
#889=ORIENTED_EDGE('',*,*,#888,.T.);
#890=ORIENTED_EDGE('',*,*,#873,.T.);
#891=ORIENTED_EDGE('',*,*,#737,.T.);
#892=EDGE_LOOP('',(#887,#889,#890,#891));
#893=FACE_OUTER_BOUND('',#892,.F.);
#894=ADVANCED_FACE('',(#893),#885,.T.);
#895=CARTESIAN_POINT('',(-1.45E0,-1.27E-1,8.E-1));
#896=AXIS2_PLACEMENT_3D('',#895,#335,#51);
#897=PLANE('',#896);
#898=EDGE_CURVE('',#495,#496,#304,.T.);
#899=ORIENTED_EDGE('',*,*,#898,.T.);
#900=ORIENTED_EDGE('',*,*,#886,.T.);
#901=ORIENTED_EDGE('',*,*,#735,.F.);
#902=ORIENTED_EDGE('',*,*,#756,.F.);
#903=ORIENTED_EDGE('',*,*,#770,.F.);
#904=EDGE_CURVE('',#495,#540,#325,.T.);
#905=ORIENTED_EDGE('',*,*,#904,.F.);
#906=EDGE_LOOP('',(#899,#900,#901,#902,#903,#905));
#907=FACE_OUTER_BOUND('',#906,.F.);
#908=ADVANCED_FACE('',(#907),#897,.T.);
#909=CARTESIAN_POINT('',(-1.300135193093E0,-5.27E-1,2.88576E0));
#910=AXIS2_PLACEMENT_3D('',#909,#51,#193);
#911=CYLINDRICAL_SURFACE('',#910,1.E-1);
#912=ORIENTED_EDGE('',*,*,#898,.F.);
#913=EDGE_CURVE('',#495,#497,#337,.T.);
#914=ORIENTED_EDGE('',*,*,#913,.T.);
#915=EDGE_CURVE('',#497,#498,#405,.T.);
#916=ORIENTED_EDGE('',*,*,#915,.T.);
#917=EDGE_CURVE('',#498,#496,#418,.T.);
#918=ORIENTED_EDGE('',*,*,#917,.T.);
#919=EDGE_LOOP('',(#912,#914,#916,#918));
#920=FACE_OUTER_BOUND('',#919,.F.);
#921=ADVANCED_FACE('',(#920),#911,.T.);
#922=DIRECTION('',(7.093823650470E-1,-3.700683524616E-2,7.038516564627E-1));
#923=DIRECTION('',(-6.945256771486E-1,-2.067858568516E-1,6.891107989195E-1));
#924=AXIS2_PLACEMENT_3D('',#327,#922,#923);
#925=SPHERICAL_SURFACE('',#924,1.E-1);
#926=EDGE_CURVE('',#538,#495,#330,.T.);
#927=ORIENTED_EDGE('',*,*,#926,.F.);
#928=EDGE_CURVE('',#497,#538,#333,.T.);
#929=ORIENTED_EDGE('',*,*,#928,.F.);
#930=ORIENTED_EDGE('',*,*,#913,.F.);
#931=EDGE_LOOP('',(#927,#929,#930));
#932=FACE_OUTER_BOUND('',#931,.F.);
#933=ADVANCED_FACE('',(#932),#925,.T.);
#934=CARTESIAN_POINT('',(-1.152284262309E0,-1.7311492E0,4.156025537695E-1));
#935=AXIS2_PLACEMENT_3D('',#934,#323,#335);
#936=CYLINDRICAL_SURFACE('',#935,1.E-1);
#937=EDGE_CURVE('',#538,#539,#367,.T.);
#938=ORIENTED_EDGE('',*,*,#937,.F.);
#939=ORIENTED_EDGE('',*,*,#926,.T.);
#940=ORIENTED_EDGE('',*,*,#904,.T.);
#941=ORIENTED_EDGE('',*,*,#768,.T.);
#942=EDGE_LOOP('',(#938,#939,#940,#941));
#943=FACE_OUTER_BOUND('',#942,.F.);
#944=ADVANCED_FACE('',(#943),#936,.T.);
#945=CARTESIAN_POINT('',(1.45E0,-1.27E-1,8.E-1));
#946=AXIS2_PLACEMENT_3D('',#945,#328,#46);
#947=PLANE('',#946);
#948=ORIENTED_EDGE('',*,*,#799,.F.);
#949=EDGE_CURVE('',#537,#534,#360,.T.);
#950=ORIENTED_EDGE('',*,*,#949,.F.);
#951=EDGE_CURVE('',#537,#538,#363,.T.);
#952=ORIENTED_EDGE('',*,*,#951,.T.);
#953=ORIENTED_EDGE('',*,*,#937,.T.);
#954=ORIENTED_EDGE('',*,*,#766,.F.);
#955=ORIENTED_EDGE('',*,*,#783,.F.);
#956=EDGE_LOOP('',(#948,#950,#952,#953,#954,#955));
#957=FACE_OUTER_BOUND('',#956,.F.);
#958=ADVANCED_FACE('',(#957),#947,.T.);
#959=CARTESIAN_POINT('',(1.152284262309E0,-1.7311492E0,4.156025537695E-1));
#960=AXIS2_PLACEMENT_3D('',#959,#217,#328);
#961=CYLINDRICAL_SURFACE('',#960,1.E-1);
#962=ORIENTED_EDGE('',*,*,#823,.F.);
#963=EDGE_CURVE('',#492,#537,#393,.T.);
#964=ORIENTED_EDGE('',*,*,#963,.T.);
#965=ORIENTED_EDGE('',*,*,#949,.T.);
#966=ORIENTED_EDGE('',*,*,#797,.T.);
#967=EDGE_LOOP('',(#962,#964,#965,#966));
#968=FACE_OUTER_BOUND('',#967,.F.);
#969=ADVANCED_FACE('',(#968),#961,.T.);
#970=DIRECTION('',(0.E0,6.427876096865E-1,7.660444431190E-1));
#971=DIRECTION('',(0.E0,-7.660444431190E-1,6.427876096865E-1));
#972=AXIS2_PLACEMENT_3D('',#388,#970,#971);
#973=SPHERICAL_SURFACE('',#972,1.E-1);
#974=EDGE_CURVE('',#537,#494,#390,.T.);
#975=ORIENTED_EDGE('',*,*,#974,.F.);
#976=ORIENTED_EDGE('',*,*,#963,.F.);
#977=ORIENTED_EDGE('',*,*,#841,.F.);
#978=EDGE_LOOP('',(#975,#976,#977));
#979=FACE_OUTER_BOUND('',#978,.F.);
#980=ADVANCED_FACE('',(#979),#973,.T.);
#981=CARTESIAN_POINT('',(5.23044E0,-5.27E-1,6.279265465280E-1));
#982=AXIS2_PLACEMENT_3D('',#981,#46,#193);
#983=CYLINDRICAL_SURFACE('',#982,1.E-1);
#984=ORIENTED_EDGE('',*,*,#951,.F.);
#985=ORIENTED_EDGE('',*,*,#974,.T.);
#986=EDGE_CURVE('',#494,#497,#408,.T.);
#987=ORIENTED_EDGE('',*,*,#986,.T.);
#988=ORIENTED_EDGE('',*,*,#928,.T.);
#989=EDGE_LOOP('',(#984,#985,#987,#988));
#990=FACE_OUTER_BOUND('',#989,.F.);
#991=ADVANCED_FACE('',(#990),#983,.T.);
#992=CARTESIAN_POINT('',(0.E0,-6.27E-1,0.E0));
#993=AXIS2_PLACEMENT_3D('',#992,#193,#46);
#994=PLANE('',#993);
#995=ORIENTED_EDGE('',*,*,#839,.F.);
#996=EDGE_CURVE('',#498,#493,#402,.T.);
#997=ORIENTED_EDGE('',*,*,#996,.F.);
#998=ORIENTED_EDGE('',*,*,#915,.F.);
#999=ORIENTED_EDGE('',*,*,#986,.F.);
#1000=EDGE_LOOP('',(#995,#997,#998,#999));
#1001=FACE_OUTER_BOUND('',#1000,.F.);
#1002=ADVANCED_FACE('',(#1001),#994,.T.);
#1003=CARTESIAN_POINT('',(-5.23044E0,-5.27E-1,-6.279265465280E-1));
#1004=AXIS2_PLACEMENT_3D('',#1003,#56,#193);
#1005=CYLINDRICAL_SURFACE('',#1004,1.E-1);
#1006=ORIENTED_EDGE('',*,*,#996,.T.);
#1007=ORIENTED_EDGE('',*,*,#852,.T.);
#1008=ORIENTED_EDGE('',*,*,#875,.F.);
#1009=EDGE_CURVE('',#515,#498,#412,.T.);
#1010=ORIENTED_EDGE('',*,*,#1009,.T.);
#1011=EDGE_LOOP('',(#1006,#1007,#1008,#1010));
#1012=FACE_OUTER_BOUND('',#1011,.F.);
#1013=ADVANCED_FACE('',(#1012),#1005,.T.);
#1014=DIRECTION('',(0.E0,6.427876096865E-1,-7.660444431190E-1));
#1015=DIRECTION('',(0.E0,-7.660444431190E-1,-6.427876096865E-1));
#1016=AXIS2_PLACEMENT_3D('',#410,#1014,#1015);
#1017=SPHERICAL_SURFACE('',#1016,1.E-1);
#1018=ORIENTED_EDGE('',*,*,#1009,.F.);
#1019=ORIENTED_EDGE('',*,*,#888,.F.);
#1020=ORIENTED_EDGE('',*,*,#917,.F.);
#1021=EDGE_LOOP('',(#1018,#1019,#1020));
#1022=FACE_OUTER_BOUND('',#1021,.F.);
#1023=ADVANCED_FACE('',(#1022),#1017,.T.);
#1024=AXIS2_PLACEMENT_3D('',#717,#443,#46);
#1025=PLANE('',#1024);
#1026=EDGE_CURVE('',#504,#505,#421,.T.);
#1027=ORIENTED_EDGE('',*,*,#1026,.T.);
#1028=EDGE_CURVE('',#505,#506,#425,.T.);
#1029=ORIENTED_EDGE('',*,*,#1028,.T.);
#1030=ORIENTED_EDGE('',*,*,#742,.F.);
#1031=ORIENTED_EDGE('',*,*,#725,.T.);
#1032=ORIENTED_EDGE('',*,*,#712,.F.);
#1033=EDGE_CURVE('',#504,#524,#440,.T.);
#1034=ORIENTED_EDGE('',*,*,#1033,.F.);
#1035=EDGE_LOOP('',(#1027,#1029,#1030,#1031,#1032,#1034));
#1036=FACE_OUTER_BOUND('',#1035,.F.);
#1037=ADVANCED_FACE('',(#1036),#1025,.T.);
#1038=CARTESIAN_POINT('',(5.23044E0,1.2E-1,-6.772981011264E-1));
#1039=AXIS2_PLACEMENT_3D('',#1038,#46,#112);
#1040=CYLINDRICAL_SURFACE('',#1039,1.E-1);
#1041=ORIENTED_EDGE('',*,*,#553,.T.);
#1042=EDGE_CURVE('',#501,#505,#448,.T.);
#1043=ORIENTED_EDGE('',*,*,#1042,.T.);
#1044=ORIENTED_EDGE('',*,*,#1026,.F.);
#1045=EDGE_CURVE('',#504,#503,#472,.T.);
#1046=ORIENTED_EDGE('',*,*,#1045,.T.);
#1047=EDGE_LOOP('',(#1041,#1043,#1044,#1046));
#1048=FACE_OUTER_BOUND('',#1047,.F.);
#1049=ADVANCED_FACE('',(#1048),#1040,.T.);
#1050=DIRECTION('',(7.093823650470E-1,3.700683524616E-2,-7.038516564627E-1));
#1051=DIRECTION('',(-6.945256771486E-1,2.067858568516E-1,-6.891107989195E-1));
#1052=AXIS2_PLACEMENT_3D('',#442,#1050,#1051);
#1053=SPHERICAL_SURFACE('',#1052,1.E-1);
#1054=EDGE_CURVE('',#505,#499,#445,.T.);
#1055=ORIENTED_EDGE('',*,*,#1054,.F.);
#1056=ORIENTED_EDGE('',*,*,#1042,.F.);
#1057=ORIENTED_EDGE('',*,*,#567,.F.);
#1058=EDGE_LOOP('',(#1055,#1056,#1057));
#1059=FACE_OUTER_BOUND('',#1058,.F.);
#1060=ADVANCED_FACE('',(#1059),#1053,.T.);
#1061=CARTESIAN_POINT('',(-1.186663939362E0,1.3241492E0,-4.649741083679E-1));
#1062=AXIS2_PLACEMENT_3D('',#1061,#84,#108);
#1063=CYLINDRICAL_SURFACE('',#1062,1.E-1);
#1064=ORIENTED_EDGE('',*,*,#1028,.F.);
#1065=ORIENTED_EDGE('',*,*,#1054,.T.);
#1066=ORIENTED_EDGE('',*,*,#587,.T.);
#1067=ORIENTED_EDGE('',*,*,#744,.T.);
#1068=EDGE_LOOP('',(#1064,#1065,#1066,#1067));
#1069=FACE_OUTER_BOUND('',#1068,.F.);
#1070=ADVANCED_FACE('',(#1069),#1063,.T.);
#1071=DIRECTION('',(0.E0,-6.427876096865E-1,-7.660444431190E-1));
#1072=DIRECTION('',(0.E0,7.660444431190E-1,-6.427876096865E-1));
#1073=AXIS2_PLACEMENT_3D('',#467,#1071,#1072);
#1074=SPHERICAL_SURFACE('',#1073,1.E-1);
#1075=ORIENTED_EDGE('',*,*,#675,.F.);
#1076=ORIENTED_EDGE('',*,*,#1045,.F.);
#1077=EDGE_CURVE('',#525,#504,#475,.T.);
#1078=ORIENTED_EDGE('',*,*,#1077,.F.);
#1079=EDGE_LOOP('',(#1075,#1076,#1078));
#1080=FACE_OUTER_BOUND('',#1079,.F.);
#1081=ADVANCED_FACE('',(#1080),#1074,.T.);
#1082=CARTESIAN_POINT('',(1.186663939362E0,1.3241492E0,-4.649741083679E-1));
#1083=AXIS2_PLACEMENT_3D('',#1082,#188,#443);
#1084=CYLINDRICAL_SURFACE('',#1083,1.E-1);
#1085=ORIENTED_EDGE('',*,*,#691,.F.);
#1086=ORIENTED_EDGE('',*,*,#1077,.T.);
#1087=ORIENTED_EDGE('',*,*,#1033,.T.);
#1088=ORIENTED_EDGE('',*,*,#710,.T.);
#1089=EDGE_LOOP('',(#1085,#1086,#1087,#1088));
#1090=FACE_OUTER_BOUND('',#1089,.F.);
#1091=ADVANCED_FACE('',(#1090),#1084,.T.);
#1092=CLOSED_SHELL('',(#561,#574,#591,#604,#615,#627,#643,#656,#667,#679,#695,#716,#729,#749,#760,#778,#789,#807,#817,#832,#845,#857,#868,#882,#894,#908,#921,#933,#944,#958,#969,#980,#991,#1002,#1013,#1023,#1037,#1049,#1060,#1070,#1081,#1091));
#1093=MANIFOLD_SOLID_BREP('',#1092);
#1094=FILL_AREA_STYLE_COLOUR('',#3);
#1095=FILL_AREA_STYLE('',(#1094));
#1096=SURFACE_STYLE_FILL_AREA(#1095);
#1097=SURFACE_SIDE_STYLE('',(#1096));
#1098=SURFACE_STYLE_USAGE(.BOTH.,#1097);
#1099=PRESENTATION_STYLE_ASSIGNMENT((#1098));
#1100=(LENGTH_UNIT()NAMED_UNIT(*)SI_UNIT(.MILLI.,.METRE.));
#1101=DIMENSIONAL_EXPONENTS(0.E0,0.E0,0.E0,0.E0,0.E0,0.E0,0.E0);
#1102=(NAMED_UNIT(*)PLANE_ANGLE_UNIT()SI_UNIT($,.RADIAN.));
#1103=PLANE_ANGLE_MEASURE_WITH_UNIT(PLANE_ANGLE_MEASURE(1.745329251994E-2),#1102);
#1104=(CONVERSION_BASED_UNIT('DEGREE',#1103)NAMED_UNIT(*)PLANE_ANGLE_UNIT());
#1105=(NAMED_UNIT(*)SI_UNIT($,.STERADIAN.)SOLID_ANGLE_UNIT());
#1106=UNCERTAINTY_MEASURE_WITH_UNIT(LENGTH_MEASURE(3.643163203212E-4),#1100,'closure','Maximum model space distance between geometric entities at asserted connectivities');
#1107=(GEOMETRIC_REPRESENTATION_CONTEXT(3)GLOBAL_UNCERTAINTY_ASSIGNED_CONTEXT((#1106))GLOBAL_UNIT_ASSIGNED_CONTEXT((#1100,#1104,#1105))REPRESENTATION_CONTEXT('ID1','3'));
#1108=CARTESIAN_POINT('',(0.E0,0.E0,0.E0));
#1109=AXIS2_PLACEMENT_3D('',#1108,#38,#56);
#1110=ADVANCED_BREP_SHAPE_REPRESENTATION('',(#1109,#1093),#1107);
#1111=APPLICATION_CONTEXT('CONFIGURATION CONTROLLED 3D DESIGNS OF MECHANICAL PARTS AND ASSEMBLIES');
#1112=APPLICATION_PROTOCOL_DEFINITION('international standard','config_control_design',1994,#1111);
#1113=DESIGN_CONTEXT('',#1111,'design');
#1114=MECHANICAL_CONTEXT('',#1111,'mechanical');
#1115=PRODUCT('BODY-SOT','BODY-SOT','NOT SPECIFIED',(#1114));
#1116=PRODUCT_DEFINITION_FORMATION_WITH_SPECIFIED_SOURCE('4','LAST_VERSION',#1115,.MADE.);
#1117=PRODUCT_DEFINITION('design','',#1116,#1113);
#1118=PRODUCT_DEFINITION_SHAPE('','SHAPE FOR BODY-SOT.',#1117);
#1119=SHAPE_DEFINITION_REPRESENTATION(#1118,#1110);
#1120=SHAPE_DEFINITION_REPRESENTATION(#1121,#1122);
#1121=PRODUCT_DEFINITION_SHAPE('','SHAPE FOR DDC0006A_ASM.',#1525);
#1122=SHAPE_REPRESENTATION('',(#1126,#1481,#1488,#1495,#1502,#1509,#1516,#1109),#1521);
#1123=NEXT_ASSEMBLY_USAGE_OCCURRENCE('0','Next assembly relationship','D',#1525,#1117,$);
#1124=PRODUCT_DEFINITION_SHAPE('Placement #0','Placement of BODY-SOT with respect to DDC0006A_ASM',#1123);
#1125=CARTESIAN_POINT('',(0.E0,0.E0,7.27E-1));
#1126=AXIS2_PLACEMENT_3D('',#1125,#56,#112);
#1127=ITEM_DEFINED_TRANSFORMATION('','',#1109,#1126);
#1128=(REPRESENTATION_RELATIONSHIP('','',#1110,#1122)REPRESENTATION_RELATIONSHIP_WITH_TRANSFORMATION(#1127)SHAPE_REPRESENTATION_RELATIONSHIP());
#1129=CONTEXT_DEPENDENT_SHAPE_REPRESENTATION(#1128,#1124);
#1130=STYLED_ITEM('',(#1469),#1463);
#1131=VECTOR('',#51,8.790174841394E-2);
#1132=CARTESIAN_POINT('',(-2.E-1,3.5E-1,-1.132391794206E-1));
#1133=LINE('',#1132,#1131);
#1134=CURVE_STYLE('',#42,POSITIVE_LENGTH_MEASURE(2.E-2),#31);
#1135=PRESENTATION_STYLE_ASSIGNMENT((#1134));
#1136=STYLED_ITEM('',(#1135),#1133);
#1137=VECTOR('',#112,1.27E-1);
#1138=CARTESIAN_POINT('',(-2.E-1,3.5E-1,-2.011409278345E-1));
#1139=LINE('',#1138,#1137);
#1140=STYLED_ITEM('',(#1135),#1139);
#1141=VECTOR('',#38,8.790174841394E-2);
#1142=CARTESIAN_POINT('',(-2.E-1,4.77E-1,-2.011409278345E-1));
#1143=LINE('',#1142,#1141);
#1144=STYLED_ITEM('',(#1135),#1143);
#1145=DIRECTION('',(0.E0,-6.975647374413E-2,9.975640502598E-1));
#1146=VECTOR('',#1145,2.135899714208E-1);
#1147=CARTESIAN_POINT('',(-2.E-1,-1.084100823836E-1,2.207893951801E-1));
#1148=LINE('',#1147,#1146);
#1149=STYLED_ITEM('',(#1135),#1148);
#1150=DIRECTION('',(0.E0,-9.975640502598E-1,-6.975647374413E-2));
#1151=VECTOR('',#1150,1.27E-1);
#1152=CARTESIAN_POINT('',(-2.E-1,-1.233093656170E-1,4.338590721655E-1));
#1153=LINE('',#1152,#1151);
#1154=STYLED_ITEM('',(#1135),#1153);
#1155=DIRECTION('',(0.E0,6.975647374413E-2,-9.975640502598E-1));
#1156=VECTOR('',#1155,2.135899714208E-1);
#1157=CARTESIAN_POINT('',(-2.E-1,-2.5E-1,4.25E-1));
#1158=LINE('',#1157,#1156);
#1159=STYLED_ITEM('',(#1135),#1158);
#1160=DIRECTION('',(0.E0,9.986295347546E-1,-5.233595624294E-2));
#1161=VECTOR('',#1160,2.761459835221E-1);
#1162=CARTESIAN_POINT('',(2.E-1,-2.053393942474E-2,1.076138165183E-3));
#1163=LINE('',#1162,#1161);
#1164=STYLED_ITEM('',(#1135),#1163);
#1165=DIRECTION('',(0.E0,-9.986295347546E-1,5.233595624294E-2));
#1166=VECTOR('',#1165,2.761459835221E-1);
#1167=CARTESIAN_POINT('',(-2.E-1,2.552335956243E-1,-1.337622594510E-2));
#1168=LINE('',#1167,#1166);
#1169=STYLED_ITEM('',(#1135),#1168);
#1170=CARTESIAN_POINT('',(2.E-1,4.77E-1,-2.011409278345E-1));
#1171=LINE('',#1170,#1141);
#1172=STYLED_ITEM('',(#1135),#1171);
#1173=CARTESIAN_POINT('',(2.E-1,3.5E-1,-2.011409278345E-1));
#1174=LINE('',#1173,#1137);
#1175=STYLED_ITEM('',(#1135),#1174);
#1176=CARTESIAN_POINT('',(2.E-1,3.5E-1,-1.132391794206E-1));
#1177=LINE('',#1176,#1131);
#1178=STYLED_ITEM('',(#1135),#1177);
#1179=CARTESIAN_POINT('',(2.E-1,-2.5E-1,4.25E-1));
#1180=LINE('',#1179,#1156);
#1181=STYLED_ITEM('',(#1135),#1180);
#1182=CARTESIAN_POINT('',(2.E-1,-1.233093656170E-1,4.338590721655E-1));
#1183=LINE('',#1182,#1151);
#1184=STYLED_ITEM('',(#1135),#1183);
#1185=CARTESIAN_POINT('',(2.E-1,-1.084100823836E-1,2.207893951801E-1));
#1186=LINE('',#1185,#1146);
#1187=STYLED_ITEM('',(#1135),#1186);
#1188=CARTESIAN_POINT('',(-2.E-1,-1.388727298189E-2,1.279020890790E-1));
#1189=LINE('',#1188,#1161);
#1190=STYLED_ITEM('',(#1135),#1189);
#1191=CARTESIAN_POINT('',(2.E-1,2.618802620671E-1,1.134497249687E-1));
#1192=LINE('',#1191,#1166);
#1193=STYLED_ITEM('',(#1135),#1192);
#1194=VECTOR('',#56,4.E-1);
#1195=CARTESIAN_POINT('',(-2.E-1,2.618802620671E-1,1.134497249687E-1));
#1196=LINE('',#1195,#1194);
#1197=STYLED_ITEM('',(#1135),#1196);
#1198=CARTESIAN_POINT('',(-2.E-1,2.5E-1,-1.132391794206E-1));
#1199=DIRECTION('',(0.E0,5.233595624294E-2,9.986295347546E-1));
#1200=AXIS2_PLACEMENT_3D('',#1198,#46,#1199);
#1201=CIRCLE('',#1200,2.27E-1);
#1202=STYLED_ITEM('',(#1135),#1201);
#1203=CARTESIAN_POINT('',(-2.E-1,4.77E-1,-1.132391794206E-1));
#1204=LINE('',#1203,#1194);
#1205=STYLED_ITEM('',(#1135),#1204);
#1206=CARTESIAN_POINT('',(2.E-1,2.5E-1,-1.132391794206E-1));
#1207=AXIS2_PLACEMENT_3D('',#1206,#46,#1199);
#1208=CIRCLE('',#1207,2.27E-1);
#1209=STYLED_ITEM('',(#1135),#1208);
#1210=LINE('',#1142,#1194);
#1211=STYLED_ITEM('',(#1135),#1210);
#1212=LINE('',#1138,#1194);
#1213=STYLED_ITEM('',(#1135),#1212);
#1214=LINE('',#1132,#1194);
#1215=STYLED_ITEM('',(#1135),#1214);
#1216=AXIS2_PLACEMENT_3D('',#1198,#56,#112);
#1217=CIRCLE('',#1216,1.E-1);
#1218=STYLED_ITEM('',(#1135),#1217);
#1219=LINE('',#1167,#1194);
#1220=STYLED_ITEM('',(#1135),#1219);
#1221=AXIS2_PLACEMENT_3D('',#1206,#56,#112);
#1222=CIRCLE('',#1221,1.E-1);
#1223=STYLED_ITEM('',(#1135),#1222);
#1224=LINE('',#1147,#1194);
#1225=STYLED_ITEM('',(#1135),#1224);
#1226=CARTESIAN_POINT('',(-2.E-1,-8.653677357594E-3,2.277650425545E-1));
#1227=AXIS2_PLACEMENT_3D('',#1226,#56,#1150);
#1228=CIRCLE('',#1227,1.E-1);
#1229=STYLED_ITEM('',(#1135),#1228);
#1230=LINE('',#1188,#1194);
#1231=STYLED_ITEM('',(#1135),#1230);
#1232=CARTESIAN_POINT('',(2.E-1,-8.653677357594E-3,2.277650425545E-1));
#1233=AXIS2_PLACEMENT_3D('',#1232,#56,#1150);
#1234=CIRCLE('',#1233,1.E-1);
#1235=STYLED_ITEM('',(#1135),#1234);
#1236=LINE('',#1152,#1194);
#1237=STYLED_ITEM('',(#1135),#1236);
#1238=LINE('',#1157,#1194);
#1239=STYLED_ITEM('',(#1135),#1238);
#1240=CARTESIAN_POINT('',(-2.E-1,-2.053393942474E-2,1.076138165183E-3));
#1241=LINE('',#1240,#1194);
#1242=STYLED_ITEM('',(#1135),#1241);
#1243=DIRECTION('',(0.E0,-5.233595624294E-2,-9.986295347546E-1));
#1244=AXIS2_PLACEMENT_3D('',#1226,#46,#1243);
#1245=CIRCLE('',#1244,2.27E-1);
#1246=STYLED_ITEM('',(#1135),#1245);
#1247=CARTESIAN_POINT('',(-2.E-1,-2.351007167666E-1,2.119303230146E-1));
#1248=LINE('',#1247,#1194);
#1249=STYLED_ITEM('',(#1135),#1248);
#1250=AXIS2_PLACEMENT_3D('',#1232,#46,#1243);
#1251=CIRCLE('',#1250,2.27E-1);
#1252=STYLED_ITEM('',(#1135),#1251);
#1253=VERTEX_POINT('',#1152);
#1254=VERTEX_POINT('',#1157);
#1255=VERTEX_POINT('',#1182);
#1256=VERTEX_POINT('',#1179);
#1257=VERTEX_POINT('',#1138);
#1258=VERTEX_POINT('',#1142);
#1259=VERTEX_POINT('',#1173);
#1260=VERTEX_POINT('',#1170);
#1261=VERTEX_POINT('',#1147);
#1262=VERTEX_POINT('',#1185);
#1263=CARTESIAN_POINT('',(2.E-1,-1.388727298189E-2,1.279020890790E-1));
#1264=VERTEX_POINT('',#1188);
#1265=VERTEX_POINT('',#1263);
#1266=VERTEX_POINT('',#1240);
#1267=VERTEX_POINT('',#1162);
#1268=CARTESIAN_POINT('',(2.E-1,-2.351007167666E-1,2.119303230146E-1));
#1269=VERTEX_POINT('',#1247);
#1270=VERTEX_POINT('',#1268);
#1271=VERTEX_POINT('',#1132);
#1272=VERTEX_POINT('',#1176);
#1273=CARTESIAN_POINT('',(2.E-1,2.552335956243E-1,-1.337622594510E-2));
#1274=VERTEX_POINT('',#1167);
#1275=VERTEX_POINT('',#1273);
#1276=VERTEX_POINT('',#1195);
#1277=VERTEX_POINT('',#1191);
#1278=CARTESIAN_POINT('',(2.E-1,4.77E-1,-1.132391794206E-1));
#1279=VERTEX_POINT('',#1203);
#1280=VERTEX_POINT('',#1278);
#1281=CARTESIAN_POINT('',(-2.E-1,0.E0,0.E0));
#1282=AXIS2_PLACEMENT_3D('',#1281,#56,#51);
#1283=PLANE('',#1282);
#1284=EDGE_CURVE('',#1274,#1266,#1168,.T.);
#1285=ORIENTED_EDGE('',*,*,#1284,.F.);
#1286=EDGE_CURVE('',#1271,#1274,#1217,.T.);
#1287=ORIENTED_EDGE('',*,*,#1286,.F.);
#1288=EDGE_CURVE('',#1271,#1257,#1133,.T.);
#1289=ORIENTED_EDGE('',*,*,#1288,.T.);
#1290=EDGE_CURVE('',#1257,#1258,#1139,.T.);
#1291=ORIENTED_EDGE('',*,*,#1290,.T.);
#1292=EDGE_CURVE('',#1258,#1279,#1143,.T.);
#1293=ORIENTED_EDGE('',*,*,#1292,.T.);
#1294=EDGE_CURVE('',#1276,#1279,#1201,.T.);
#1295=ORIENTED_EDGE('',*,*,#1294,.F.);
#1296=EDGE_CURVE('',#1264,#1276,#1189,.T.);
#1297=ORIENTED_EDGE('',*,*,#1296,.F.);
#1298=EDGE_CURVE('',#1261,#1264,#1228,.T.);
#1299=ORIENTED_EDGE('',*,*,#1298,.F.);
#1300=EDGE_CURVE('',#1261,#1253,#1148,.T.);
#1301=ORIENTED_EDGE('',*,*,#1300,.T.);
#1302=EDGE_CURVE('',#1253,#1254,#1153,.T.);
#1303=ORIENTED_EDGE('',*,*,#1302,.T.);
#1304=EDGE_CURVE('',#1254,#1269,#1158,.T.);
#1305=ORIENTED_EDGE('',*,*,#1304,.T.);
#1306=EDGE_CURVE('',#1266,#1269,#1245,.T.);
#1307=ORIENTED_EDGE('',*,*,#1306,.F.);
#1308=EDGE_LOOP('',(#1285,#1287,#1289,#1291,#1293,#1295,#1297,#1299,#1301,#1303,#1305,#1307));
#1309=FACE_OUTER_BOUND('',#1308,.F.);
#1310=ADVANCED_FACE('',(#1309),#1283,.F.);
#1311=CARTESIAN_POINT('',(-2.E-1,-2.210913403325E-1,1.158690616554E-2));
#1312=AXIS2_PLACEMENT_3D('',#1311,#1243,#1160);
#1313=PLANE('',#1312);
#1314=EDGE_CURVE('',#1267,#1275,#1163,.T.);
#1315=ORIENTED_EDGE('',*,*,#1314,.T.);
#1316=EDGE_CURVE('',#1274,#1275,#1219,.T.);
#1317=ORIENTED_EDGE('',*,*,#1316,.F.);
#1318=ORIENTED_EDGE('',*,*,#1284,.T.);
#1319=EDGE_CURVE('',#1266,#1267,#1241,.T.);
#1320=ORIENTED_EDGE('',*,*,#1319,.T.);
#1321=EDGE_LOOP('',(#1315,#1317,#1318,#1320));
#1322=FACE_OUTER_BOUND('',#1321,.F.);
#1323=ADVANCED_FACE('',(#1322),#1313,.T.);
#1324=CARTESIAN_POINT('',(2.E-1,0.E0,0.E0));
#1325=AXIS2_PLACEMENT_3D('',#1324,#56,#51);
#1326=PLANE('',#1325);
#1327=EDGE_CURVE('',#1277,#1265,#1192,.T.);
#1328=ORIENTED_EDGE('',*,*,#1327,.F.);
#1329=EDGE_CURVE('',#1277,#1280,#1208,.T.);
#1330=ORIENTED_EDGE('',*,*,#1329,.T.);
#1331=EDGE_CURVE('',#1260,#1280,#1171,.T.);
#1332=ORIENTED_EDGE('',*,*,#1331,.F.);
#1333=EDGE_CURVE('',#1259,#1260,#1174,.T.);
#1334=ORIENTED_EDGE('',*,*,#1333,.F.);
#1335=EDGE_CURVE('',#1272,#1259,#1177,.T.);
#1336=ORIENTED_EDGE('',*,*,#1335,.F.);
#1337=EDGE_CURVE('',#1272,#1275,#1222,.T.);
#1338=ORIENTED_EDGE('',*,*,#1337,.T.);
#1339=ORIENTED_EDGE('',*,*,#1314,.F.);
#1340=EDGE_CURVE('',#1267,#1270,#1251,.T.);
#1341=ORIENTED_EDGE('',*,*,#1340,.T.);
#1342=EDGE_CURVE('',#1256,#1270,#1180,.T.);
#1343=ORIENTED_EDGE('',*,*,#1342,.F.);
#1344=EDGE_CURVE('',#1255,#1256,#1183,.T.);
#1345=ORIENTED_EDGE('',*,*,#1344,.F.);
#1346=EDGE_CURVE('',#1262,#1255,#1186,.T.);
#1347=ORIENTED_EDGE('',*,*,#1346,.F.);
#1348=EDGE_CURVE('',#1262,#1265,#1234,.T.);
#1349=ORIENTED_EDGE('',*,*,#1348,.T.);
#1350=EDGE_LOOP('',(#1328,#1330,#1332,#1334,#1336,#1338,#1339,#1341,#1343,#1345,#1347,#1349));
#1351=FACE_OUTER_BOUND('',#1350,.F.);
#1352=ADVANCED_FACE('',(#1351),#1326,.T.);
#1353=CARTESIAN_POINT('',(-2.E-1,6.646666442854E-3,1.268259509138E-1));
#1354=AXIS2_PLACEMENT_3D('',#1353,#1199,#1165);
#1355=PLANE('',#1354);
#1356=ORIENTED_EDGE('',*,*,#1296,.T.);
#1357=EDGE_CURVE('',#1276,#1277,#1196,.T.);
#1358=ORIENTED_EDGE('',*,*,#1357,.T.);
#1359=ORIENTED_EDGE('',*,*,#1327,.T.);
#1360=EDGE_CURVE('',#1264,#1265,#1230,.T.);
#1361=ORIENTED_EDGE('',*,*,#1360,.F.);
#1362=EDGE_LOOP('',(#1356,#1358,#1359,#1361));
#1363=FACE_OUTER_BOUND('',#1362,.F.);
#1364=ADVANCED_FACE('',(#1363),#1355,.T.);
#1365=CYLINDRICAL_SURFACE('',#1200,2.27E-1);
#1366=ORIENTED_EDGE('',*,*,#1357,.F.);
#1367=ORIENTED_EDGE('',*,*,#1294,.T.);
#1368=EDGE_CURVE('',#1279,#1280,#1204,.T.);
#1369=ORIENTED_EDGE('',*,*,#1368,.T.);
#1370=ORIENTED_EDGE('',*,*,#1329,.F.);
#1371=EDGE_LOOP('',(#1366,#1367,#1369,#1370));
#1372=FACE_OUTER_BOUND('',#1371,.F.);
#1373=ADVANCED_FACE('',(#1372),#1365,.T.);
#1374=AXIS2_PLACEMENT_3D('',#1142,#112,#38);
#1375=PLANE('',#1374);
#1376=ORIENTED_EDGE('',*,*,#1292,.F.);
#1377=EDGE_CURVE('',#1258,#1260,#1210,.T.);
#1378=ORIENTED_EDGE('',*,*,#1377,.T.);
#1379=ORIENTED_EDGE('',*,*,#1331,.T.);
#1380=ORIENTED_EDGE('',*,*,#1368,.F.);
#1381=EDGE_LOOP('',(#1376,#1378,#1379,#1380));
#1382=FACE_OUTER_BOUND('',#1381,.F.);
#1383=ADVANCED_FACE('',(#1382),#1375,.T.);
#1384=AXIS2_PLACEMENT_3D('',#1138,#51,#112);
#1385=PLANE('',#1384);
#1386=ORIENTED_EDGE('',*,*,#1290,.F.);
#1387=EDGE_CURVE('',#1257,#1259,#1212,.T.);
#1388=ORIENTED_EDGE('',*,*,#1387,.T.);
#1389=ORIENTED_EDGE('',*,*,#1333,.T.);
#1390=ORIENTED_EDGE('',*,*,#1377,.F.);
#1391=EDGE_LOOP('',(#1386,#1388,#1389,#1390));
#1392=FACE_OUTER_BOUND('',#1391,.F.);
#1393=ADVANCED_FACE('',(#1392),#1385,.T.);
#1394=CARTESIAN_POINT('',(-2.E-1,3.5E-1,-1.834272274906E-2));
#1395=AXIS2_PLACEMENT_3D('',#1394,#193,#51);
#1396=PLANE('',#1395);
#1397=ORIENTED_EDGE('',*,*,#1288,.F.);
#1398=EDGE_CURVE('',#1271,#1272,#1214,.T.);
#1399=ORIENTED_EDGE('',*,*,#1398,.T.);
#1400=ORIENTED_EDGE('',*,*,#1335,.T.);
#1401=ORIENTED_EDGE('',*,*,#1387,.F.);
#1402=EDGE_LOOP('',(#1397,#1399,#1400,#1401));
#1403=FACE_OUTER_BOUND('',#1402,.F.);
#1404=ADVANCED_FACE('',(#1403),#1396,.T.);
#1405=CYLINDRICAL_SURFACE('',#1216,1.E-1);
#1406=ORIENTED_EDGE('',*,*,#1398,.F.);
#1407=ORIENTED_EDGE('',*,*,#1286,.T.);
#1408=ORIENTED_EDGE('',*,*,#1316,.T.);
#1409=ORIENTED_EDGE('',*,*,#1337,.F.);
#1410=EDGE_LOOP('',(#1406,#1407,#1408,#1409));
#1411=FACE_OUTER_BOUND('',#1410,.F.);
#1412=ADVANCED_FACE('',(#1411),#1405,.F.);
#1413=CYLINDRICAL_SURFACE('',#1227,1.E-1);
#1414=EDGE_CURVE('',#1261,#1262,#1224,.T.);
#1415=ORIENTED_EDGE('',*,*,#1414,.F.);
#1416=ORIENTED_EDGE('',*,*,#1298,.T.);
#1417=ORIENTED_EDGE('',*,*,#1360,.T.);
#1418=ORIENTED_EDGE('',*,*,#1348,.F.);
#1419=EDGE_LOOP('',(#1415,#1416,#1417,#1418));
#1420=FACE_OUTER_BOUND('',#1419,.F.);
#1421=ADVANCED_FACE('',(#1420),#1413,.F.);
#1422=CARTESIAN_POINT('',(-2.E-1,-1.022385509148E-1,1.325323833523E-1));
#1423=DIRECTION('',(0.E0,9.975640502598E-1,6.975647374413E-2));
#1424=AXIS2_PLACEMENT_3D('',#1422,#1423,#1145);
#1425=PLANE('',#1424);
#1426=ORIENTED_EDGE('',*,*,#1300,.F.);
#1427=ORIENTED_EDGE('',*,*,#1414,.T.);
#1428=ORIENTED_EDGE('',*,*,#1346,.T.);
#1429=EDGE_CURVE('',#1253,#1255,#1236,.T.);
#1430=ORIENTED_EDGE('',*,*,#1429,.F.);
#1431=EDGE_LOOP('',(#1426,#1427,#1428,#1430));
#1432=FACE_OUTER_BOUND('',#1431,.F.);
#1433=ADVANCED_FACE('',(#1432),#1425,.T.);
#1434=AXIS2_PLACEMENT_3D('',#1152,#1145,#1150);
#1435=PLANE('',#1434);
#1436=ORIENTED_EDGE('',*,*,#1302,.F.);
#1437=ORIENTED_EDGE('',*,*,#1429,.T.);
#1438=ORIENTED_EDGE('',*,*,#1344,.T.);
#1439=EDGE_CURVE('',#1254,#1256,#1238,.T.);
#1440=ORIENTED_EDGE('',*,*,#1439,.F.);
#1441=EDGE_LOOP('',(#1436,#1437,#1438,#1440));
#1442=FACE_OUTER_BOUND('',#1441,.F.);
#1443=ADVANCED_FACE('',(#1442),#1435,.T.);
#1444=AXIS2_PLACEMENT_3D('',#1157,#1150,#1155);
#1445=PLANE('',#1444);
#1446=ORIENTED_EDGE('',*,*,#1304,.F.);
#1447=ORIENTED_EDGE('',*,*,#1439,.T.);
#1448=ORIENTED_EDGE('',*,*,#1342,.T.);
#1449=EDGE_CURVE('',#1269,#1270,#1248,.T.);
#1450=ORIENTED_EDGE('',*,*,#1449,.F.);
#1451=EDGE_LOOP('',(#1446,#1447,#1448,#1450));
#1452=FACE_OUTER_BOUND('',#1451,.F.);
#1453=ADVANCED_FACE('',(#1452),#1445,.T.);
#1454=CYLINDRICAL_SURFACE('',#1244,2.27E-1);
#1455=ORIENTED_EDGE('',*,*,#1319,.F.);
#1456=ORIENTED_EDGE('',*,*,#1306,.T.);
#1457=ORIENTED_EDGE('',*,*,#1449,.T.);
#1458=ORIENTED_EDGE('',*,*,#1340,.F.);
#1459=EDGE_LOOP('',(#1455,#1456,#1457,#1458));
#1460=FACE_OUTER_BOUND('',#1459,.F.);
#1461=ADVANCED_FACE('',(#1460),#1454,.T.);
#1462=CLOSED_SHELL('',(#1310,#1323,#1352,#1364,#1373,#1383,#1393,#1404,#1412,#1421,#1433,#1443,#1453,#1461));
#1463=MANIFOLD_SOLID_BREP('',#1462);
#1464=FILL_AREA_STYLE_COLOUR('',#31);
#1465=FILL_AREA_STYLE('',(#1464));
#1466=SURFACE_STYLE_FILL_AREA(#1465);
#1467=SURFACE_SIDE_STYLE('',(#1466));
#1468=SURFACE_STYLE_USAGE(.BOTH.,#1467);
#1469=PRESENTATION_STYLE_ASSIGNMENT((#1468));
#1470=UNCERTAINTY_MEASURE_WITH_UNIT(LENGTH_MEASURE(1.044828532070E-4),#1100,'closure','Maximum model space distance between geometric entities at asserted connectivities');
#1471=(GEOMETRIC_REPRESENTATION_CONTEXT(3)GLOBAL_UNCERTAINTY_ASSIGNED_CONTEXT((#1470))GLOBAL_UNIT_ASSIGNED_CONTEXT((#1100,#1104,#1105))REPRESENTATION_CONTEXT('ID2','3'));
#1472=ADVANCED_BREP_SHAPE_REPRESENTATION('',(#1109,#1463),#1471);
#1473=PRODUCT('LEAD-SOT','LEAD-SOT','NOT SPECIFIED',(#1114));
#1474=PRODUCT_DEFINITION_FORMATION_WITH_SPECIFIED_SOURCE('4','LAST_VERSION',#1473,.MADE.);
#1475=PRODUCT_DEFINITION('design','',#1474,#1113);
#1476=PRODUCT_DEFINITION_SHAPE('','SHAPE FOR LEAD-SOT.',#1475);
#1477=SHAPE_DEFINITION_REPRESENTATION(#1476,#1472);
#1478=NEXT_ASSEMBLY_USAGE_OCCURRENCE('1','Next assembly relationship','LEAD-SOT',#1525,#1475,$);
#1479=PRODUCT_DEFINITION_SHAPE('Placement #1','Placement of LEAD-SOT with respect to DDC0006A_ASM',#1478);
#1480=CARTESIAN_POINT('',(1.001140927834E0,9.5E-1,2.5E-1));
#1481=AXIS2_PLACEMENT_3D('',#1480,#56,#112);
#1482=ITEM_DEFINED_TRANSFORMATION('','',#1109,#1481);
#1483=(REPRESENTATION_RELATIONSHIP('','',#1472,#1122)REPRESENTATION_RELATIONSHIP_WITH_TRANSFORMATION(#1482)SHAPE_REPRESENTATION_RELATIONSHIP());
#1484=CONTEXT_DEPENDENT_SHAPE_REPRESENTATION(#1483,#1479);
#1485=NEXT_ASSEMBLY_USAGE_OCCURRENCE('2','Next assembly relationship','LEAD-SOT',#1525,#1475,$);
#1486=PRODUCT_DEFINITION_SHAPE('Placement #2','Placement of LEAD-SOT with respect to DDC0006A_ASM',#1485);
#1487=CARTESIAN_POINT('',(1.001140927834E0,0.E0,2.5E-1));
#1488=AXIS2_PLACEMENT_3D('',#1487,#56,#112);
#1489=ITEM_DEFINED_TRANSFORMATION('','',#1109,#1488);
#1490=(REPRESENTATION_RELATIONSHIP('','',#1472,#1122)REPRESENTATION_RELATIONSHIP_WITH_TRANSFORMATION(#1489)SHAPE_REPRESENTATION_RELATIONSHIP());
#1491=CONTEXT_DEPENDENT_SHAPE_REPRESENTATION(#1490,#1486);
#1492=NEXT_ASSEMBLY_USAGE_OCCURRENCE('3','Next assembly relationship','LEAD-SOT',#1525,#1475,$);
#1493=PRODUCT_DEFINITION_SHAPE('Placement #3','Placement of LEAD-SOT with respect to DDC0006A_ASM',#1492);
#1494=CARTESIAN_POINT('',(1.001140927834E0,-9.5E-1,2.5E-1));
#1495=AXIS2_PLACEMENT_3D('',#1494,#56,#112);
#1496=ITEM_DEFINED_TRANSFORMATION('','',#1109,#1495);
#1497=(REPRESENTATION_RELATIONSHIP('','',#1472,#1122)REPRESENTATION_RELATIONSHIP_WITH_TRANSFORMATION(#1496)SHAPE_REPRESENTATION_RELATIONSHIP());
#1498=CONTEXT_DEPENDENT_SHAPE_REPRESENTATION(#1497,#1493);
#1499=NEXT_ASSEMBLY_USAGE_OCCURRENCE('4','Next assembly relationship','LEAD-SOT',#1525,#1475,$);
#1500=PRODUCT_DEFINITION_SHAPE('Placement #4','Placement of LEAD-SOT with respect to DDC0006A_ASM',#1499);
#1501=CARTESIAN_POINT('',(-1.001140927834E0,9.5E-1,2.5E-1));
#1502=AXIS2_PLACEMENT_3D('',#1501,#46,#193);
#1503=ITEM_DEFINED_TRANSFORMATION('','',#1109,#1502);
#1504=(REPRESENTATION_RELATIONSHIP('','',#1472,#1122)REPRESENTATION_RELATIONSHIP_WITH_TRANSFORMATION(#1503)SHAPE_REPRESENTATION_RELATIONSHIP());
#1505=CONTEXT_DEPENDENT_SHAPE_REPRESENTATION(#1504,#1500);
#1506=NEXT_ASSEMBLY_USAGE_OCCURRENCE('5','Next assembly relationship','LEAD-SOT',#1525,#1475,$);
#1507=PRODUCT_DEFINITION_SHAPE('Placement #5','Placement of LEAD-SOT with respect to DDC0006A_ASM',#1506);
#1508=CARTESIAN_POINT('',(-1.001140927834E0,0.E0,2.5E-1));
#1509=AXIS2_PLACEMENT_3D('',#1508,#46,#193);
#1510=ITEM_DEFINED_TRANSFORMATION('','',#1109,#1509);
#1511=(REPRESENTATION_RELATIONSHIP('','',#1472,#1122)REPRESENTATION_RELATIONSHIP_WITH_TRANSFORMATION(#1510)SHAPE_REPRESENTATION_RELATIONSHIP());
#1512=CONTEXT_DEPENDENT_SHAPE_REPRESENTATION(#1511,#1507);
#1513=NEXT_ASSEMBLY_USAGE_OCCURRENCE('6','Next assembly relationship','LEAD-SOT',#1525,#1475,$);
#1514=PRODUCT_DEFINITION_SHAPE('Placement #6','Placement of LEAD-SOT with respect to DDC0006A_ASM',#1513);
#1515=CARTESIAN_POINT('',(-1.001140927834E0,-9.5E-1,2.5E-1));
#1516=AXIS2_PLACEMENT_3D('',#1515,#46,#193);
#1517=ITEM_DEFINED_TRANSFORMATION('','',#1109,#1516);
#1518=(REPRESENTATION_RELATIONSHIP('','',#1472,#1122)REPRESENTATION_RELATIONSHIP_WITH_TRANSFORMATION(#1517)SHAPE_REPRESENTATION_RELATIONSHIP());
#1519=CONTEXT_DEPENDENT_SHAPE_REPRESENTATION(#1518,#1514);
#1520=UNCERTAINTY_MEASURE_WITH_UNIT(LENGTH_MEASURE(4.189402639853E-4),#1100,'closure','Maximum model space distance between geometric entities at asserted connectivities');
#1521=(GEOMETRIC_REPRESENTATION_CONTEXT(3)GLOBAL_UNCERTAINTY_ASSIGNED_CONTEXT((#1520))GLOBAL_UNIT_ASSIGNED_CONTEXT((#1100,#1104,#1105))REPRESENTATION_CONTEXT('ID3','3'));
#1522=MECHANICAL_DESIGN_GEOMETRIC_PRESENTATION_REPRESENTATION('',(#45,#50,#55,#60,#63,#68,#74,#77,#83,#87,#101,#106,#111,#115,#120,#126,#130,#135,#139,#141,#155,#159,#163,#167,#173,#176,#181,#185,#187,#192,#197,#200,#202,#204,#206,#208,#210,#212,#216,#221,#227,#229,#235,#238,#243,#246,#250,#263,#269,#273,#276,#280,#285,#288,#301,#305,#309,#314,#317,#322,#326,#331,#334,#338,#351,#357,#361,#364,#368,#373,#375,#387,#391,#394,#397,#400,#403,#406,#409,#413,#416,#419,#422,#426,#431,#433,#438,#441,#446,#449,#452,#466,#470,#473,#476,#490,#37,#1136,#1140,#1144,#1149,#1154,#1159,#1164,#1169,#1172,#1175,#1178,#1181,#1184,#1187,#1190,#1193,#1197,#1202,#1205,#1209,#1211,#1213,#1215,#1218,#1220,#1223,#1225,#1229,#1231,#1235,#1237,#1239,#1242,#1246,#1249,#1252,#1130),#1521);
#1523=PRODUCT('DDC0006A_ASM','DDC0006A_ASM','NOT SPECIFIED',(#1114));
#1524=PRODUCT_DEFINITION_FORMATION_WITH_SPECIFIED_SOURCE('12','LAST_VERSION',#1523,.MADE.);
#1525=PRODUCT_DEFINITION('design','',#1524,#1113);
#1526=PRODUCT_CATEGORY('part','');
#1527=PRODUCT_RELATED_PRODUCT_CATEGORY('assembly','',(#1523));
#1528=PRODUCT_CATEGORY_RELATIONSHIP('','',#1526,#1527);
#1529=PRODUCT_RELATED_PRODUCT_CATEGORY('detail','',(#1115,#1473));
#1530=PRODUCT_CATEGORY_RELATIONSHIP('','',#1526,#1529);
#1531=SECURITY_CLASSIFICATION_LEVEL('unclassified');
#1532=SECURITY_CLASSIFICATION('','',#1531);
#1533=CC_DESIGN_SECURITY_CLASSIFICATION(#1532,(#1116,#1474,#1524,#1123,#1478,#1485,#1492,#1499,#1506,#1513));
#1534=APPROVAL_STATUS('approved');
#1535=APPROVAL(#1534,'');
#1536=CC_DESIGN_APPROVAL(#1535,(#1532,#1116,#1474,#1524,#1117,#1475,#1525));
#1537=CALENDAR_DATE(125,9,6);
#1538=COORDINATED_UNIVERSAL_TIME_OFFSET(7,0,.BEHIND.);
#1539=LOCAL_TIME(10,26,1.1E1,#1538);
#1540=DATE_AND_TIME(#1537,#1539);
#1541=APPROVAL_DATE_TIME(#1540,#1535);
#1542=DATE_TIME_ROLE('creation_date');
#1543=CC_DESIGN_DATE_AND_TIME_ASSIGNMENT(#1540,#1542,(#1117,#1475,#1525));
#1544=DATE_TIME_ROLE('classification_date');
#1545=CC_DESIGN_DATE_AND_TIME_ASSIGNMENT(#1540,#1544,(#1532));
#1546=PERSON('UNSPECIFIED','UNSPECIFIED',$,$,$,$);
#1547=ORGANIZATION('UNSPECIFIED','UNSPECIFIED','UNSPECIFIED');
#1548=PERSON_AND_ORGANIZATION(#1546,#1547);
#1549=APPROVAL_ROLE('approver');
#1550=APPROVAL_PERSON_ORGANIZATION(#1548,#1535,#1549);
#1551=PERSON_AND_ORGANIZATION_ROLE('creator');
#1552=CC_DESIGN_PERSON_AND_ORGANIZATION_ASSIGNMENT(#1548,#1551,(#1116,#1474,#1524,#1117,#1475,#1525));
#1553=PERSON_AND_ORGANIZATION_ROLE('design_supplier');
#1554=CC_DESIGN_PERSON_AND_ORGANIZATION_ASSIGNMENT(#1548,#1553,(#1116,#1474,#1524));
#1555=PERSON_AND_ORGANIZATION_ROLE('classification_officer');
#1556=CC_DESIGN_PERSON_AND_ORGANIZATION_ASSIGNMENT(#1548,#1555,(#1532));
#1557=PERSON_AND_ORGANIZATION_ROLE('design_owner');
#1558=CC_DESIGN_PERSON_AND_ORGANIZATION_ASSIGNMENT(#1548,#1557,(#1523,#1115,#1473));
ENDSEC;
END-ISO-10303-21;
